<?xml version="1.0" encoding="UTF-8" standalone="no"?>
<svg
   version="1.1"
   width="32"
   height="32"
   id="svg13"
   sodipodi:docname="rook.svg"
   inkscape:version="1.3 (0e150ed6c4, 2023-07-21)"
   xmlns:inkscape="http://www.inkscape.org/namespaces/inkscape"
   xmlns:sodipodi="http://sodipodi.sourceforge.net/DTD/sodipodi-0.dtd"
   xmlns="http://www.w3.org/2000/svg"
   xmlns:svg="http://www.w3.org/2000/svg">
  <sodipodi:namedview
     id="namedview13"
     pagecolor="#ffffff"
     bordercolor="#000000"
     borderopacity="0.25"
     inkscape:showpageshadow="2"
     inkscape:pageopacity="0.0"
     inkscape:pagecheckerboard="0"
     inkscape:deskcolor="#d1d1d1"
     inkscape:zoom="21.015214"
     inkscape:cx="16.607017"
     inkscape:cy="15.964625"
     inkscape:window-width="1920"
     inkscape:window-height="974"
     inkscape:window-x="-11"
     inkscape:window-y="-11"
     inkscape:window-maximized="1"
     inkscape:current-layer="g12" />
  <defs
     id="defs1">
    <style
       id="style1">&#10;      g {&#10;        stroke-width: 1.3;&#10;        stroke: black;&#10;        fill: none;&#10;      }&#10;    </style>
  </defs>
  <!-- cannon -->
  <!-- guard -->
  <!-- elephant -->
  <!-- knight -->
  <!-- pawn -->
  <!-- rook -->
  <!-- general -->
  <g
     stroke-linejoin="round"
     id="g12"
     transform="matrix(1.211878,0,0,1.2174904,-9.727849,-6.376334)"
     style="fill:#000000;stroke:none;stroke-width:1.3;fill-opacity:1">
    <path
       id="path27"
       style="color:#000000;fill:#000000;stroke:none;-inkscape-stroke:none;fill-opacity:1"
       d="M 12.199652 6.8816043 A 0.65006498 0.65006498 0 0 0 11.550156 7.5329184 L 11.580778 13.223094 A 0.65006498 0.65006498 0 0 0 12.230273 13.869596 L 14.509148 13.869596 L 14.509148 23.75 L 12.53004 23.75 A 0.65006498 0.65006498 0 0 0 11.880545 24.39971 L 11.880545 26.210876 L 10.739496 26.210876 A 0.65006498 0.65006498 0 0 0 10.09 26.858982 L 10.09 29.270128 A 0.65006498 0.65006498 0 0 0 10.739496 29.919838 L 31.719975 29.919838 A 0.65006498 0.65006498 0 0 0 32.36947 29.270128 L 32.36947 26.858982 A 0.65006498 0.65006498 0 0 0 31.719975 26.210876 L 30.590207 26.210876 L 30.590207 24.39971 A 0.65006498 0.65006498 0 0 0 29.9391 23.75 L 27.94871 23.75 L 27.94871 13.869596 L 30.198576 13.869596 A 0.65006498 0.65006498 0 0 0 30.849683 13.226303 L 30.899644 7.5345227 A 0.65006498 0.65006498 0 0 0 30.250149 6.8816043 L 26.369292 6.8816043 A 0.65006498 0.65006498 0 0 0 25.721408 7.52971 L 25.721408 9.3488978 L 23.800319 9.3488978 L 23.800319 7.52971 A 0.65006498 0.65006498 0 0 0 23.150824 6.8816043 L 19.300588 6.8816043 A 0.65006498 0.65006498 0 0 0 18.651093 7.52971 L 18.651093 9.3488978 L 16.730004 9.3488978 L 16.730004 7.52971 A 0.65006498 0.65006498 0 0 0 16.080509 6.8816043 L 12.199652 6.8816043 z M 12.853982 8.1794199 L 15.429401 8.1794199 L 15.429401 10.000212 A 0.65006498 0.65006498 0 0 0 16.080509 10.649922 L 19.300588 10.649922 A 0.65006498 0.65006498 0 0 0 19.948472 10.000212 L 19.948472 8.1794199 L 22.499717 8.1794199 L 22.499717 10.000212 A 0.65006498 0.65006498 0 0 0 23.150824 10.649922 L 26.369292 10.649922 A 0.65006498 0.65006498 0 0 0 27.018787 10.000212 L 27.018787 8.1794199 L 29.594206 8.1794199 L 29.557138 12.570176 L 12.876545 12.570176 L 12.853982 8.1794199 z M 15.809751 13.869596 L 26.649719 13.869596 L 26.649719 23.75 L 15.809751 23.75 L 15.809751 13.869596 z M 13.179536 25.051024 L 15.160256 25.051024 L 27.300826 25.051024 L 29.289604 25.051024 L 29.289604 26.210876 L 13.179536 26.210876 L 13.179536 25.051024 z M 11.390603 27.510296 L 12.53004 27.510296 L 29.9391 27.510296 L 31.070479 27.510296 L 31.070479 28.618814 L 11.390603 28.618814 L 11.390603 27.510296 z " />
  </g>
</svg>
