<svg version="1.1"
    width="900" height="1000"
    xmlns="http://www.w3.org/2000/svg">
  <style>
    rect, polyline {
      stroke: black;
      fill: transparent;
    }
    polyline {
      line-join: miter;
      stroke-width: 3;
    }
    line {
      stroke: black;
    }
    text {
      font-family: "fz-haiti-kai", fangsong;
      font-size: 80px;
      font-weight: bold;
    }
    @font-face {
      font-family: "fz-haiti-kai";
      src: local("方正字迹-海体楷书繁体"), url("FZZJ-HTKSFW.TTF");
    }
  </style>
  <!-- outer bound: left-top: 30,30; bottom-right: 870,970 -->
  <rect x="30" y="30" width="840" height="940" stroke-width="15" fill="white" />
  <!-- inner bound: left-top: 50,50; bottom-right: 850,950 -->
  <rect x="50" y="50" width="800" height="900" stroke-width="10" />

  <!-- vertical -->
  <line x1="150" x2="150" y1="50" y2="450" stroke-width="6" />
  <line x1="250" x2="250" y1="50" y2="450" stroke-width="6" />
  <line x1="350" x2="350" y1="50" y2="450" stroke-width="6" />
  <line x1="450" x2="450" y1="50" y2="450" stroke-width="6" />
  <line x1="550" x2="550" y1="50" y2="450" stroke-width="6" />
  <line x1="650" x2="650" y1="50" y2="450" stroke-width="6" />
  <line x1="750" x2="750" y1="50" y2="450" stroke-width="6" />

  <line x1="150" x2="150" y1="550" y2="950" stroke-width="6" />
  <line x1="250" x2="250" y1="550" y2="950" stroke-width="6" />
  <line x1="350" x2="350" y1="550" y2="950" stroke-width="6" />
  <line x1="450" x2="450" y1="550" y2="950" stroke-width="6" />
  <line x1="550" x2="550" y1="550" y2="950" stroke-width="6" />
  <line x1="650" x2="650" y1="550" y2="950" stroke-width="6" />
  <line x1="750" x2="750" y1="550" y2="950" stroke-width="6" />

  <!-- horizontal -->
  <line x1="50" x2="850" y1="150" y2="150" stroke-width="6" />
  <line x1="50" x2="850" y1="250" y2="250" stroke-width="6" />
  <line x1="50" x2="850" y1="350" y2="350" stroke-width="6" />
  <line x1="50" x2="850" y1="450" y2="450" stroke-width="10" />
  <line x1="50" x2="850" y1="550" y2="550" stroke-width="10" />
  <line x1="50" x2="850" y1="650" y2="650" stroke-width="6" />
  <line x1="50" x2="850" y1="750" y2="750" stroke-width="6" />
  <line x1="50" x2="850" y1="850" y2="850" stroke-width="6" />

  <!-- diagonal -->
  <line x1="350" x2="550" y1="50" y2="250" stroke-width="6" />
  <line x1="350" x2="550" y1="250" y2="50" stroke-width="6" />
  <line x1="350" x2="550" y1="750" y2="950" stroke-width="6" />
  <line x1="350" x2="550" y1="950" y2="750" stroke-width="6" />

  <!-- full marks -->
  <!-- let center point be (50,50), 8 away from center, 20 long  -->
  <!-- So the four polyline positions are: [22,42 42,42 42,22] [58,22 58,42 78,42] [22,58 42,58 42,78] [58,78 58,58 78,58] -->
  <!-- points to mark are (150,250) (750, 250) (150,750) (750,750) (250,350) (450,350) (650,350) (250,650) (450,650) (650,650) -->
  <!-- (150,250) -->
  <polyline points="122,242 142,242 142,222" />
  <polyline points="158,222 158,242 178,242" />
  <polyline points="122,258 142,258 142,278" />
  <polyline points="158,278 158,258 178,258" />
  <!-- (750,250) -->
  <polyline points="722,242 742,242 742,222" />
  <polyline points="758,222 758,242 778,242" />
  <polyline points="722,258 742,258 742,278" />
  <polyline points="758,278 758,258 778,258" />
  <!-- (150,750) -->
  <polyline points="122,742 142,742 142,722" />
  <polyline points="158,722 158,742 178,742" />
  <polyline points="122,758 142,758 142,778" />
  <polyline points="158,778 158,758 178,758" />
  <!-- (750,750) -->
  <polyline points="722,742 742,742 742,722" />
  <polyline points="758,722 758,742 778,742" />
  <polyline points="722,758 742,758 742,778" />
  <polyline points="758,778 758,758 778,758" />
  <!-- (250,350) -->
  <polyline points="222,342 242,342 242,322" />
  <polyline points="258,322 258,342 278,342" />
  <polyline points="222,358 242,358 242,378" />
  <polyline points="258,378 258,358 278,358" />
  <!-- (450,350) -->
  <polyline points="422,342 442,342 442,322" />
  <polyline points="458,322 458,342 478,342" />
  <polyline points="422,358 442,358 442,378" />
  <polyline points="458,378 458,358 478,358" />
  <!-- (650,350) -->
  <polyline points="622,342 642,342 642,322" />
  <polyline points="658,322 658,342 678,342" />
  <polyline points="622,358 642,358 642,378" />
  <polyline points="658,378 658,358 678,358" />
  <!-- (250,650) -->
  <polyline points="222,642 242,642 242,622" />
  <polyline points="258,622 258,642 278,642" />
  <polyline points="222,658 242,658 242,678" />
  <polyline points="258,678 258,658 278,658" />
  <!-- (450,650) -->
  <polyline points="422,642 442,642 442,622" />
  <polyline points="458,622 458,642 478,642" />
  <polyline points="422,658 442,658 442,678" />
  <polyline points="458,678 458,658 478,658" />
  <!-- (650,650) -->
  <polyline points="622,642 642,642 642,622" />
  <polyline points="658,622 658,642 678,642" />
  <polyline points="622,658 642,658 642,678" />
  <polyline points="658,678 658,658 678,658" />

  <!-- half marks -->
  <!-- let center point be (50,50), 10 away on x, 8 away on y, 20 long  -->
  <!-- So the four polyline positions are: LEFT [20,42 40,42 40,22] [20,58 40,58 40,78] | RIGHT [60,22 60,42 80,42]  [60,78 60,58 80,58] -->
  <!-- points to mark are (50,350R) (850, 350L) (50,650R) (850, 650L) -->
  <!-- (50,350R) -->
  <polyline points="60,322 60,342 80,342" />
  <polyline points="60,378 60,358 80,358" />
  <!-- (850, 350L) -->
  <polyline points="820,342 840,342 840,322" />
  <polyline points="820,358 840,358 840,378" />
  <!-- (50,650R) -->
  <polyline points="60,622 60,642 80,642" />
  <polyline points="60,678 60,658 80,658" />
  <!-- (850, 650L) -->
  <polyline points="820,642 840,642 840,622" />
  <polyline points="820,658 840,658 840,678" />

  <!-- three.js does not seem to support custom font in svg -->
  <!-- <text x="200" y="530">楚河</text>
  <text x="550" y="530">汉界</text> -->
</svg>