<?xml version="1.0" encoding="UTF-8" standalone="no"?>
<svg
   version="1.1"
   width="32"
   height="32"
   id="svg13"
   sodipodi:docname="piece.svg"
   inkscape:version="1.3 (0e150ed6c4, 2023-07-21)"
   xmlns:inkscape="http://www.inkscape.org/namespaces/inkscape"
   xmlns:sodipodi="http://sodipodi.sourceforge.net/DTD/sodipodi-0.dtd"
   xmlns="http://www.w3.org/2000/svg"
   xmlns:svg="http://www.w3.org/2000/svg">
  <sodipodi:namedview
     id="namedview13"
     pagecolor="#ffffff"
     bordercolor="#000000"
     borderopacity="0.25"
     inkscape:showpageshadow="2"
     inkscape:pageopacity="0.0"
     inkscape:pagecheckerboard="0"
     inkscape:deskcolor="#d1d1d1"
     inkscape:zoom="7.43"
     inkscape:cx="7.0659489"
     inkscape:cy="14.602961"
     inkscape:window-width="1920"
     inkscape:window-height="974"
     inkscape:window-x="-11"
     inkscape:window-y="-11"
     inkscape:window-maximized="1"
     inkscape:current-layer="g2" />
  <defs
     id="defs1">
    <style
       id="style1">&#10;      g {&#10;        stroke-width: 1.3;&#10;        stroke: black;&#10;        fill: none;&#10;      }&#10;    </style>
  </defs>
  <!-- cannon -->
  <g
     id="g2"
     transform="translate(-9.0847914,15.343203)">
    <path
       style="color:#000000;fill:#000000;-inkscape-stroke:none;stroke:none"
       d="m 30.279297,24.710937 c -2.008138,0 -3.648438,1.6403 -3.648438,3.648438 0,2.008138 1.6403,3.650391 3.648438,3.650391 2.008138,0 3.65039,-1.642253 3.65039,-3.650391 0,-2.008138 -1.642252,-3.648437 -3.65039,-3.648438 z m 0,1.298829 c 1.305567,0 2.351562,1.044042 2.351562,2.349609 0,1.305567 -1.045995,2.351563 -2.351562,2.351562 -1.305567,0 -2.349609,-1.045995 -2.34961,-2.351562 0,-1.305567 1.044043,-2.349609 2.34961,-2.349609 z"
       id="circle1" />
    <path
       style="color:#000000;fill:#000000;stroke-linejoin:round;-inkscape-stroke:none;fill-opacity:1;stroke:none;stroke-opacity:1"
       d="m 35.173828,19.453125 c -2.213564,-0.467184 -4.996707,0.106002 -8.169922,1.099609 -3.173215,0.993608 -6.730222,2.439008 -10.378906,3.851563 a 0.65006498,0.65006498 0 0 0 -0.414063,0.617187 l 0.05859,3.34961 a 0.65006498,0.65006498 0 0 0 0.589844,0.636718 c 1.511485,0.139676 3.219474,0.309639 4.736328,0.431641 1.516855,0.122003 2.815727,0.201399 3.642578,0.138672 a 0.65006498,0.65006498 0 0 0 0.597656,-0.720703 c -0.305168,-2.739076 1.876768,-5.087382 4.63086,-4.984375 2.754092,0.103007 4.753061,2.607778 4.24414,5.316406 a 0.65006498,0.65006498 0 0 0 0.285157,0.666016 l 4.480468,2.90039 a 0.65006498,0.65006498 0 0 0 0.34375,0.103516 l 4.361329,0.06055 a 0.65006498,0.65006498 0 0 0 0.65625,-0.705078 L 44.648437,29.945312 A 0.65006498,0.65006498 0 0 0 44,29.349609 h -3.513672 l -2.125,-1.498047 c 1.211623,-1.443645 1.677627,-3.16751 1.173828,-4.708984 -0.578516,-1.770087 -2.166296,-3.22618 -4.361328,-3.689453 z m -0.267578,1.273437 c 1.784964,0.376727 2.966095,1.515403 3.392578,2.820313 0.426483,1.30491 0.140561,2.77943 -1.232422,4.009766 a 0.65006498,0.65006498 0 0 0 0.05859,1.013671 l 2.78125,1.960938 a 0.65006498,0.65006498 0 0 0 0.373047,0.119141 h 3.123047 l 0.08008,0.958984 -3.457031,-0.04687 -4.052735,-2.625 c 0.321831,-3.270203 -2.105438,-6.237926 -5.457031,-6.363281 -3.262759,-0.122033 -5.821888,2.516415 -5.890625,5.685547 -0.697399,0.01261 -1.652118,-0.01475 -2.925781,-0.117188 -1.313978,-0.105685 -2.77218,-0.248574 -4.138672,-0.376953 l -0.04297,-2.308594 c 3.500618,-1.359724 6.908157,-2.733122 9.875,-3.662109 3.094279,-0.968891 5.74724,-1.441174 7.513672,-1.06836 z"
       id="path1" />
    <path
       style="color:#000000;fill:#000000;-inkscape-stroke:none;stroke:none"
       d="m 25.835937,28.857422 -1.291015,0.144531 c 0.360777,3.238202 2.943043,5.047509 5.537109,5.144531 2.594067,0.09702 5.304592,-1.514591 5.90625,-4.716797 l -1.277344,-0.240234 c -0.488797,2.601526 -2.530233,3.734871 -4.580078,3.658203 -2.049845,-0.07667 -4.00182,-1.359464 -4.294922,-3.990234 z"
       id="path2" />
  </g>
  <!-- guard -->
  <g
     id="g4"
     transform="translate(56.123823,0.80753677)"
     style="stroke:none">
    <path
       style="color:#000000;fill:#000000;stroke-linejoin:round;-inkscape-stroke:none;stroke:none"
       d="m 19.507812,12.939453 a 0.65006498,0.65006498 0 0 0 -0.52539,0.257813 c -0.946102,1.243134 -1.472656,2.78321 -1.472656,4.421875 0,1.806682 0.764244,3.406116 1.871093,4.693359 -2.362472,1.612614 -4.119808,4.054118 -4.640625,6.972656 a 0.65006498,0.65006498 0 0 0 0.640625,0.765625 h 20 a 0.65006498,0.65006498 0 0 0 0.638672,-0.765625 c -0.52106,-2.919903 -2.278356,-5.362106 -4.642578,-6.974609 1.108598,-1.291358 1.84375,-2.894058 1.84375,-4.691406 0,-1.578484 -0.540718,-3.047966 -1.400391,-4.25586 a 0.65006498,0.65006498 0 0 0 -0.521484,-0.273437 z m 0.371094,1.306641 11.019531,0.138672 c 0.618962,0.958627 1.021485,2.056893 1.021485,3.234375 0,1.682937 -0.682677,3.201299 -1.832031,4.314453 a 0.65006498,0.65006498 0 0 0 0.121093,1.02539 c 2.110015,1.244153 3.557633,3.364717 4.214844,5.791016 H 16.335937 c 0.657212,-2.426299 2.104829,-4.546863 4.214844,-5.791016 a 0.65006498,0.65006498 0 0 0 0.123047,-1.023437 c -1.145447,-1.118175 -1.863281,-2.642788 -1.863281,-4.316406 0,-1.255777 0.403701,-2.401279 1.068359,-3.373047 z"
       id="path3" />
    <path
       style="color:#000000;fill:#000000;-inkscape-stroke:none;stroke:none"
       d="M 25.544922,0.80859375 22.154297,5.609375 14.34375,3.6171875 l 4.472656,8.3906255 0.386719,0.0039 c 4.116341,0.03338 7.346062,-8.42e-4 12.322266,0.09961 l 0.40625,0.0078 0.183593,-0.361328 4.332032,-8.4472661 -7.828125,2.3945312 z m -0.0625,2.34375005 2.564453,4.0859374 5.841797,-1.7871093 -2.746094,5.3554691 c -4.565893,-0.08617 -7.751923,-0.06442 -11.542969,-0.0918 l -2.722656,-5.1093753 5.822266,1.4863282 z"
       id="path4" />
  </g>
  <!-- elephant -->
  <g
     transform="rotate(90,22.341858,-37.335128)"
     id="g7"
     style="stroke:none">
    <path
       style="color:#000000;fill:#000000;-inkscape-stroke:none;stroke:none"
       d="m 61.291016,41.287109 c -1.047855,0.203602 -2.006466,0.633789 -2.742188,1.28711 l 0.863281,0.972656 c 0.932309,-0.82789 2.68284,-1.167373 4.359375,-0.931641 L 63.632812,56.375 c -0.0023,0.232153 -0.04324,0.271799 -0.101562,0.322266 -0.05832,0.05047 -0.205849,0.120053 -0.46875,0.140625 -0.525801,0.04114 -1.409789,-0.132149 -2.296875,-0.416016 -1.774172,-0.567733 -3.591797,-1.509766 -3.591797,-1.509766 l -0.601562,1.152344 c 0,0 1.873015,0.98007 3.796875,1.595703 0.961929,0.307817 1.928467,0.540457 2.794921,0.472656 0.433228,-0.0339 0.867788,-0.147451 1.21875,-0.451171 0.350963,-0.303721 0.545764,-0.78818 0.550782,-1.292969 l 0.148437,-14.917969 -0.511719,-0.115234 c -1.094727,-0.24845 -2.231441,-0.271962 -3.279296,-0.06836 z"
       id="path5" />
    <path
       style="color:#000000;fill:#000000;-inkscape-stroke:none;stroke:none"
       d="m 50.671875,30.703125 -0.08008,3.417969 4.753906,1.1875 -0.150391,0.943359 c -2.688658,0.534476 -5.857841,1.222216 -8.066406,2.828125 -1.163097,0.84572 -2.061262,1.984998 -2.335937,3.453125 -0.262136,1.401107 0.0848,3.057366 1.058593,4.970703 -0.04432,0.167371 -0.205716,0.751277 -0.339843,1.654297 -0.151863,1.022426 -0.304119,2.190803 0.160156,3.136719 0.191413,0.389986 0.46254,0.581125 0.818359,0.849609 0.35582,0.268485 0.800856,0.558281 1.3125,0.867188 1.02329,0.617814 2.307622,1.307721 3.570313,1.957031 2.525382,1.29862 4.964844,2.433594 4.964844,2.433594 l 0.628906,0.291015 0.251953,-0.644531 c 0,0 0.614847,-1.573577 1.128906,-3.412109 0.25703,-0.919266 0.490503,-1.906319 0.609375,-2.820313 0.118872,-0.913993 0.154361,-1.74582 -0.134765,-2.460937 v -0.002 c -0.505422,-1.244182 -1.613052,-1.982032 -2.544922,-2.435547 -0.177201,-0.08624 -0.169375,-0.05403 -0.333985,-0.121094 0.391145,-0.209772 0.473935,-0.222313 0.958985,-0.529297 0.56771,-0.3593 1.144799,-0.766235 1.615234,-1.210937 0.470436,-0.444703 0.890613,-0.918641 0.9375,-1.591797 0.09773,-1.403262 -0.206311,-2.455326 -0.294922,-2.802735 1.620067,-1.262285 2.585291,-2.421772 2.822266,-3.597656 0.253815,-1.259446 -0.398295,-2.395177 -1.419922,-3.195312 -2.043254,-1.600271 -5.659184,-2.461479 -9.152344,-3.042969 z m 1.263672,1.574219 c 3.169772,0.579859 6.341103,1.452133 7.826172,2.615234 0.802216,0.628293 1.094826,1.181855 0.947265,1.914063 -0.147561,0.732207 -0.887127,1.797869 -2.607422,3.074218 l -0.357421,0.263672 0.117187,0.427735 c 0,0 0.387941,1.495177 0.296875,2.802734 -0.0041,0.05832 -0.164309,0.387612 -0.533203,0.736328 -0.368894,0.348716 -0.892048,0.725742 -1.417969,1.058594 -1.051842,0.665704 -2.103515,1.162109 -2.103515,1.162109 l 0.277343,-0.0625 -0.138672,1.285156 c 0,0 0.683669,0.150124 1.466797,0.53125 0.783129,0.381127 1.593626,0.983426 1.908203,1.757813 0.118243,0.293759 0.156696,0.990324 0.05078,1.804687 -0.106029,0.815244 -0.325593,1.756448 -0.572266,2.638672 -0.392283,1.403003 -0.694546,2.161366 -0.865234,2.615235 -0.52383,-0.24557 -2.100029,-0.97724 -4.263672,-2.089844 -1.248197,-0.641856 -2.514715,-1.323911 -3.492188,-1.914063 -0.488736,-0.295075 -0.906791,-0.567415 -1.203125,-0.791015 -0.296334,-0.2236 -0.466258,-0.455297 -0.43164,-0.384766 -0.162905,-0.331902 -0.181831,-1.438144 -0.04297,-2.373047 0.138862,-0.934902 0.353516,-1.722656 0.353516,-1.722656 l 0.06836,-0.25 -0.123047,-0.228516 c -0.997721,-1.863979 -1.229946,-3.281661 -1.025391,-4.375 0.204556,-1.093338 0.843188,-1.930662 1.822266,-2.642578 1.958157,-1.423831 5.248599,-2.166857 8.001953,-2.708984 l 0.445313,-0.08789 0.476562,-2.998047 -4.90039,-1.222656 z"
       id="path6" />
    <path
       style="color:#000000;fill:#000000;-inkscape-stroke:none;stroke:none"
       d="m 56.214844,29.435547 -1.789063,13.740234 4.636719,-0.27539 0.09375,-0.613282 -0.01172,-0.08984 L 57.503906,29.4375 Z m 0.640625,5.148437 0.912109,7.089844 -1.849609,0.111328 z"
       id="path7" />
    <path
       style="color:#000000;fill:#000000;-inkscape-stroke:none;stroke:none"
       d="m 51,39.75 c -0.682656,0 -1.25,0.567344 -1.25,1.25 0,0.682656 0.567344,1.25 1.25,1.25 0.682656,0 1.25,-0.567344 1.25,-1.25 0,-0.682656 -0.567344,-1.25 -1.25,-1.25 z m 0,1.199219 c 0.01991,0 0.05078,0.03087 0.05078,0.05078 0,0.01991 -0.03087,0.05078 -0.05078,0.05078 -0.01991,0 -0.05078,-0.03087 -0.05078,-0.05078 0,-0.01991 0.03087,-0.05078 0.05078,-0.05078 z"
       id="circle7" />
  </g>
  <!-- knight -->
  <g
     transform="rotate(110,60.867847,15.854049)"
     id="g9"
     style="stroke:none">
    <path
       style="color:#000000;fill:#000000;stroke-linejoin:round;-inkscape-stroke:none;stroke:none"
       d="m 35.408203,14.134766 c -0.628574,0.08713 -1.295119,0.388747 -1.919922,0.96289 a 0.65006498,0.65006498 0 0 0 -0.152344,0.208985 l -3.396484,7.476562 H 27.5 a 0.65006498,0.65006498 0 0 0 -0.648438,0.683594 c 0.102107,2.053734 0.3829,3.840511 0.826172,5.388672 l 1.25,-0.357422 c -0.35536,-1.241121 -0.549518,-2.771286 -0.673828,-4.414063 h 2.103516 a 0.65006498,0.65006498 0 0 0 0.591797,-0.380859 l 3.49414,-7.691406 c 0.902584,-0.790733 1.501034,-0.730303 1.982422,-0.4375 0.496833,0.302196 0.815154,1.007571 0.783203,1.375 a 0.65006498,0.65006498 0 0 0 0.0039,0.136718 l 0.71289,5.714844 a 0.65006498,0.65006498 0 0 0 1.146485,0.333985 c 2.043785,-2.462496 3.37461,-3.405186 5.255859,-4.732422 l 5.201172,14.298828 c -3.768762,1.733682 -7.604056,2.896443 -10.916016,2.90625 -3.473337,0.01028 -6.327137,-1.127206 -8.216797,-4.039063 l -1.089843,0.708985 c 2.137916,3.294407 5.537961,4.640077 9.310546,4.628906 3.772586,-0.01117 7.963613,-1.308921 12.019532,-3.242188 A 0.65006498,0.65006498 0 0 0 50.96875,32.853516 L 45.253906,17.140625 a 0.65006498,0.65006498 0 0 0 -0.988281,-0.308594 c -1.955807,1.389445 -3.404462,2.499253 -5.216797,4.470703 l -0.546875,-4.378906 0.002,0.136719 c 0.0871,-1.00162 -0.455725,-2.021879 -1.402344,-2.597656 -0.473309,-0.287889 -1.064785,-0.415253 -1.693359,-0.328125 z"
       id="path8" />
    <g
       id="circle8"
       style="stroke:none">
      <path
         style="color:#000000;fill:#000000;-inkscape-stroke:none;stroke:none"
         d="M 34.1,24 A 0.60000002,0.60000002 0 0 1 33.5,24.6 0.60000002,0.60000002 0 0 1 32.9,24 0.60000002,0.60000002 0 0 1 33.5,23.4 0.60000002,0.60000002 0 0 1 34.1,24 Z"
         id="path16" />
      <path
         style="color:#000000;fill:#000000;-inkscape-stroke:none;stroke:none"
         d="m 33.5,22.75 c -0.682656,0 -1.25,0.567344 -1.25,1.25 0,0.682656 0.567344,1.25 1.25,1.25 0.682656,0 1.25,-0.567344 1.25,-1.25 0,-0.682656 -0.567344,-1.25 -1.25,-1.25 z m 0,1.199219 c 0.01991,0 0.05078,0.03087 0.05078,0.05078 0,0.01992 -0.03087,0.05078 -0.05078,0.05078 -0.01991,0 -0.05078,-0.03087 -0.05078,-0.05078 0,-0.01992 0.03087,-0.05078 0.05078,-0.05078 z"
         id="path17" />
    </g>
    <path
       style="color:#000000;fill:#000000;-inkscape-stroke:none;stroke:none"
       d="m 31.876953,26.736328 -8.232422,2.337891 0.691406,0.773437 c 2.071448,2.321149 5.894263,3.279968 9.117188,2.521485 l -0.298828,-1.265625 c -2.331681,0.548738 -5.125228,-0.08788 -6.935547,-1.408204 l 6.011719,-1.707031 z"
       id="path9" />
  </g>
  <!-- pawn -->
  <g
     transform="matrix(0.8,0,0,0.8,-62.382234,1.1224764)"
     id="g10"
     style="stroke:none">
    <path
       style="color:#000000;fill:#000000;stroke-linejoin:round;-inkscape-stroke:none;stroke:none"
       d="m 29.167969,19.722656 c -2.932704,0 -5.330078,2.395401 -5.330078,5.328125 0,0.671646 0.275913,1.210218 0.503906,1.769531 -4.801685,1.934358 -8.226563,6.538607 -8.226563,12.025391 0,3.678646 1.582476,6.957334 4.025391,9.337891 -4.012254,2.416163 -7.012955,6.332011 -8.130859,11.017578 a 0.81258125,0.81258125 0 0 0 0.789062,1.001953 H 45.583984 A 0.81258125,0.81258125 0 0 0 46.375,59.201172 c -1.117707,-4.684659 -4.117855,-8.599324 -8.128906,-11.015625 2.452108,-2.381497 4.023437,-5.662986 4.023437,-9.339844 0,-5.482744 -3.445674,-10.091551 -8.240234,-12.03125 0.212552,-0.565822 0.46875,-1.116914 0.46875,-1.763672 0,-2.932728 -2.397383,-5.328125 -5.330078,-5.328125 z m 0,1.625 c 2.053099,0 3.705078,1.650003 3.705078,3.703125 0,0.649013 -0.176636,1.247156 -0.480469,1.791016 a 0.81258125,0.81258125 0 0 0 0.449219,1.166015 c 4.525018,1.529549 7.802734,5.790105 7.802734,10.837891 0,3.56368 -1.620778,6.735768 -4.173828,8.84375 a 0.81258125,0.81258125 0 0 0 0.140625,1.347656 c 3.753232,1.957835 6.550884,5.418737 7.828125,9.541016 h -30.49414 c 1.277225,-4.122277 4.072921,-7.583181 7.826171,-9.541016 a 0.81258125,0.81258125 0 0 0 0.144532,-1.345703 c -2.54146,-2.108786 -4.175782,-5.283934 -4.175782,-8.845703 0,-5.062367 3.25999,-9.317266 7.800782,-10.837891 a 0.81258125,0.81258125 0 0 0 0.449218,-1.167968 c -0.321928,-0.572599 -0.527343,-1.165095 -0.527343,-1.789063 0,-2.053127 1.651967,-3.703125 3.705078,-3.703125 z"
       id="path10" />
  </g>
  <!-- rook -->
  <g
     stroke-linejoin="round"
     id="g12"
     transform="translate(-3.0282638,-26.446838)"
     style="stroke:none">
    <path
       style="color:#000000;fill:#000000;-inkscape-stroke:none;stroke:none"
       d="m 15.160156,12.570313 a 0.65006498,0.65006498 0 0 0 -0.65039,0.65039 v 11.179688 a 0.65006498,0.65006498 0 0 0 0.65039,0.65039 h 12.140625 a 0.65006498,0.65006498 0 0 0 0.648438,-0.65039 V 13.220703 a 0.65006498,0.65006498 0 0 0 -0.648438,-0.65039 z m 0.650391,1.298828 H 26.650391 V 23.75 H 15.810547 Z"
       id="rect10" />
    <path
       style="color:#000000;fill:#000000;-inkscape-stroke:none;stroke:none"
       d="m 12.529297,23.75 a 0.65006498,0.65006498 0 0 0 -0.648438,0.650391 v 2.458984 a 0.65006498,0.65006498 0 0 0 0.648438,0.650391 h 17.410156 a 0.65006498,0.65006498 0 0 0 0.650391,-0.650391 V 24.400391 A 0.65006498,0.65006498 0 0 0 29.939453,23.75 Z m 0.650391,1.300781 h 16.109374 v 1.160156 H 13.179688 Z"
       id="rect11" />
    <path
       style="color:#000000;fill:#000000;-inkscape-stroke:none;stroke:none"
       d="m 10.740234,26.210937 a 0.65006498,0.65006498 0 0 0 -0.65039,0.648438 v 2.410156 a 0.65006498,0.65006498 0 0 0 0.65039,0.650391 h 20.980469 a 0.65006498,0.65006498 0 0 0 0.648438,-0.650391 v -2.410156 a 0.65006498,0.65006498 0 0 0 -0.648438,-0.648438 z m 0.650391,1.298829 h 19.679687 v 1.109375 H 11.390625 Z"
       id="rect12" />
    <path
       style="color:#000000;fill:#000000;-inkscape-stroke:none;stroke:none"
       d="m 12.199219,6.8808594 a 0.65006498,0.65006498 0 0 0 -0.648438,0.6523437 l 0.0293,5.6894529 a 0.65006498,0.65006498 0 0 0 0.650391,0.646485 h 17.96875 a 0.65006498,0.65006498 0 0 0 0.65039,-0.642578 l 0.05078,-5.6914068 A 0.65006498,0.65006498 0 0 0 30.25,6.8808594 H 26.369141 A 0.65006498,0.65006498 0 0 0 25.720703,7.5292969 V 9.3496094 H 23.800781 V 7.5292969 a 0.65006498,0.65006498 0 0 0 -0.65039,-0.6484375 h -3.84961 a 0.65006498,0.65006498 0 0 0 -0.65039,0.6484375 V 9.3496094 H 16.730469 V 7.5292969 A 0.65006498,0.65006498 0 0 0 16.080078,6.8808594 Z m 0.654297,1.2988281 h 2.576172 V 10 a 0.65006498,0.65006498 0 0 0 0.65039,0.650391 h 3.220703 A 0.65006498,0.65006498 0 0 0 19.949219,10 V 8.1796875 H 22.5 V 10 a 0.65006498,0.65006498 0 0 0 0.650391,0.650391 h 3.21875 A 0.65006498,0.65006498 0 0 0 27.019531,10 V 8.1796875 h 2.574219 l -0.03711,4.3906255 H 12.876953 Z"
       id="path12" />
  </g>
  <!-- general -->
  <g
     id="g13"
     transform="translate(-40.982504,-31.359354)"
     style="stroke:none">
    <g
       id="path13"
       transform="matrix(0.1,0,0,0.1,20,20)"
       style="stroke:none">
      <path
         style="color:#000000;fill:#000000;stroke-linejoin:round;-inkscape-stroke:none;stroke:none"
         d="m 0,-172.5 c -8.6533004,0 -17.30659,0.51906 -25.953125,1.55664 a 8.0008,8.0008 0 0 0 -7.042969,8.18555 l 0.708985,23.36523 -22.478516,-3.51172 a 8.0008,8.0008 0 0 0 -9.210937,7.29102 c -1.36341,17.72432 -1.367608,34.81918 0.0039,51.277343 a 8.0008,8.0008 0 0 0 9.207031,7.240234 L -32,-80.652344 v 27.101563 c -33.753851,-11.143537 -61.171194,-14.800365 -82.36914,-6.242188 -11.80685,4.76674 -21.21165,13.719596 -27.08398,26.017578 C -147.32546,-21.477408 -150,-6.0171043 -150,13 c 0,49.83683 25.84377,100.57818 50.84375,150.57812 A 8.0008,8.0008 0 0 0 -92,168 H 92 a 8.0008,8.0008 0 0 0 7.15625,-4.42188 C 124.15623,113.57818 150,62.83683 150,13 150,-6.0171043 147.32546,-21.477408 141.45312,-33.775391 135.58079,-46.073373 126.17599,-55.026229 114.36914,-59.792969 93.171194,-68.351146 65.753851,-64.694318 32,-53.550781 v -27.101563 l 22.765625,3.556641 a 8.0008,8.0008 0 0 0 9.207031,-7.240234 c 1.371514,-16.458163 1.367316,-33.553023 0.0039,-51.277343 a 8.0008,8.0008 0 0 0 -9.210937,-7.29102 l -22.478516,3.51172 0.708985,-23.36523 a 8.0008,8.0008 0 0 0 -7.042969,-8.18555 C 17.30659,-171.98094 8.6533004,-172.5 0,-172.5 Z m 0,16 c 5.5905796,0 11.182514,0.31868 16.775391,0.78711 l -0.771485,25.4707 a 8.0008,8.0008 0 0 0 9.230469,8.14649 l 23.128906,-3.61328 c 0.546709,10.76573 0.5492,21.23839 0.01563,31.421871 L 25.234375,-97.904297 A 8.0008,8.0008 0 0 0 16,-90 v 35.71875 c -10.669028,0.927974 -21.330972,0.927974 -32,0 V -90 a 8.0008,8.0008 0 0 0 -9.234375,-7.904297 l -23.144531,3.617188 c -0.533575,-10.183481 -0.531084,-20.656141 0.01563,-31.421871 l 23.128906,3.61328 a 8.0008,8.0008 0 0 0 9.230469,-8.14649 l -0.771485,-25.4707 C -11.182514,-156.18132 -5.5905796,-156.5 0,-156.5 Z m -84.878906,108.285156 c 14.451648,0.535378 32.61465,4.583186 53.878906,11.939453 V 114 h -74.38672 C -121.56988,78.795229 -134,44.584798 -134,13 c 0,-17.4828592 2.57547,-30.647614 6.98437,-39.880859 4.40891,-9.233246 10.31664,-14.71792 18.63477,-18.076172 6.2386,-2.518689 14.10963,-3.605762 23.501954,-3.257813 z m 169.757812,0 c 9.392324,-0.347949 17.263354,0.739124 23.501954,3.257813 8.31813,3.358252 14.22586,8.842926 18.63477,18.076172 C 131.42453,-17.647614 134,-4.4828592 134,13 134,44.584798 121.56988,78.795229 105.38672,114 H 31 V -36.275391 c 21.264256,-7.356267 39.427258,-11.404075 53.878906,-11.939453 z M -15,-38.125 c 9.998721,0.749619 20.001279,0.749619 30,0 V 114 H -15 Z M -97.757812,130 H 97.757812 c -3.534946,7.31499 -7.075438,14.6332 -10.751953,22 H -87.005859 c -3.676515,-7.3668 -7.217007,-14.68501 -10.751953,-22 z"
         id="path14" />
      <path
         style="color:#000000;fill:#000000;stroke-linejoin:round;-inkscape-stroke:none;stroke:none"
         d="m 0,-173.15039 c -8.6792848,0 -17.359249,0.52186 -26.03125,1.5625 -4.440992,0.53344 -7.750443,4.37874 -7.615234,8.84961 l 0.685547,22.58203 -21.705079,-3.39062 c -4.973393,-0.7762 -9.57264,2.86406 -9.958984,7.88281 -1.365852,17.75606 -1.370703,34.88743 0.0039,51.38281 0.416485,4.99467 5.003036,8.601088 9.955078,7.828125 l 22.015625,-3.439453 v 25.460937 c -33.4152,-10.939479 -60.70959,-14.545368 -81.962889,-5.964843 -11.95772,4.827648 -21.49003,13.911001 -27.42578,26.341797 -5.93054,12.41987 -8.61133,27.9766584 -8.61133,47.054687 0,50.061493 25.91362,100.87218 50.912109,150.86914 1.465039,2.92921 4.463135,4.78147 7.738281,4.78125 H 92 c 3.275146,2.2e-4 6.273242,-1.85204 7.738281,-4.78125 C 124.73677,113.87218 150.65039,63.061493 150.65039,13 c 0,-19.0780286 -2.68079,-34.634817 -8.61133,-47.054687 -5.93575,-12.430796 -15.46806,-21.514149 -27.42578,-26.341797 -21.253299,-8.580525 -48.547689,-4.974636 -81.962889,5.964843 v -25.460937 l 22.015625,3.439453 c 4.952042,0.772963 9.538593,-2.833455 9.955078,-7.828125 1.374615,-16.49538 1.369764,-33.62675 0.0039,-51.38281 -0.386344,-5.01875 -4.985591,-8.65901 -9.958984,-7.88281 l -21.705079,3.39062 0.685547,-22.58203 c 0.135209,-4.47087 -3.174242,-8.31617 -7.615234,-8.84961 -8.671995,-1.04064 -17.3519652,-1.5625 -26.03125,-1.5625 z m 0,1.30078 c 8.6272987,0 17.253954,0.51626 25.875,1.55078 3.78423,0.45455 6.585917,3.7118 6.470703,7.52149 l -0.708984,23.36523 a 0.65006498,0.65006498 0 0 0 0.75,0.66211 l 22.478515,-3.51172 c 4.243857,-0.66233 8.133219,2.41666 8.462891,6.69922 1.360971,17.69254 1.364504,34.75096 -0.0039,51.171875 -0.35537,4.261753 -4.233605,7.311882 -8.458985,6.652344 l -22.765625,-3.556641 a 0.65006498,0.65006498 0 0 0 -0.75,0.642578 v 27.101563 a 0.65006498,0.65006498 0 0 0 0.853516,0.617187 c 33.694514,-11.123947 60.963968,-14.717126 81.921875,-6.255859 11.65596,4.705822 20.93329,13.528216 26.74219,25.693359 5.81412,12.176071 8.48242,27.5399521 8.48242,46.496094 0,49.612068 -25.77397,100.28429 -50.775391,150.28711 C 97.328203,165.7784 94.785512,167.3498 92,167.34961 H -92 c -2.785512,1.9e-4 -5.328203,-1.57121 -6.574219,-4.0625 C -123.57564,113.28429 -149.34961,62.612068 -149.34961,13 c 0,-18.9561419 2.6683,-34.320023 8.48242,-46.496094 5.8089,-12.165143 15.08623,-20.987537 26.74219,-25.693359 20.957907,-8.461267 48.227361,-4.868088 81.921875,6.255859 a 0.65006498,0.65006498 0 0 0 0.853516,-0.617187 v -27.101563 a 0.65006498,0.65006498 0 0 0 -0.75,-0.642578 l -22.765625,3.556641 c -4.22538,0.659538 -8.103615,-2.390591 -8.458985,-6.652344 -1.368404,-16.420915 -1.364871,-33.479335 -0.0039,-51.171875 0.329672,-4.28256 4.219034,-7.36155 8.462891,-6.69922 l 22.478515,3.51172 a 0.65006498,0.65006498 0 0 0 0.75,-0.66211 l -0.708984,-23.36523 c -0.115214,-3.80969 2.686473,-7.06694 6.470703,-7.52149 8.621052,-1.03452 17.2477013,-1.55078 25.875,-1.55078 z m 0,14.69922 c -5.6152753,0 -11.225736,0.31967 -16.830078,0.78906 a 0.65006498,0.65006498 0 0 0 -0.595703,0.66797 l 0.771484,25.4707 c 0.139185,4.61254 -3.920987,8.19572 -8.480469,7.48438 l -23.128906,-3.61328 a 0.65006498,0.65006498 0 0 0 -0.748047,0.60937 c -0.547791,10.78695 -0.550423,21.28145 -0.01563,31.488284 a 0.65006498,0.65006498 0 0 0 0.748047,0.609375 l 23.144531,-3.617188 c 4.469369,-0.697433 8.483904,2.738262 8.484375,7.261719 v 35.71875 a 0.65006498,0.65006498 0 0 0 0.59375,0.648438 c 10.7062598,0.931212 21.4070222,0.931212 32.113282,0 a 0.65006498,0.65006498 0 0 0 0.59375,-0.648438 V -90 c 4.71e-4,-4.523457 4.015006,-7.959152 8.484375,-7.261719 l 23.144531,3.617188 a 0.65006498,0.65006498 0 0 0 0.748047,-0.609375 c 0.534793,-10.206834 0.532161,-20.701334 -0.01563,-31.488284 a 0.65006498,0.65006498 0 0 0 -0.748047,-0.60937 l -23.128906,3.61328 c -4.559482,0.71134 -8.619654,-2.87184 -8.480469,-7.48438 l 0.771484,-25.4707 a 0.65006498,0.65006498 0 0 0 -0.595703,-0.66797 C 11.225731,-156.83072 5.6152753,-157.15039 0,-157.15039 Z m 0,1.30078 c 5.3610714,0 10.72998,0.31645 16.105469,0.75586 l -0.751953,24.83203 c -0.162929,5.3994 4.64318,9.64128 9.980468,8.80859 l 22.400391,-3.5 c 0.496922,10.23639 0.497626,20.20552 0.01367,29.910161 L 25.333984,-98.546875 C 20.100424,-99.363558 15.350161,-95.296898 15.349609,-90 v 35.095703 c -10.2355677,0.857142 -20.4636503,0.857142 -30.699218,0 V -90 c -5.52e-4,-5.296898 -4.750815,-9.363558 -9.984375,-8.546875 l -22.414063,3.503906 c -0.483958,-9.704641 -0.483254,-19.673771 0.01367,-29.910161 l 22.400391,3.5 c 5.337288,0.83269 10.143397,-3.40919 9.980468,-8.80859 l -0.751953,-24.83203 c 5.375484,-0.43941 10.7443976,-0.75586 16.105469,-0.75586 z m -84.855469,106.984376 c -9.455791,-0.350301 -17.415151,0.739255 -23.769531,3.304687 -8.44687,3.410226 -14.5135,9.053732 -18.97656,18.400391 -4.47001,9.361211 -7.04883,22.6134783 -7.04883,40.160156 0,31.755304 12.47669,66.036317 28.67383,101.27148 a 0.65006498,0.65006498 0 0 0 0.58984,0.37891 H -31 A 0.65006498,0.65006498 0 0 0 -30.349609,114 V -36.275391 a 0.65006498,0.65006498 0 0 0 -0.4375,-0.615234 c -21.302688,-7.369562 -39.515737,-11.435491 -54.06836,-11.974609 z m 169.710938,0 c -14.552623,0.539118 -32.765672,4.605047 -54.06836,11.974609 a 0.65006498,0.65006498 0 0 0 -0.4375,0.615234 V 114 A 0.65006498,0.65006498 0 0 0 31,114.65039 h 74.38672 a 0.65006498,0.65006498 0 0 0 0.58984,-0.37891 C 122.1737,79.036317 134.65039,44.755304 134.65039,13 c 0,-17.5466777 -2.57882,-30.798945 -7.04883,-40.160156 -4.46306,-9.346659 -10.52969,-14.990165 -18.97656,-18.400391 -6.35438,-2.565432 -14.31374,-3.654988 -23.769531,-3.304687 z m -169.757813,1.300781 c 14.248283,0.527844 32.22168,4.521984 53.251953,11.765625 V 113.34961 H -104.96094 C -121.04407,78.310244 -133.34961,44.300405 -133.34961,13 c 0,-17.4190057 2.57214,-30.496302 6.91992,-39.601562 4.35475,-9.119815 10.10359,-14.445683 18.29297,-17.751954 6.12281,-2.47194 13.905538,-3.556534 23.234376,-3.210937 z m 169.804688,0 c 9.328838,-0.345597 17.111566,0.738997 23.234376,3.210937 8.18938,3.306271 13.93822,8.632139 18.29297,17.751954 4.34778,9.10526 6.91992,22.1825563 6.91992,39.601562 0,31.300405 -12.30554,65.310244 -28.38867,100.34961 H 31.650391 V -35.798828 c 21.030273,-7.243641 39.00367,-11.237781 53.251953,-11.765625 z m -99.853516,8.791016 A 0.65006498,0.65006498 0 0 0 -15.650391,-38.125 V 114 A 0.65006498,0.65006498 0 0 0 -15,114.65039 H 15 A 0.65006498,0.65006498 0 0 0 15.650391,114 V -38.125 a 0.65006498,0.65006498 0 0 0 -0.699219,-0.648437 c -9.9664831,0.747202 -19.9358609,0.747202 -29.902344,0 z m 0.601563,1.322265 c 9.5650765,0.683777 19.1341415,0.683777 28.699218,0 V 113.34961 H -14.349609 Z M -97.757812,129.34961 a 0.65006498,0.65006498 0 0 0 -0.585938,0.93359 c 3.535026,7.31516 7.076998,14.63631 10.755859,22.00782 a 0.65006498,0.65006498 0 0 0 0.582032,0.35937 H 87.005859 a 0.65006498,0.65006498 0 0 0 0.582032,-0.35937 c 3.678861,-7.37151 7.220833,-14.69266 10.755859,-22.00782 a 0.65006498,0.65006498 0 0 0 -0.585938,-0.93359 z m 1.042968,1.30078 H 96.714844 c -3.327554,6.88478 -6.661263,13.77151 -10.115235,20.69922 H -86.599609 c -3.453972,-6.92771 -6.787681,-13.81444 -10.115235,-20.69922 z"
         id="path15" />
    </g>
  </g>
</svg>
