<?xml version="1.0" encoding="UTF-8" standalone="no"?>
<svg
   version="1.1"
   width="32"
   height="32"
   id="svg13"
   sodipodi:docname="rook.svg"
   inkscape:version="1.3 (0e150ed6c4, 2023-07-21)"
   xmlns:inkscape="http://www.inkscape.org/namespaces/inkscape"
   xmlns:sodipodi="http://sodipodi.sourceforge.net/DTD/sodipodi-0.dtd"
   xmlns="http://www.w3.org/2000/svg"
   xmlns:svg="http://www.w3.org/2000/svg">
  <sodipodi:namedview
     id="namedview13"
     pagecolor="#ffffff"
     bordercolor="#000000"
     borderopacity="0.25"
     inkscape:showpageshadow="2"
     inkscape:pageopacity="0.0"
     inkscape:pagecheckerboard="0"
     inkscape:deskcolor="#d1d1d1"
     inkscape:zoom="7.43"
     inkscape:cx="7.1332436"
     inkscape:cy="14.602961"
     inkscape:window-width="1920"
     inkscape:window-height="974"
     inkscape:window-x="-11"
     inkscape:window-y="-11"
     inkscape:window-maximized="1"
     inkscape:current-layer="svg13" />
  <defs
     id="defs1">
    <style
       id="style1">&#10;      g {&#10;        stroke-width: 1.3;&#10;        stroke: black;&#10;        fill: none;&#10;      }&#10;    </style>
  </defs>
  <!-- cannon -->
  <!-- guard -->
  <!-- elephant -->
  <!-- knight -->
  <!-- pawn -->
  <!-- rook -->
  <!-- general -->
  <g
     stroke-linejoin="round"
     id="g12"
     transform="matrix(1.211878,0,0,1.2174904,-9.727849,-6.376334)"
     style="fill:#000000;stroke:none;stroke-width:1.3;fill-opacity:1">
    <path
       style="color:#000000;fill:#000000;stroke:none;-inkscape-stroke:none;fill-opacity:1"
       d="m 15.160156,12.570313 a 0.65006498,0.65006498 0 0 0 -0.65039,0.65039 v 11.179688 a 0.65006498,0.65006498 0 0 0 0.65039,0.65039 h 12.140625 a 0.65006498,0.65006498 0 0 0 0.648438,-0.65039 V 13.220703 a 0.65006498,0.65006498 0 0 0 -0.648438,-0.65039 z m 0.650391,1.298828 H 26.650391 V 23.75 H 15.810547 Z"
       id="path27" />
    <path
       style="color:#000000;fill:#000000;stroke:none;-inkscape-stroke:none;fill-opacity:1"
       d="m 12.529297,23.75 a 0.65006498,0.65006498 0 0 0 -0.648438,0.650391 v 2.458984 a 0.65006498,0.65006498 0 0 0 0.648438,0.650391 h 17.410156 a 0.65006498,0.65006498 0 0 0 0.650391,-0.650391 V 24.400391 A 0.65006498,0.65006498 0 0 0 29.939453,23.75 Z m 0.650391,1.300781 h 16.109374 v 1.160156 H 13.179688 Z"
       id="path26" />
    <path
       style="color:#000000;fill:#000000;stroke:none;-inkscape-stroke:none;fill-opacity:1"
       d="m 10.740234,26.210937 a 0.65006498,0.65006498 0 0 0 -0.65039,0.648438 v 2.410156 a 0.65006498,0.65006498 0 0 0 0.65039,0.650391 h 20.980469 a 0.65006498,0.65006498 0 0 0 0.648438,-0.650391 v -2.410156 a 0.65006498,0.65006498 0 0 0 -0.648438,-0.648438 z m 0.650391,1.298829 h 19.679687 v 1.109375 H 11.390625 Z"
       id="path25" />
    <path
       style="color:#000000;fill:#000000;stroke:none;-inkscape-stroke:none;fill-opacity:1"
       d="m 12.199219,6.8808594 a 0.65006498,0.65006498 0 0 0 -0.648438,0.6523437 l 0.0293,5.6894529 a 0.65006498,0.65006498 0 0 0 0.650391,0.646485 h 17.96875 a 0.65006498,0.65006498 0 0 0 0.65039,-0.642578 l 0.05078,-5.6914068 A 0.65006498,0.65006498 0 0 0 30.25,6.8808594 H 26.369141 A 0.65006498,0.65006498 0 0 0 25.720703,7.5292969 V 9.3496094 H 23.800781 V 7.5292969 a 0.65006498,0.65006498 0 0 0 -0.65039,-0.6484375 h -3.84961 a 0.65006498,0.65006498 0 0 0 -0.65039,0.6484375 V 9.3496094 H 16.730469 V 7.5292969 A 0.65006498,0.65006498 0 0 0 16.080078,6.8808594 Z m 0.654297,1.2988281 h 2.576172 V 10 a 0.65006498,0.65006498 0 0 0 0.65039,0.650391 h 3.220703 A 0.65006498,0.65006498 0 0 0 19.949219,10 V 8.1796875 H 22.5 V 10 a 0.65006498,0.65006498 0 0 0 0.650391,0.650391 h 3.21875 A 0.65006498,0.65006498 0 0 0 27.019531,10 V 8.1796875 h 2.574219 l -0.03711,4.3906255 H 12.876953 Z"
       id="path24" />
  </g>
</svg>
