<?xml version="1.0" encoding="UTF-8" standalone="no"?>
<svg
   version="1.1"
   width="32"
   height="32"
   id="svg13"
   sodipodi:docname="stone.svg"
   inkscape:version="1.3 (0e150ed6c4, 2023-07-21)"
   xmlns:inkscape="http://www.inkscape.org/namespaces/inkscape"
   xmlns:sodipodi="http://sodipodi.sourceforge.net/DTD/sodipodi-0.dtd"
   xmlns="http://www.w3.org/2000/svg"
   xmlns:svg="http://www.w3.org/2000/svg">
  <sodipodi:namedview
     id="namedview13"
     pagecolor="#ffffff"
     bordercolor="#000000"
     borderopacity="0.25"
     inkscape:showpageshadow="2"
     inkscape:pageopacity="0.0"
     inkscape:pagecheckerboard="0"
     inkscape:deskcolor="#d1d1d1"
     inkscape:zoom="10.507607"
     inkscape:cx="3.901935"
     inkscape:cy="17.844215"
     inkscape:window-width="1920"
     inkscape:window-height="974"
     inkscape:window-x="-11"
     inkscape:window-y="-11"
     inkscape:window-maximized="1"
     inkscape:current-layer="svg13" />
  <defs
     id="defs1">
    <style
       id="style1">&#10;      g {&#10;        stroke-width: 1.3;&#10;        stroke: black;&#10;        fill: none;&#10;      }&#10;    </style>
  </defs>
  <!-- cannon -->
  <!-- guard -->
  <!-- elephant -->
  <!-- knight -->
  <!-- pawn -->
  <!-- rook -->
  <!-- general -->
  <g
     id="g4"
     transform="matrix(1.2230995,0,0,1.2451115,-17.980577,-6.1779781)"
     style="fill:#000000;stroke-width:1.2582;stroke:none;fill-opacity:1">
    <path
       style="color:#000000;stroke-linecap:round;stroke-linejoin:round;-inkscape-stroke:none;paint-order:stroke fill markers;stroke:none;fill:#000000;fill-opacity:1"
       d="m 34.267578,16.044922 a 0.62737271,0.62737271 0 0 0 -0.582031,0.06641 l -3.917969,2.685547 a 0.62737271,0.62737271 0 0 0 -0.271484,0.494141 l -0.181641,4.90625 a 0.62737271,0.62737271 0 0 0 0.390625,0.605468 l 2.277344,0.925782 A 0.62737271,0.62737271 0 0 0 32.25,25.773437 c 0,0 5.531107,-0.275547 6.847656,-0.371093 0.462491,-0.03356 0.865771,-0.243465 1.13086,-0.519532 0.265088,-0.276066 0.406617,-0.595759 0.49414,-0.884765 0.175048,-0.578013 0.140625,-1.105469 0.140625,-1.105469 a 0.62737271,0.62737271 0 0 0 -0.0078,-0.07617 l -0.728516,-4.166015 a 0.62737271,0.62737271 0 0 0 -0.390625,-0.476563 z m -0.146484,1.289062 4.830078,1.88086 0.658203,3.759765 c 4.52e-4,0.01751 0.0098,0.343922 -0.08594,0.660157 -0.04916,0.162317 -0.124559,0.299121 -0.201171,0.378906 -0.07661,0.07979 -0.139102,0.123993 -0.314454,0.136719 -1.209704,0.08779 -6.463145,0.352322 -6.68164,0.363281 l -1.742188,-0.708985 0.154297,-4.152343 z"
       id="path2" />
    <path
       style="color:#000000;stroke-linecap:round;stroke-linejoin:round;-inkscape-stroke:none;paint-order:stroke fill markers;stroke:none;fill:#000000;fill-opacity:1"
       d="m 31.152344,9.8066406 c -2.189759,-0.1504002 -4.823671,0.3893614 -7.177735,0.9960934 -3.138752,0.808977 -5.742187,1.816407 -5.742187,1.816407 A 0.62737271,0.62737271 0 0 0 17.9375,12.855469 l -3.097656,4.628906 a 0.62737271,0.62737271 0 0 0 -0.101563,0.279297 c 0,0 -0.181257,1.526954 0.257813,3.107422 0.219534,0.790234 0.599525,1.615846 1.279297,2.259765 0.679771,0.64392 1.661479,1.070313 2.912109,1.070313 4.400205,0 10.282973,-0.347594 10.550781,-0.363281 a 0.62730998,0.62730998 0 0 0 0.201172,0.08398 0.62730998,0.62730998 0 0 0 0.628906,-0.626953 v -0.0918 a 0.62737271,0.62737271 0 0 0 -0.664062,-0.626953 c 0,0 -6.286594,0.369141 -10.716797,0.36914 -0.981814,0 -1.592445,-0.292296 -2.048828,-0.724609 C 16.682289,21.78839 16.384194,21.1799 16.205078,20.535156 15.862263,19.301163 15.983891,18.123789 15.994141,18.015625 l 2.865234,-4.28125 c 0.151096,-0.05801 2.465149,-0.953225 5.427734,-1.716797 3.05742,-0.788014 6.66489,-1.29913 8.439453,-0.632812 1.874162,0.703715 2.703452,2.198357 3.103516,3.599609 0.400064,1.401252 0.318359,2.621094 0.318359,2.621094 a 0.62730998,0.62730998 0 0 0 0.582032,0.667968 0.62730998,0.62730998 0 0 0 0.669922,-0.582031 c 0,0 0.100343,-1.420065 -0.365235,-3.050781 C 36.569579,13.009909 35.485335,11.081069 33.167969,10.210938 32.563728,9.9840556 31.882263,9.856774 31.152344,9.8066406 Z"
       id="path3" />
  </g>
</svg>
