<?xml version="1.0" encoding="UTF-8" standalone="no"?>
<svg
   version="1.1"
   width="32"
   height="32"
   id="svg13"
   sodipodi:docname="elephant.svg"
   inkscape:version="1.3 (0e150ed6c4, 2023-07-21)"
   xmlns:inkscape="http://www.inkscape.org/namespaces/inkscape"
   xmlns:sodipodi="http://sodipodi.sourceforge.net/DTD/sodipodi-0.dtd"
   xmlns="http://www.w3.org/2000/svg"
   xmlns:svg="http://www.w3.org/2000/svg">
  <sodipodi:namedview
     id="namedview13"
     pagecolor="#ffffff"
     bordercolor="#000000"
     borderopacity="0.25"
     inkscape:showpageshadow="2"
     inkscape:pageopacity="0.0"
     inkscape:pagecheckerboard="0"
     inkscape:deskcolor="#d1d1d1"
     inkscape:zoom="5.6568543"
     inkscape:cx="16.440233"
     inkscape:cy="28.726213"
     inkscape:window-width="1920"
     inkscape:window-height="974"
     inkscape:window-x="-11"
     inkscape:window-y="-11"
     inkscape:window-maximized="1"
     inkscape:current-layer="svg13" />
  <defs
     id="defs1">
    <style
       id="style1">&#10;      g {&#10;        stroke-width: 1.3;&#10;        stroke: black;&#10;        fill: none;&#10;      }&#10;    </style>
  </defs>
  <!-- cannon -->
  <!-- guard -->
  <!-- elephant -->
  <!-- knight -->
  <!-- pawn -->
  <!-- rook -->
  <!-- general -->
  <g
     transform="matrix(0,1.0811582,-1.0943206,0,64.229352,-43.336992)"
     id="g7"
     style="fill:#000000;stroke:none;stroke-width:1.19516;stroke-dasharray:none;fill-opacity:1">
    <path
       id="path22"
       style="color:#000000;fill:#000000;stroke:none;stroke-width:1.19516;stroke-dasharray:none;fill-opacity:1"
       d="M 44.710335 43.631574 C 44.742968 44.778175 45.121706 46.069552 45.85205 47.504553 C 45.80773 47.671924 45.646553 48.256028 45.512426 49.159047 C 45.360563 50.181472 45.207125 51.348996 45.671399 52.294911 C 45.862812 52.684897 46.13393 52.875985 46.489749 53.144468 C 46.845569 53.412953 47.291439 53.702966 47.803083 54.011873 C 48.826372 54.629686 50.11006 55.318686 51.37275 55.967995 C 53.89813 57.266614 56.337045 58.402439 56.337045 58.402439 L 56.967517 58.693359 L 57.218622 58.049052 C 57.218622 58.049052 57.443864 57.458395 57.728059 56.621226 C 58.43959 56.945293 59.394952 57.348218 60.369179 57.65997 C 61.331107 57.967786 62.297399 58.200738 63.163852 58.132937 C 63.59708 58.099037 64.032286 57.985107 64.383248 57.681387 C 64.734211 57.377666 64.929216 56.893993 64.934234 56.389204 L 65.082368 41.470201 L 64.571125 41.355975 C 63.476399 41.107526 62.338354 41.082767 61.2905 41.286369 C 60.615928 41.417441 59.980285 41.644842 59.415341 41.962802 C 59.340141 41.330142 59.213425 40.868713 59.160622 40.661695 C 60.780688 39.399411 61.745419 38.239455 61.982394 37.063572 C 62.236208 35.804127 61.584101 34.668944 60.562476 33.86881 C 59.84268 33.305068 58.924852 32.836016 57.888838 32.435629 L 57.504051 29.437193 L 56.214202 29.435408 L 55.907095 31.791322 C 54.476343 31.392607 52.935719 31.079619 51.410687 30.825755 L 50.671824 30.702605 L 50.592337 34.120464 L 55.34527 35.30913 L 55.195329 36.251495 C 52.506674 36.785971 49.337817 37.474469 47.129254 39.080377 C 45.966158 39.926096 45.068109 41.065807 44.793434 42.533932 C 44.7279 42.884209 44.699457 43.249373 44.710335 43.631574 z M 46.003797 43.656561 C 45.995202 43.340778 46.019499 43.046428 46.070638 42.773093 C 46.275194 41.679756 46.914332 40.843529 47.893409 40.131614 C 49.679805 38.832675 52.570909 38.10233 55.155586 37.572235 L 54.425755 43.176454 L 58.170654 42.953356 C 58.170742 43.094326 58.167672 43.23581 58.158008 43.374565 C 58.153908 43.432885 57.993981 43.762965 57.625087 44.111681 C 57.256194 44.460396 56.732896 44.837205 56.206976 45.170057 C 55.155135 45.83576 54.104196 46.331951 54.104196 46.331951 L 54.380592 46.269483 L 54.241491 47.554527 C 54.241491 47.554527 54.925251 47.705267 55.708378 48.086393 C 56.491507 48.467519 57.303285 49.070018 57.617861 49.844404 C 57.736104 50.138163 57.77436 50.834458 57.668444 51.64882 C 57.562415 52.464063 57.342452 53.404506 57.095779 54.286729 C 56.703497 55.689731 56.401148 56.449353 56.23046 56.903222 C 55.706631 56.657652 54.130733 55.925843 51.967093 54.813241 C 50.718897 54.171385 49.452577 53.48832 48.475105 52.898168 C 47.98637 52.603093 47.568302 52.331109 47.271969 52.107509 C 47.012677 51.911859 46.849984 51.709658 46.836599 51.709503 C 46.678032 51.366057 46.659339 50.275873 46.796856 49.350019 C 46.935718 48.415118 47.150932 47.627703 47.150932 47.627703 L 47.21958 47.377834 L 47.09493 47.147597 C 46.34664 45.749614 46.029582 44.603909 46.003797 43.656561 z M 49.750503 41.000803 C 49.750503 41.683459 50.317953 42.250152 51.000609 42.250152 C 51.683264 42.250152 52.250715 41.683459 52.250715 41.000803 C 52.250715 40.318148 51.683264 39.74967 51.000609 39.74967 C 50.317953 39.74967 49.750503 40.318148 49.750503 41.000803 z M 50.950026 41.007943 C 50.949143 41.005193 50.950026 41.003292 50.950026 41.000803 C 50.950026 40.980894 50.980699 40.949045 51.000609 40.949045 C 51.020519 40.949045 51.051191 40.980894 51.051191 41.000803 C 51.051191 41.020713 51.020519 41.050777 51.000609 41.050777 C 50.983188 41.050777 50.956207 41.027189 50.950026 41.007943 z M 51.91651 33.113847 L 51.936382 32.276783 C 53.243203 32.515845 54.542787 32.807618 55.731863 33.145973 L 55.61444 34.03658 L 51.91651 33.113847 z M 55.917934 41.784323 L 56.855513 34.584508 L 57.767802 41.673667 L 55.917934 41.784323 z M 55.943225 46.795994 C 56.33437 46.586223 56.417433 46.574682 56.902483 46.267699 C 57.470192 45.908399 58.04707 45.500532 58.517504 45.055831 C 58.974979 44.62338 59.3825 44.163194 59.447858 43.519133 C 60.388326 42.712974 62.114616 42.383156 63.77084 42.616032 L 63.633545 56.374926 C 63.631245 56.607079 63.588896 56.647505 63.530574 56.697972 C 63.472254 56.748442 63.325589 56.816613 63.062688 56.837185 C 62.536887 56.878325 61.65189 56.705197 60.764805 56.42133 C 59.781662 56.106726 58.820442 55.690582 58.127298 55.370093 C 58.201335 55.126425 58.275644 54.894227 58.347692 54.636547 C 58.604722 53.717282 58.837615 52.730583 58.956487 51.81659 C 59.075358 50.902597 59.11193 50.07049 58.822805 49.355374 L 58.822805 49.353589 C 58.317383 48.109408 57.209299 47.370874 56.27743 46.91736 C 56.100229 46.83112 56.107835 46.863058 55.943225 46.795994 z M 58.085748 33.954479 C 58.757529 34.242452 59.332188 34.556499 59.762191 34.893275 C 60.564406 35.521568 60.856364 36.074356 60.708803 36.806563 C 60.582411 37.433727 60.016973 38.307008 58.777642 39.346309 L 58.085748 33.954479 z " />
  </g>
</svg>
