<?xml version="1.0" encoding="UTF-8" standalone="no"?>
<svg
   version="1.1"
   width="32"
   height="32"
   id="svg13"
   sodipodi:docname="guard.svg"
   inkscape:version="1.3 (0e150ed6c4, 2023-07-21)"
   xmlns:inkscape="http://www.inkscape.org/namespaces/inkscape"
   xmlns:sodipodi="http://sodipodi.sourceforge.net/DTD/sodipodi-0.dtd"
   xmlns="http://www.w3.org/2000/svg"
   xmlns:svg="http://www.w3.org/2000/svg">
  <sodipodi:namedview
     id="namedview13"
     pagecolor="#ffffff"
     bordercolor="#000000"
     borderopacity="0.25"
     inkscape:showpageshadow="2"
     inkscape:pageopacity="0.0"
     inkscape:pagecheckerboard="0"
     inkscape:deskcolor="#d1d1d1"
     inkscape:zoom="10.507607"
     inkscape:cx="3.901935"
     inkscape:cy="17.844215"
     inkscape:window-width="1920"
     inkscape:window-height="974"
     inkscape:window-x="-11"
     inkscape:window-y="-11"
     inkscape:window-maximized="1"
     inkscape:current-layer="svg13" />
  <defs
     id="defs1">
    <style
       id="style1">&#10;      g {&#10;        stroke-width: 1.3;&#10;        stroke: black;&#10;        fill: none;&#10;      }&#10;    </style>
  </defs>
  <!-- cannon -->
  <!-- guard -->
  <!-- elephant -->
  <!-- knight -->
  <!-- pawn -->
  <!-- rook -->
  <!-- general -->
  <g
     id="g4"
     transform="matrix(1.0444346,0,0,1.0279747,-10.523947,0.13063855)"
     style="fill:#000000;fill-opacity:1;stroke:none;stroke-width:1.2582">
    <path
       id="path43"
       style="color:#000000;fill:#000000;fill-opacity:1;stroke:none;stroke-linejoin:round;-inkscape-stroke:none"
       d="M 25.54324 0.84570316 L 22.162224 5.6355371 L 14.384766 3.6481645 L 18.827959 11.98905 L 19.203835 11.990949 C 23.319968 12.024329 26.548993 11.989291 31.525469 12.089748 L 31.918176 12.097348 L 32.097699 11.747753 L 36.40625 3.3441687 L 28.610091 5.7286358 L 25.54324 0.84570316 z M 25.481529 3.1161719 L 28.056562 7.2144153 L 33.930329 5.4170401 L 31.157073 10.828166 C 26.577931 10.741546 23.388134 10.764517 19.587192 10.736967 L 16.836376 5.572838 L 22.691443 7.0662174 L 25.481529 3.1161719 z M 19.50865 12.961836 A 0.62916246 0.62916246 0 0 0 19.000002 13.208833 C 18.056669 14.448328 17.532028 15.984467 17.532028 17.618672 C 17.532028 19.426859 18.296499 21.027758 19.407669 22.313507 C 17.040134 23.922324 15.281815 26.367771 14.760642 29.288311 A 0.62916246 0.62916246 0 0 0 15.381492 30.029301 L 35.381473 30.029301 A 0.62916246 0.62916246 0 0 0 36.000453 29.288311 C 35.479192 26.36728 33.717851 23.922282 31.349686 22.313507 C 32.463871 21.023471 33.199147 19.418721 33.199147 17.618672 C 33.199147 16.044964 32.659665 14.578875 31.802234 13.37413 A 0.62916246 0.62916246 0 0 0 31.299195 13.111934 L 19.50865 12.961836 z M 19.867696 14.223419 L 30.910229 14.365917 C 31.534671 15.329609 31.940616 16.433088 31.940616 17.618672 C 31.940616 19.3073 31.255608 20.829901 30.102376 21.946812 A 0.62916246 0.62916246 0 0 0 30.220188 22.940499 C 32.343378 24.19242 33.801944 26.327329 34.455808 28.771518 L 16.305287 28.771518 C 16.959151 26.327329 18.415848 24.19242 20.539037 22.940499 A 0.62916246 0.62916246 0 0 0 20.660589 21.948712 C 19.511461 20.826943 18.788689 19.298281 18.788689 17.618672 C 18.788689 16.354302 19.196177 15.20073 19.867696 14.223419 z M 21.619915 15.847896 A 0.62730902 0.62730902 0 0 0 21.047686 16.191792 A 0.62730902 0.62730902 0 0 0 21.32258 17.03538 L 23.512387 18.146865 A 0.62730902 0.62730902 0 0 0 24.355771 17.871368 A 0.62730902 0.62730902 0 0 0 24.080876 17.02778 L 21.89107 15.916295 A 0.62730902 0.62730902 0 0 0 21.619915 15.847896 z M 29.1337 15.849796 A 0.62730902 0.62730902 0 0 0 28.898076 15.916295 L 26.71014 17.02778 A 0.62730902 0.62730902 0 0 0 26.435245 17.871368 A 0.62730902 0.62730902 0 0 0 27.276759 18.146865 L 29.466565 17.03538 A 0.62730902 0.62730902 0 0 0 29.74146 16.191792 A 0.62730902 0.62730902 0 0 0 29.376804 15.878296 A 0.62730902 0.62730902 0 0 0 29.1337 15.849796 z " />
  </g>
</svg>
