<?xml version="1.0" encoding="UTF-8" standalone="no"?>
<svg
   version="1.1"
   width="32"
   height="32"
   id="svg13"
   sodipodi:docname="king.svg"
   inkscape:version="1.3 (0e150ed6c4, 2023-07-21)"
   xmlns:inkscape="http://www.inkscape.org/namespaces/inkscape"
   xmlns:sodipodi="http://sodipodi.sourceforge.net/DTD/sodipodi-0.dtd"
   xmlns="http://www.w3.org/2000/svg"
   xmlns:svg="http://www.w3.org/2000/svg">
  <sodipodi:namedview
     id="namedview13"
     pagecolor="#ffffff"
     bordercolor="#000000"
     borderopacity="0.25"
     inkscape:showpageshadow="2"
     inkscape:pageopacity="0.0"
     inkscape:pagecheckerboard="0"
     inkscape:deskcolor="#d1d1d1"
     inkscape:zoom="5.6568543"
     inkscape:cx="16.263456"
     inkscape:cy="28.726213"
     inkscape:window-width="1920"
     inkscape:window-height="974"
     inkscape:window-x="-11"
     inkscape:window-y="-11"
     inkscape:window-maximized="1"
     inkscape:current-layer="svg13" />
  <defs
     id="defs1">
    <style
       id="style1">&#10;      g {&#10;        stroke-width: 1.3;&#10;        stroke: black;&#10;        fill: none;&#10;      }&#10;    </style>
  </defs>
  <!-- cannon -->
  <!-- guard -->
  <!-- elephant -->
  <!-- knight -->
  <!-- pawn -->
  <!-- rook -->
  <!-- general -->
  <g
     id="g13"
     transform="matrix(0.93335742,0,0,0.82084678,-2.1659774,-0.22531607)"
     style="fill:#000000;fill-opacity:1;stroke:none;stroke-width:1.3">
    <path
       style="color:#000000;fill:#000000;fill-opacity:1;stroke:none;stroke-linejoin:round;-inkscape-stroke:none"
       d="M 19.851562,2.71875 C 18.871693,2.689341 17.855499,2.71435 17.029297,3.3320313 a 0.80008001,0.80008001 0 0 0 -0.320313,0.6640625 l 0.0625,2.0644531 -2.248046,-0.3515625 a 0.80008001,0.80008001 0 0 0 -0.923829,0.8144531 c 0.019,0.657539 -0.09647,1.6507361 -0.130859,2.625 -0.03439,0.9742635 -0.05938,1.9728855 0.5625,2.7929685 a 0.80008001,0.80008001 0 0 0 0.761719,0.306641 l 2.007812,-0.3125 v 2.759766 C 14.225892,13.859796 11.27363,12.949248 8.3808594,14.099609 a 0.80008001,0.80008001 0 0 0 -0.035156,0.01367 C 6.9051336,14.765715 6.0366222,16.00662 5.5683594,17.324219 5.1000966,18.641817 4.9878287,20.064703 5,21.308594 a 0.80008001,0.80008001 0 0 0 0,0.0059 c 0.1022929,5.549515 2.837051,10.420701 5.080078,15.035156 a 0.80008001,0.80008001 0 0 0 0.720703,0.451172 H 27.65625 a 0.80008001,0.80008001 0 0 0 0.164062,-0.01758 c 0.0257,-0.0053 0.403969,0.04136 0.882813,0.04297 0.239422,8.03e-4 0.539045,-0.01617 0.857422,-0.197266 0.318377,-0.181098 0.57215,-0.55384 0.654297,-0.923828 l -0.06055,0.175781 c 2.215002,-4.55962 4.879635,-9.421364 4.841797,-14.919922 -5.49e-4,-1.238748 -0.157492,-2.641092 -0.673828,-3.919921 -0.516587,-1.279448 -1.438819,-2.458323 -2.894532,-3.023438 a 0.80008001,0.80008001 0 0 0 -0.0293,-0.01172 c -2.843642,-0.983505 -5.663557,-0.138914 -8.199218,0.703125 v -2.773437 l 2.277343,0.355469 a 0.80008001,0.80008001 0 0 0 0.923829,-0.806641 C 26.387853,10.813283 26.500876,9.8205299 26.53125,8.8476563 26.561624,7.8747826 26.578732,6.88464 25.974609,6.0664062 A 0.80008001,0.80008001 0 0 0 25.207031,5.7519531 l -1.978515,0.3085938 0.07031,-2.3359375 A 0.80008001,0.80008001 0 0 0 22.521484,2.9003906 C 21.821379,2.8823372 20.831432,2.7481594 19.851562,2.71875 Z m -0.04883,1.5996094 c 0.602328,0.018078 1.244568,0.078652 1.875,0.1269531 l -0.07813,2.53125 a 0.80008001,0.80008001 0 0 0 0.923828,0.8144531 l 2.222657,-0.3476562 c 0.09643,0.3193907 0.206271,0.6897124 0.185547,1.3535156 -0.01779,0.5698522 -0.05238,1.1758545 -0.08594,1.775391 L 22.523437,10.208984 A 0.80008001,0.80008001 0 0 0 21.599609,11 v 3.447266 c -0.30757,0.128998 -0.729781,0.254975 -1.404297,0.234375 -0.574071,-0.01753 -1.189894,-0.07855 -1.794921,-0.126953 V 11 A 0.80008001,0.80008001 0 0 0 17.476562,10.208984 L 15.25,10.556641 c -0.09569,-0.313585 -0.205216,-0.6835653 -0.181641,-1.3515629 0.02011,-0.5697251 0.05301,-1.1764296 0.08594,-1.7773437 l 2.322265,0.3632812 A 0.80008001,0.80008001 0 0 0 18.400393,6.9765625 L 18.326173,4.5585937 C 18.65976,4.4258933 19.103942,4.2973861 19.802735,4.3183594 Z m 9.076172,10.8535156 c 0.676988,0.01785 1.340053,0.125461 1.982422,0.345703 0.971455,0.382975 1.577137,1.128938 1.978516,2.123047 0.403682,0.999815 0.556289,2.224749 0.55664,3.322266 a 0.80008001,0.80008001 0 0 0 0,0.0059 c 0.02578,3.621218 -1.370567,7.046098 -2.949218,10.431641 H 23.099609 V 16.402344 c 1.933436,-0.644477 3.907822,-1.279806 5.779297,-1.230469 z m -17.978515,0.0059 c 1.935187,-0.106359 4.01639,0.557728 6.027343,1.208985 -0.01934,0.226902 -0.141697,0.589467 -0.0039,1.148437 L 16.900391,17.34375 V 31.400391 H 9.5429688 C 8.0128205,28.121111 6.6661419,24.805665 6.5996094,21.292969 v -0.0039 c -2.44e-5,-0.0013 2.4e-5,-0.0026 0,-0.0039 -0.010458,-1.127419 0.1063781,-2.384155 0.4765625,-3.425781 0.3686058,-1.037184 0.9466898,-1.832286 1.9140625,-2.277344 0.614483,-0.241994 1.2533396,-0.368198 1.9101566,-0.404297 z m 7.589843,0.986328 c 0.538005,0.0466 1.045187,0.09657 1.65625,0.115235 0.449165,0.01372 0.908865,0.0081 1.353516,-0.06055 v 15.181641 h -3 V 17.34375 a 0.80008001,0.80008001 0 0 0 -0.02344,-0.191406 c 0.0099,0.04019 0.03341,-0.321732 0.05078,-0.759766 0.0025,-0.06249 -0.03556,-0.158189 -0.03711,-0.228516 z M 10.287109,33 h 19.427735 c -0.351476,0.723564 -0.649847,1.460845 -1,2.181641 a 0.80008001,0.80008001 0 0 0 -0.01563,0.04492 c -0.213169,-0.0027 -0.624785,-0.130124 -1.205078,-0.0098 l 0.162109,-0.01758 H 11.310547 C 10.953778,34.470278 10.643121,33.730588 10.287109,33 Z"
       id="path23" />
  </g>
</svg>
