<?xml version="1.0" encoding="UTF-8" standalone="no"?>
<svg
   version="1.1"
   width="32"
   height="32"
   id="svg13"
   sodipodi:docname="knight.svg"
   inkscape:version="1.3 (0e150ed6c4, 2023-07-21)"
   xmlns:inkscape="http://www.inkscape.org/namespaces/inkscape"
   xmlns:sodipodi="http://sodipodi.sourceforge.net/DTD/sodipodi-0.dtd"
   xmlns="http://www.w3.org/2000/svg"
   xmlns:svg="http://www.w3.org/2000/svg">
  <sodipodi:namedview
     id="namedview13"
     pagecolor="#ffffff"
     bordercolor="#000000"
     borderopacity="0.25"
     inkscape:showpageshadow="2"
     inkscape:pageopacity="0.0"
     inkscape:pagecheckerboard="0"
     inkscape:deskcolor="#d1d1d1"
     inkscape:zoom="22.627417"
     inkscape:cx="19.357048"
     inkscape:cy="16.197165"
     inkscape:window-width="1920"
     inkscape:window-height="974"
     inkscape:window-x="-11"
     inkscape:window-y="-11"
     inkscape:window-maximized="1"
     inkscape:current-layer="g9" />
  <defs
     id="defs1">
    <style
       id="style1">&#10;      g {&#10;        stroke-width: 1.3;&#10;        stroke: black;&#10;        fill: none;&#10;      }&#10;    </style>
  </defs>
  <!-- cannon -->
  <!-- guard -->
  <!-- elephant -->
  <!-- knight -->
  <!-- pawn -->
  <!-- rook -->
  <!-- general -->
  <g
     transform="matrix(-0.38754532,1.0789004,-1.0647721,-0.3926877,58.196814,-12.093006)"
     id="g9"
     style="fill:#000000;stroke:none;stroke-width:1.13975146;stroke-dasharray:none;fill-opacity:1">
    <path
       id="path51"
       style="color:#000000;fill:#000000;stroke:none;stroke-width:1.13975146;stroke-linejoin:round;stroke-dasharray:none;fill-opacity:1"
       d="M 23.6445 29.074134 L 24.335319 29.848077 C 25.577869 31.24041 27.45113 32.140968 29.446538 32.476309 C 31.591042 35.622401 34.923324 36.917756 38.617082 36.906819 C 42.389664 36.895649 46.581379 35.596856 50.637294 33.663591 A 0.65006498 0.65006498 45 0 0 50.968719 32.85326 L 45.253408 17.14063 A 0.65006498 0.65006498 45 0 0 44.265129 16.832644 C 42.309324 18.222088 40.861556 19.331337 39.049223 21.302785 L 38.504727 16.95187 C 38.545131 15.985691 38.013687 15.018589 37.101239 14.463596 C 36.627931 14.175707 36.03708 14.047901 35.408507 14.135029 C 34.779933 14.222159 34.113648 14.523727 33.488845 15.09787 A 0.65006498 0.65006498 45 0 0 33.336362 15.305617 L 29.938941 22.782509 L 27.500388 22.782262 A 0.65006498 0.65006498 45 0 0 26.851365 23.46606 C 26.935047 25.149211 27.140946 26.651314 27.455744 27.991451 L 23.6445 29.074134 z M 26.218308 29.694676 L 32.230364 27.988891 L 31.877559 26.736064 L 28.715839 27.633701 C 28.490975 26.573929 28.351426 25.363378 28.254572 24.083436 L 30.35689 24.084998 A 0.65006498 0.65006498 45 0 0 30.949047 23.702548 L 34.444341 16.012105 C 35.346924 15.221373 35.944801 15.280453 36.426188 15.573256 C 36.923021 15.875452 37.24104 16.580928 37.209089 16.948356 A 0.65006498 0.65006498 45 0 0 37.212332 17.086584 L 37.925565 22.801345 A 0.65006498 0.65006498 45 0 0 39.071453 23.13451 C 41.115236 20.672016 42.446414 19.729302 44.327661 18.402068 L 49.528305 32.700666 C 45.759547 34.434347 41.925076 35.597926 38.613119 35.607733 C 35.596132 35.616663 33.047574 34.7582 31.191295 32.624521 C 31.957813 32.625305 32.721572 32.542004 33.453737 32.369697 L 33.153853 31.103111 C 30.822175 31.651848 28.028625 31.014999 26.218308 29.694676 z M 32.325953 24.426716 C 32.50297 24.903729 32.966782 25.250361 33.500106 25.250361 C 34.182761 25.250361 34.750061 24.681978 34.750061 23.999323 C 34.750061 23.316668 34.183282 22.750003 33.500627 22.750003 C 32.817972 22.750003 32.250083 23.316766 32.250083 23.999421 C 32.250083 24.148752 32.276388 24.293153 32.325953 24.426716 z " />
  </g>
</svg>
