<?xml version="1.0" encoding="UTF-8" standalone="no"?>
<svg
   version="1.1"
   width="124"
   height="139"
   id="svg25"
   sodipodi:docname="军_1_1.svg"
   xml:space="preserve"
   inkscape:version="1.3 (0e150ed6c4, 2023-07-21)"
   xmlns:inkscape="http://www.inkscape.org/namespaces/inkscape"
   xmlns:sodipodi="http://sodipodi.sourceforge.net/DTD/sodipodi-0.dtd"
   xmlns="http://www.w3.org/2000/svg"
   xmlns:svg="http://www.w3.org/2000/svg"><defs
     id="defs25" /><sodipodi:namedview
     id="namedview25"
     pagecolor="#ffffff"
     bordercolor="#000000"
     borderopacity="0.25"
     inkscape:showpageshadow="2"
     inkscape:pageopacity="0.0"
     inkscape:pagecheckerboard="0"
     inkscape:deskcolor="#d1d1d1"
     inkscape:zoom="1.8898573"
     inkscape:cx="70.375683"
     inkscape:cy="-19.313627"
     inkscape:window-width="1920"
     inkscape:window-height="974"
     inkscape:window-x="-11"
     inkscape:window-y="-11"
     inkscape:window-maximized="1"
     inkscape:current-layer="svg25" /><path
     d="m 98.04918,13.25823 c 4.26793,4.157408 6.44084,7.917172 6.5625,14 -1.42393,3.852979 -3.58782,5.864858 -7.0625,7.875 -2.32805,0.906222 -4.63988,1.656975 -7.04687,2.324219 -2.15505,0.586355 -2.15505,0.586355 -3.95313,2.675781 1.876076,7.084873 4.840378,12.078908 8,17 2.249519,1.223825 3.820989,0.594263 6.12057,0.853245 5.37638,1.013662 10.12849,6.104858 13.94193,9.896755 2.6682,4.475693 2.96495,8.163699 1.9375,13.25 -2.36053,3.655019 -4.71915,5.159779 -8.8125,6.312499 -5.18382,0.97361 -10.4447,0.74384 -15.69067,0.43872 -2.26628,-0.12303 -2.26628,-0.12303 -5.49683,0.24878 -2.64742,2.73319 -3.38556,4.81206 -3.58984,8.5625 -0.0894,1.31074 -0.0894,1.31074 -0.18067,2.64795 -0.0551,0.920551 -0.11021,1.841101 -0.16699,2.789551 -0.82049,10.38751 -1.81795,20.93161 -9.42187,28.78516 -2.85254,2.11223 -5.15956,2.34143 -8.64063,2.21484 -3.1451,-0.95084 -4.47315,-2.05836 -6.07666,-4.92432 -3.13348,-7.22984 -3.54524,-13.82319 -3.61084,-21.63818 -0.0419,-2.3347 -0.0872,-4.66935 -0.13672,-7.003901 -0.0168,-1.53057 -0.0168,-1.53057 -0.0339,-3.09205 0.12036,-2.30036 0.12036,-2.30036 -1.14185,-3.34155 -5.3407,0.25842 -9.6408,1.12114 -14.625,3.0625 -5.61618,2.14621 -9.70823,2.89754 -15.5,0.8125 -4.28591,-2.79516 -7.22425,-5.92276 -8.875,-10.875 -0.0686,-1.89471 -0.0848,-3.79168 -0.0625,-5.687499 0.009,-0.993867 0.018,-1.987734 0.0273,-3.011718 0.0174,-1.138887 0.15771,-1.325966 0.17551,-2.487861 0.53367,-0.207539 1.628578,-0.695698 2.178428,-0.909526 6.27937,-2.596486 11.613702,-5.318457 16.681262,-9.903395 0.8328,-2.111754 0.8328,-2.111754 1,-4 L 32.50234,59.652762 C 25.26911,57.760834 25.26911,57.760834 22.11171,55.00823 18.72996,48.785814 17.03111,43.729815 18.24062,36.672293 c 0.51436,-4.232089 0.11648,-8.47221 -0.14453,-12.71875 0.45312,-2.820313 0.45312,-2.820313 2.69921,-4.746094 3.00274,-1.171278 4.01642,-1.150571 7.06641,-0.386719 5.82037,0.82282 10.3022,-1.140364 15.58008,-3.28125 C 57.61686,9.8054426 84.38187,3.2653886 98.04921,13.25823 Z"
     fill="#2d2c2b"
     id="path2"
     sodipodi:nodetypes="cccccccccccccccccccccccccccccccccccccccc" /><path
     d="m 94.166825,16.297614 3.122476,4.104643 c 0,0 0.279675,2.288052 -0.543405,3.474428 -0.823079,1.186377 -8.422071,1.787376 -12.957981,2.139679 -2.30177,0.246986 -4.39781,0.653501 -6.62109,1.28125 l 0.192165,3.383685 -1.192165,2.616315 -2,2 c -1.24461,0.67668 -2.49597,1.340947 -3.75,2 -0.69609,0.37125 -1.39219,0.7425 -2.10937,1.125 -2.14063,0.875 -1.158463,0.92177 -5.158463,0.92177 l 1.650643,2.847761 c 11.93073,-0.280252 11.93073,-0.280252 16.36719,3.105469 3.24709,3.896506 3.29217,7.033177 3,12 l -5.628417,-0.10422 -5.558662,-1.223169 0.187079,7.327389 c 3.37528,-0.13985 6.75014,-0.287953 10.125,-0.4375 0.95133,-0.03932 1.90266,-0.07863 2.88281,-0.119141 3.91103,-0.176539 7.053612,-0.525892 10.915432,-1.200857 1.907517,-1.037589 3.076763,-0.242502 5.451763,1.069998 2.61503,1.738353 3.88185,2.828455 5.625,4.6875 1.36624,2.732473 1.12843,4.981989 1,8 -1,1 -1.60801,1.608008 -4.57285,1.74082 -10.375073,-0.0204 -20.074425,-1.06981 -30.427155,-1.74082 0.0116,1.11375 0.0232,2.2275 0.0352,3.375 0.0313,4.05157 0.0207,8.10179 -0.0142,12.15332 -0.0133,1.56702 -0.0214,3.1341 -0.0225,4.70117 -0.0551,11.311556 -2.72248,19.356416 -8.99854,28.770506 -1.9375,-0.6875 -1.9375,-0.6875 -4,-2 -1.1765,-4.04091 -1.12908,-8.02178 -1.13281,-12.20703 -9.6e-4,-0.68423 -0.002,-1.36845 -0.003,-2.07341 -6.8e-4,-1.44306 0.001,-2.88613 0.005,-4.32918 0.005,-2.18554 5e-5,-4.370866 -0.006,-6.556396 6.6e-4,-1.4095 0.002,-2.81901 0.004,-4.22851 0.001,-1.26691 0.002,-2.53382 0.003,-3.83911 0.13714,-3.99204 0.57786,-7.81281 1.12939,-11.76636 -9.75492,1.140627 -17.64289,3.892878 -26.125,8.8125 -4.0223,1.66138 -6.884312,2.964927 -11.875,1.1875 -3.0625,-1.625 -3.0625,-1.625 -5,-4 -0.12109,-3.148438 -0.401709,-3.475827 -0.280619,-6.327389 0,0 1.115857,-1.001792 1.68706,-1.080682 1.067678,-0.147457 12.812782,-5.852522 15.712792,-7.835907 4.172611,-2.853746 9.179219,-6.475403 9.179219,-6.475403 l -3.298452,-2.280619 c -0.0272,-1.583237 -0.514199,-3.213381 -0.530199,-4.79677 -0.0116,-0.881719 0.16388,-2.090827 0.15188,-2.999264 0.0977,-2.578125 0.378319,-2.203966 1.378279,-6.203966 l -8,-4 c -0.39187,1.134375 -0.78375,2.26875 -1.1875,3.4375 -1.8125,3.5625 -1.8125,3.5625 -4.5,4.5 -0.76312,0.02063 -1.52625,0.04125 -2.3125,0.0625 -3.52926,-4.300648 -4.42098,-6.846753 -3.94726,-12.375 0.0857,-0.7425 0.17144,-1.485 0.25976,-2.25 0.67603,-6.236364 0.67603,-6.236364 -0.3125,-12.375 1.644853,-1.112055 1.59793,-1.473704 2.48297,-1.44952 1.791117,0.04894 2.66165,1.682586 6.031835,3.028591 8.630753,-5.139986 34.404364,-10.708112 39.689303,-11.296561 5.284939,-0.588449 18.729939,-0.210463 18.729939,-0.210463 z"
     fill="#f0c600"
     id="path3"
     sodipodi:nodetypes="cczccccccccccccccccccccccccccccccccccccccssccccccccccccsczcc" /><path
     style="fill:#2d2c2b;fill-opacity:1;stroke-width:1.3;stroke-linecap:round;stroke-linejoin:round;paint-order:stroke fill markers"
     d="m 32.458277,73.101278 c 0,0 11.572176,-6.353555 15.485254,-8.271119 3.913078,-1.917564 12.670197,-4.777669 12.670197,-4.777669 l 0.140309,6.126851 c 0,0 -7.875472,1.316264 -12.755127,2.540075 -4.879654,1.223811 -15.540633,4.381862 -15.540633,4.381862 z"
     id="path25"
     sodipodi:nodetypes="czcczc" /><path
     d="m 56.115927,40.759072 c 0.947761,-0.240476 1.859041,0.04093 1.859041,0.04093 l 1.189519,1.623001 -0.121235,2.327863 c -1.819779,1.383434 -2.338631,1.759458 -4.541818,2.506618 -3.09847,1.545344 -2.401699,-4.690488 1.146794,-6.358109 z"
     fill="#000000"
     id="path22"
     style="fill:#2d2c2b;fill-opacity:1"
     sodipodi:nodetypes="ccccccc" /><path
     d="m 0,0 c 4.427349,1.3528011 6.5504006,3.0631439 9,7 1.043191,3.894582 1.422536,6.021495 -0.1875,9.75 C 5.1599365,21.284217 1.4988776,22.644018 -3.9765625,24.253906 -6.1881368,24.908927 -6.1881368,24.908927 -8,27 c 0.3348865,4.256779 2.130313,7.562504 4.1875,11.25 l 1.7304687,3.203125 c 1.90552497,2.838566 1.90552497,2.838566 5.3203126,3.40625 L 5.6692872,45.363784 6,46 -2.7628269,45.726029 C -4.3272297,43.966871 -6.1010901,40.553297 -7.625,37.8125 L -8.9765625,35.482422 C -12.144904,29.71505 -12.211047,29.152838 -11.336201,25.554712 -8.1531135,20.899779 -3.1622562,20.304637 2.0117188,18.84375 4.3534941,18.064777 4.3534941,18.064777 6,15 6.7056194,9.7078543 5.1542693,7.1747682 2,3 Z"
     fill="#5f5f5f"
     transform="translate(95,13)"
     id="path7"
     sodipodi:nodetypes="cccccccccccccccccc" /><path
     d="m 0,0 c 2,3 2,3 3.3125,6 2.2233104,3.9525518 4.4759495,5.285113 8.753906,6.667969 2.072455,0.671045 3.769617,1.039326 5.699745,2.051412 C 19.28104,17.172611 19.14073,17.54677 19,20 c -2.185818,1.251262 -1.858429,1.344801 -3.795087,2.345222 L 13.812921,22.748318 16,19 V 17 L 13.953125,16.519531 C 6.6381192,14.606213 6.6381192,14.606213 3.5,11.625 1.1210442,7.4618274 0,4.8573484 0,0 Z"
     fill="#5f5f5f"
     id="path13"
     transform="translate(19,43)"
     sodipodi:nodetypes="cccccccccccc" /><path
     d="M0 0 C4.07095113 1.50775968 7.01214349 4.17298491 9 8 C10.00696266 12.99485446 9.84792898 16.68707771 7.0625 21 C0.05857229 25.57399361 -7.41355474 25.22173084 -15.50317383 24.7512207 C-17.76945368 24.62818594 -17.76945368 24.62818594 -21 25 C-23.64742017 27.73319305 -24.38556223 29.8120612 -24.58984375 33.5625 C-24.67927246 34.87323486 -24.67927246 34.87323486 -24.77050781 36.21044922 C-24.82561523 37.13100098 -24.88072266 38.05155273 -24.9375 39 C-25.75798673 49.38750407 -26.7554508 59.93160828 -34.359375 67.78515625 C-37.21190569 69.89738731 -39.51893077 70.12658434 -43 70 C-46.14509547 69.04915718 -47.47315009 67.94163968 -49.07666016 65.07568359 C-52.21014129 57.84583647 -52.62190128 51.2524936 -52.6875 43.4375 C-52.72934968 41.10279487 -52.77471815 38.76814919 -52.82421875 36.43359375 C-52.84101685 34.90303345 -52.84101685 34.90303345 -52.8581543 33.34155273 C-52.73779166 31.04118953 -52.73779166 31.04118953 -54 30 C-59.34069649 30.2584208 -63.64079832 31.12113968 -68.625 33.0625 C-74.24118316 35.20871225 -78.33323259 35.96003627 -84.125 33.875 C-88.66056635 30.91702195 -91.52905483 27.95623379 -92.8125 22.625 C-92.874375 21.75875 -92.93625 20.8925 -93 20 C-92.1646875 21.0828125 -92.1646875 21.0828125 -91.3125 22.1875 C-86.69455963 28.24637632 -86.69455963 28.24637632 -80.07421875 31.2734375 C-73.28992332 31.56213092 -68.25441494 29.83200662 -62.078125 27.09375 C-58.79688174 25.927826 -56.45383751 25.64474814 -53 26 C-50.27533332 28.72466668 -50.73340941 30.26455962 -50.69140625 34.07421875 C-50.66626953 35.29947266 -50.64113281 36.52472656 -50.61523438 37.78710938 C-50.58034282 40.36779188 -50.54903709 42.94852559 -50.52148438 45.52929688 C-50.39320699 56.11077976 -50.39320699 56.11077976 -45.1875 65 C-42.01029411 66.45243698 -40.28700877 66.09566959 -37 65 C-29.05598685 57.50993046 -29.14533839 46.07577231 -28.27148438 35.93554688 C-27.22766955 25.62710341 -27.22766955 25.62710341 -23 22 C-20.11441069 21.0381369 -18.48631614 20.91611952 -15.5078125 21.0078125 C-14.63769531 21.02457031 -13.76757812 21.04132813 -12.87109375 21.05859375 C-11.04796617 21.10268076 -9.22501223 21.15469831 -7.40234375 21.21484375 C-2.45304243 21.29526076 1.02212054 21.33368845 5 18 C6.75949146 14.48101708 5.91665186 10.72731286 5 7 C3.54969141 4.36742665 1.93325482 2.32981991 0 0 Z "
     fill="#5E5E5E"
     id="path5"
     transform="translate(108,63)" /><path
     style="fill:#2d2c2b;fill-opacity:1;stroke-width:1.3;stroke-linecap:round;stroke-linejoin:round;paint-order:stroke fill markers"
     d="m 50.367554,22.75304 6.746542,-1.81892 c 0,0 3.968556,-1.124423 4.927626,-1.455136 0.95907,-0.330713 2.811053,-0.562212 4.266193,-0.76064 1.45514,-0.198428 1.88619,-0.388873 4.332342,-0.462998 2.182705,-0.06614 3.737053,0.49607 3.737053,0.49607 l 1.752774,0.826781 c 0,0 0.89293,0.363784 1.02521,0.859854 0.13229,0.496069 0.59528,1.422065 -0.26457,1.719706 -0.85985,0.297642 -2.54649,1.190566 -3.93548,1.620493 -1.389,0.429927 -2.979741,0.352033 -2.979741,0.352033 0,0 -0.833432,0.0014 -2.413228,-0.04637 l -3.536281,0.289617 c -0.76064,0.661426 -6.64732,2.744916 -6.64732,2.744916 0,0 -0.89293,0.429927 -1.48821,-0.09921 -0.59528,-0.52914 -5.52291,-4.266195 -5.52291,-4.266195 z"
     id="path28"
     sodipodi:nodetypes="ccsssccsssccccscc" /><path
     style="fill:#2d2c2b;fill-opacity:1;stroke-width:1.3;stroke-linecap:round;stroke-linejoin:round;paint-order:stroke fill markers"
     d="m 34.288997,39.383971 c 0,0 -1.0757,-2.899731 -1.12247,-5.752692 -0.0468,-2.852961 -0.42093,-3.694819 -0.28062,-4.068977 0.14031,-0.374159 2.89973,-1.543405 5.19145,-2.338493 2.29172,-0.795087 12.16016,-4.443135 12.16016,-4.443135 0,0 -0.18708,2.759421 -0.14031,4.022207 0.0468,1.262785 0.28062,3.741587 0.28062,3.741587 0,0 -4.06898,2.198184 -5.79946,3.040041 -1.73049,0.841857 -4.77053,1.309556 -6.64132,2.432032 -1.87079,1.122477 -2.75942,1.590175 -3.08681,2.338493 -0.32739,0.748317 -0.56124,1.028937 -0.56124,1.028937 z"
     id="path29" /></svg>
