<?xml version="1.0" encoding="UTF-8" standalone="no"?>
<svg
   version="1.1"
   width="157"
   height="147"
   id="svg18"
   sodipodi:docname="åƒ_1_1.svg"
   xml:space="preserve"
   inkscape:version="1.3 (0e150ed6c4, 2023-07-21)"
   xmlns:inkscape="http://www.inkscape.org/namespaces/inkscape"
   xmlns:sodipodi="http://sodipodi.sourceforge.net/DTD/sodipodi-0.dtd"
   xmlns="http://www.w3.org/2000/svg"
   xmlns:svg="http://www.w3.org/2000/svg"><defs
     id="defs18" /><sodipodi:namedview
     id="namedview18"
     pagecolor="#ffffff"
     bordercolor="#000000"
     borderopacity="0.25"
     inkscape:showpageshadow="2"
     inkscape:pageopacity="0.0"
     inkscape:pagecheckerboard="0"
     inkscape:deskcolor="#d1d1d1"
     inkscape:zoom="2.5272109"
     inkscape:cx="-2.769852"
     inkscape:cy="89.624495"
     inkscape:window-width="1920"
     inkscape:window-height="974"
     inkscape:window-x="-11"
     inkscape:window-y="-11"
     inkscape:window-maximized="1"
     inkscape:current-layer="svg18" /><path
     d="m 0,0 c 4.4836961,2.9891307 8.3134058,6.2622992 11.673089,10.480364 1.447451,1.861788 1.002296,1.515557 2.690508,3.905035 l 1.955922,2.747308 3.029457,1.216164 c 2.545708,2.265501 4.212331,3.898023 4.634911,7.384527 0.109424,3.002724 0.06033,5.972511 -0.09985,8.972657 -0.228382,4.326115 0.09024,7.202409 1.869873,11.129882 0.409289,4.064167 0.01024,7.606761 -2.421875,10.960938 -2.756255,2.792843 -5.779029,5.203389 -8.828125,7.664062 -3.887082,3.357026 -5.6139315,6.44509 -6.7499998,11.375 10.4986008,-1.040541 20.3074848,-2.760893 28.9374998,-9.1875 3.741988,-5.102711 6.609339,-10.685657 8.25,-16.8125 0.8125,-3 0.8125,-3 2.8125,-5 3.424043,0.10771 4.732558,0.739672 7.203125,3.144532 l 2.046875,2.667968 2.078125,2.644532 c 3.646483,5.546403 2.890931,11.805772 2.921875,18.230468 l 0.0625,3.185547 c 0.04095,8.226119 -0.651367,16.284707 -6.6875,22.439453 -7.690509,7.083733 -18.547411,8.324343 -28.625,8.687503 l -2.414062,0.15625 C 13.507358,106.41561 1.4116198,104.2582 -7.140625,97.292969 -12.948213,91.55874 -14.49713,84.570483 -16.246094,76.835937 c -2.465677,-0.903129 -3.616122,-1.149112 -6.103027,-0.183105 l -2.23291,1.315918 -2.476563,1.445312 -2.5625,1.546875 -2.539062,1.476563 c -3.701199,2.18813 -7.191674,4.369696 -10.433594,7.203125 -3.823546,3.164702 -5.750513,3.195312 -10.652344,3.195312 -4.159016,-1.701415 -6.581706,-4.247475 -9,-8 -2.253312,-6.822312 -2.128402,-12.998701 -1.75,-20.125 l 0.158448,-3.352783 c 1.370685,-26.301349 1.370685,-26.301349 5.591552,-30.522217 4.183166,0.360618 7.681237,0.897348 11.6875,2.1875 3.187497,1.135385 3.187497,1.135385 5.5625,-0.160156 3.572973,-1.334789 6.282669,-1.005599 10.0625,-0.652344 l 3.800782,0.335938 2.886718,0.289062 c 4.512607,-8.189546 9.001781,-18.214839 9.375,-27.6874995 0.625,-3.3125 0.625,-3.3125 2.054688,-4.7109375 C -8.1656067,-2.5366164 -4.9852784,-2.5836747 0,0 Z"
     fill="#2e2e2c"
     id="path2"
     transform="translate(84.246094,21.164062)"
     sodipodi:nodetypes="ccccccccccccccccccccccccccccccccccccccccccc" /><path
     d="m 28.027302,55.244618 c 0.687032,-0.473326 1.293878,-0.6055 1.962771,-0.34191 3.25741,1.283643 4.632943,2.489618 6.197837,3.600998 l 1.678784,0.95076 c 0,0 2.343605,0.613607 4.033598,0.04924 0.721003,-0.240776 0.15422,-1.024476 3.60239,-2.349747 3.44817,-1.32527 10.190927,-0.664877 14.685228,4 1.1875,2.375 1.1875,2.724747 1,5.349747 -1.75,3.062501 -1.75,3.062501 -4,6.000001 l -1.75,2.375 -1.25,1.625 c 0,0 6.632884,-5.620453 6.454671,-3.664519 -0.178213,1.955934 -3.28865,12.376017 -6.56596,17.491403 -1.536103,0.827759 -2.522735,1.386964 -3.910251,2.063426 l -1.97846,1.10969 -5.80056,2.05106 -1.37256,0.738731 -2.07688,0.77271 c -3.425645,2.466316 -4.79376,4.525002 -6.75,8.437492 -3.054,-0.21814 -4.05876,-1.05875 -6.250003,-3.25 -3.641003,-9.442592 -0.726805,-32.761699 1.081691,-45.319037 0.08992,-0.624357 0.320672,-1.216719 1.007704,-1.690045 z"
     fill="#eec400"
     id="path4"
     sodipodi:nodetypes="zsccszccccczccccccccsz" /><path
     d="M 0,0 C 6.1288122,2.6871466 9.6629332,9.2339956 13.643001,14.296769 9.1738918,12.940626 6.7918384,10.868993 4.25,7 L 2.453125,4.3125 C 1,2 1,2 0,0 Z"
     fill="#606060"
     id="path14"
     sodipodi:nodetypes="ccccc"
     transform="translate(87,24)" /><path
     d="M 0.54407806,0.27203903 C 4.4022114,1.7877343 5.5914998,2.6179677 7.8021534,6.1096904 8.2318183,8.9645669 8.288883,12.624599 8.125,15.5 7.8863492,20.617734 7.8531098,24.242027 10,29 10.409289,33.064167 10.010237,36.606761 7.578125,39.960937 4.8218697,42.75378 1.7990956,45.164326 -1.25,47.625 -5.0304767,50.889957 -6.8909618,54.302142 -8,59 c 0,0 -1.0730754,0.07037 -3,0 0.298849,-1.949912 4.8984058,-11.023459 9.3632813,-15.222656 1.57922248,-1.387802 3.1721496,-2.760236 4.78125,-4.113282 C 5.8171092,37.267182 5.980727,36.340489 6.1875,32.6875 6.2057563,29.123179 6.2057563,29.123179 5,26.5 3.2021025,22.005256 3.8873745,17.596009 4.6875,12.9375 5.1333594,7.3196721 3.5708685,4.8122247 0.54407806,0.27203903 Z"
     fill="#5f5f5f"
     id="path8"
     sodipodi:nodetypes="cccccccccccccc"
     transform="translate(100,38)" /><path
     d="M 0.5935397,-0.24730821 C 5.3746286,4.0169062 7.6029539,8.2839343 8.2854004,14.671143 8.4033334,17.744789 8.4091314,20.799381 8.375,23.875 l 0.035156,3.144531 C 8.3793741,35.156279 7.5849254,43.235458 1.625,49.3125 -6.0655097,56.396236 -16.922411,57.636844 -27,58 l -2.414062,0.15625 C -40.246548,58.57967 -52.342286,56.422262 -60.894531,49.457031 -66.702119,43.722802 -68.251037,36.734546 -70,29 c -2.465677,-0.90313 -3.616123,-1.149112 -6.103027,-0.183105 l -2.23291,1.315917 -2.476563,1.445313 -2.5625,1.546875 -2.539062,1.476562 c -3.701199,2.18813 -7.191675,4.369697 -10.433594,7.203125 C -100.1712,44.96939 -102.09817,45 -107,45 c -4.1165,-1.684023 -6.62631,-4.256867 -9,-8 0.39844,-2.160156 0.39844,-2.160156 1,-4 l 1.02344,1.496094 1.35156,1.941406 1.33594,1.933594 c 1.92009,2.426305 3.21884,2.617203 6.28906,3.128906 4.7029,-0.06788 7.611766,-2.751587 11.242188,-5.488281 C -89.083917,32.602291 -84.01702,29.866869 -79,27 l 2.6875,-1.703125 C -74,24 -74,24 -71.3125,24 c 2.3125,1 2.3125,1 3.5,3 0.8125,3 0.8125,3 1.160156,5.050781 1.254314,7.05095 3.872146,12.196173 9.765625,16.488281 8.220717,4.855761 16.197095,5.828636 25.574219,5.773438 l 2.933594,-0.0127 C -18.84218,54.149996 -8.4434085,53.679982 -1,47 6.4300393,38.331621 5.7591664,25.809623 5,15 4.1434064,11.230988 3.2680049,8.2197155 1.504963,4.7864233 0.69246299,3.0989233 0.5935397,2.7526918 0.5935397,-0.24730821 Z"
     fill="#5f5f5f"
     id="path7"
     transform="translate(138,69)"
     sodipodi:nodetypes="ccccccccccccccccccccccccccccccccccc" /><path
     d="m 93.631307,60.100267 2.987044,0.628774 c 2.95304,0.656231 4.075449,1.142252 5.777339,3.617188 0.009,2.675135 0.12029,1.945575 -0.56721,4.258075 0,0 -0.57948,1.058081 -1.01077,1.619869 -0.43128,0.561788 -1.656962,1.109691 -1.656962,1.109691 l -1.479897,0.598303 -2.22266,0.789062 -1.893339,0.798169 c -1.144171,0.815565 -1.342017,0.889757 -3.070238,2.319849 l -1.505383,1.34783 -1.231578,1.727961 c -2.114933,2.078422 -2.368932,3.995383 -3.924462,6.306191 -2.35838,3.705034 -3.35317,6.655781 -3.4375,11.125 0.32312,2.945898 1.850397,4.838171 2.247308,4.802171 0.140498,-0.0127 4.220119,1.01711 9.309827,0.64373 3.486157,-0.25575 7.535958,-1.34873 11.250534,-2.489359 6.42947,-1.974282 11.92345,-4.054619 16.80171,-6.687011 2.39062,-1.269531 2.46057,-1.182094 5.0059,-2.916562 l 1.53157,-1.539639 1.18863,-1.670209 0.97702,-1.518121 c 0.57268,-3.019552 1.24352,-5.916369 2.0625,-8.875 l 0.71094,-2.630587 c 0.89657,-2.39921 0.74519,-2.555567 3.308,-5.167623 3.08046,7.33523 2.73231,17.056026 2.85606,24.92321 l 0.0647,2.160645 c 0.0306,4.748016 -0.89234,7.897366 -3.3147,11.964366 l -0.77588,1.08422 -0.97185,1.2529 c -2.20947,2.55565 -3.26778,2.89278 -6.07258,4.0496 -7.2337,2.03529 -14.66112,1.82971 -22.11719,1.86328 l -3.45898,0.0625 c -9.366959,0.0433 -16.006099,-1.48192 -23.603519,-7.3125 -4.0998,-4.29549 -3.53971,-8.716946 -3.42187,-14.378917 0.85525,-7.340884 4.52787,-13.183309 9.42187,-18.621094 -1.15224,0.929614 -2.29659,1.869012 -3.4375,2.8125 l -1.93359,1.582031 c -1.88374,1.613813 -1.918715,1.718737 -4.447592,5.130089 -1.748797,1.556403 -1.624901,1.582238 -5.027154,1.034975 -2.51666,-1.423452 -5.105374,-3.413245 -7.154164,-5.559595 0,0 -0.59354,-1.381783 -0.59354,-2.04845 0,-0.666666 0.59354,-1.95155 0.59354,-1.95155 2.01953,-1.710937 2.01953,-1.710937 4.8125,-3.375 l 3.02344,-1.820312 c 3.88375,-2.215177 7.79406,-4.369163 11.75391,-6.445313 2.43393,-1.267234 2.43393,-1.267234 4.34765,-3.039063 3.879034,-2.798576 6.088244,-2.260786 8.298116,-1.566274 z"
     fill="#f5ca00"
     id="path3"
     sodipodi:nodetypes="cccczcccccccccssscccccccccccccccccccccccczcccccc" /><path
     d="m 78.875,23.250405 c 3.912914,1.173874 5.564425,2.791651 8.125,5.9375 1,1.9375 1,1.9375 1,4 -1.4375,3.25 -1.4375,3.25 -3,6 0.870117,-0.05221 0.870117,-0.05221 1.757813,-0.105469 5.164708,-0.178975 8.85271,0.03284 13.242187,3.105469 1.125,1.875 1.125,1.875 1,4 -1.5,2.6875 -1.5,2.6875 -4,5 -2.323757,0.3946 -5.079089,1.141997 -7.419696,1.419696 C 82.646768,55.490414 79.155059,60.759365 73.802153,66.33629 70.968788,66.02998 69.438735,65.563963 67.25,63.687905 c -1.847008,-3.694016 -2.545047,-7.375754 -2.25,-11.5 0.687789,-1.722516 1.382825,-3.443758 2.158203,-5.128662 1.390359,-3.090805 2.449601,-6.286606 3.529297,-9.496338 l 0.681641,-1.945313 c 0.962946,-2.856641 1.633797,-5.235797 1.58789,-8.265625 l 0.04297,-2.164062 c 3,-2 3,-2 5.874999,-1.9375 z"
     fill="#edc300"
     id="path5"
     sodipodi:nodetypes="cccccccccccccccccc" /><path
     d="M 0,0 3.992888,-0.55255974 7.6430013,-1.1870795 C 4.0717724,5.389766 2.5384615,6.9230769 0,9 l -1.9505384,1.088156 0.432149,-6.0382648 z"
     fill="#2b2b2b"
     transform="translate(37,68)"
     id="path11"
     sodipodi:nodetypes="ccccccc" /></svg>
