<?xml version="1.0" encoding="UTF-8" standalone="no"?>
<svg
   version="1.1"
   width="142"
   height="135"
   id="svg20"
   sodipodi:docname="将_1_1.svg"
   xml:space="preserve"
   inkscape:version="1.3 (0e150ed6c4, 2023-07-21)"
   xmlns:inkscape="http://www.inkscape.org/namespaces/inkscape"
   xmlns:sodipodi="http://sodipodi.sourceforge.net/DTD/sodipodi-0.dtd"
   xmlns="http://www.w3.org/2000/svg"
   xmlns:svg="http://www.w3.org/2000/svg"><defs
     id="defs20" /><sodipodi:namedview
     id="namedview20"
     pagecolor="#ffffff"
     bordercolor="#000000"
     borderopacity="0.25"
     inkscape:showpageshadow="2"
     inkscape:pageopacity="0.0"
     inkscape:pagecheckerboard="0"
     inkscape:deskcolor="#d1d1d1"
     showguides="false"
     inkscape:zoom="3.8917062"
     inkscape:cx="7.9656578"
     inkscape:cy="86.465931"
     inkscape:window-width="1920"
     inkscape:window-height="974"
     inkscape:window-x="-11"
     inkscape:window-y="-11"
     inkscape:window-maximized="1"
     inkscape:current-layer="svg20" /><path
     d="m 0,0 c 5.3240653,0.08674648 8.8852117,3.3783028 13,6.4375 1.685336,1.1697906 3.372863,2.3364308 5.0625,3.5 1.64594,1.166515 3.291777,2.333177 4.9375,3.5 l 2.304687,1.566406 C 29.531059,17.968559 32.459652,20.303008 34,25.4375 c -0.141082,2.868677 -0.411177,5.230534 -1,8 l -0.523438,2.511719 C 32.006723,38.117971 31.514641,40.279007 31,42.4375 l 2.5,0.625 c 5.94564,2.335787 10.950738,6.014245 14.5,11.375 1.004612,3.372628 1.241957,5.274128 0.125,8.625 -2.657464,2.970107 -5.29971,4.043428 -8.96875,5.480469 -2.387578,0.90898 -2.387578,0.90898 -5.15625,2.894531 -0.405453,3.082128 -0.405453,3.082128 -0.25,6.625 l 0.07813,3.851562 c 0.124643,2.555172 0.297242,5.000177 0.671875,7.523438 1.222969,8.326983 2.125669,17.66273 -2.5,25 -2.750861,3.25102 -5.163905,4.33932 -9.3125,4.75 -9.985014,-0.37538 -20.5430268,-7.10398 -27.6875,-13.75 -3.8338077,-5.18308 -5.747,-10.735002 -7,-17 h -2 l 0.175781,3.21875 c 0.549788,14.18384 0.549788,14.18384 -3.558593,19.41797 -2.962319,2.49722 -5.76051,3.37806 -9.617188,3.36328 -4.686453,-1.2553 -7.085569,-3.01208 -10.5,-6.375 -4.627753,-4.31924 -9.957192,-5.65553 -15.914062,-7.28906 C -58.461959,98.892849 -61.767736,96.329905 -64.75,91.75 -66.372837,87.449483 -67.722326,83.046885 -68,78.4375 c 2.484674,-3.727011 3.673842,-3.684411 7.9375,-4.625 3.087043,-0.697679 6.058874,-1.373791 9.0625,-2.375 L -52.460937,69.792969 -54.375,67.625 -56.273437,65.480469 c -3.199295,-3.785591 -3.868023,-5.77869 -3.730469,-10.703125 0.0069,-4.137999 -1.127083,-9.484446 -0.817626,-11.583223 0.309457,-2.098778 2.593763,-3.568034 3.548315,-3.802045 0.954552,-0.234011 3.88428,1.017801 3.88428,1.017801 0.917213,0.235677 3.931251,0.394283 6.138937,0.09012 L -43.703125,40.47266 -41,40.4375 c 1.597167,-4.302573 2.366053,-8.175963 2.6875,-12.75 l 0.261719,-2.137091 c 0.268302,-2.779083 -0.841861,-3.478963 -0.242588,-6.369866 0.599273,-2.890903 3.056705,-3.662577 6.418369,-4.805543 4.736426,0.07639 7.417706,1.572361 11.445313,3.933594 2.691476,1.250541 4.498094,1.342777 7.429687,1.128906 l 0.777344,-2.078125 C -10.821686,14.011368 -9.1664025,10.878209 -7.4375,7.6875 L -5.5585937,4.203125 C -3.4755218,0.50684693 -3.4755218,0.50684693 0,0 Z"
     fill="#2e2d2c"
     transform="translate(83,6.5625)"
     id="path2"
     sodipodi:nodetypes="ccccccccccccccccccccccccccccccccccczzcccccczccccccc" /><path
     d="M 0,0 C 3.7652358,0.25672062 5.5583951,0.59325866 8.375,3.1875 10.2425,6.4197107 10.341559,8.3282399 10,12 l 1.6875,-1.0625 C 14.778174,9.6845239 15.845977,9.8530827 19,11 c 3.933954,2.354412 7.354357,4.421762 9.125,8.75 C 28,22 28,22 26,24 l -2,0.25 c -2.343731,0.615339 -2.343731,0.615339 -3.375,3.625 L 20,31 l 2.238476,3.193052 c 0.306359,2.562584 0.453987,4.050219 -1,5 L 27,42 27.499664,43.863728 30.0625,43.25 C 33.015708,42.148871 36.886633,43.873841 41,47 c 1.612011,1.304619 1.612011,2.364565 1,5 -1.619951,2.78533 -5.239716,2.387549 -8.597173,2.347284 l -3.072093,-0.142149 c -1.744828,-0.01179 -3.264775,0.130871 -5.009538,0.111768 -0.17872,8.469336 -0.643883,15.198738 1.163179,23.511222 0.741519,4.561464 0.969456,9.122361 1.203125,13.734375 l 0.14624,2.710205 0.115479,2.543701 0.104248,2.295166 C 28,101 28,101 27,103 l -2,2 c -2.61739,0.99134 -3.734787,1.09832 -6.402344,0.10938 L 16.0625,103.75 13.382813,102.32813 C 10.886705,100.93685 8.4337762,99.497708 6,98 L 3.7382813,96.8125 1.25,95.5 -1.109375,94.28125 C -3,93 -3,93 -4,90 l 23,2 V 57 c -7.619201,1.60801 -7.619201,1.60801 -14.375,4.375 -3.74268636,1.787473 -7.4558304,3.329212 -11.375,4.6875 -3.285361,1.148236 -6.213487,2.380264 -9.1875,4.1875 C -19,72 -19,72 -23,72 c -0.20988,6.296387 0.383675,12.014293 1.5625,18.203125 0.420967,2.691183 0.67701,5.082433 0.4375,7.796875 -2.536623,2.17425 -4.03844,3.05463 -7.40625,2.86328 -3.407645,-1.13417 -4.686336,-2.753939 -6.90625,-5.55078 l -2.113281,-2.574219 C -39.253672,89.558749 -39.311704,87.608375 -39,84 l -1.75,1 -6.25,3 c -6.175244,-0.370515 -8.714147,-1.813818 -13,-6 -2,-3 -2,-3 -2,-7 l 2.203125,-0.445313 C -48.151016,71.958756 -48.151016,71.958756 -38,66 c 1.826184,-3.939125 2.58192,-7.693775 3,-12 -7.201374,-1.277663 -12.161756,-0.526867 -19,2 L -53.710937,54.101562 -53.375,51.625 -53.023437,49.164062 -53,47 -55,45 c 0.375,-2.125 0.375,-2.125 1,-4 2.019594,-0.109331 4.040956,-0.186186 6.0625,-0.25 l 3.410156,-0.140625 C -40.06981,41.103011 -37.738738,42.580536 -34,45 c 0.364119,-4.270046 0.714593,-8.541105 1.0625,-12.8125 l 0.314453,-3.681641 0.283203,-3.52539 0.269776,-3.253174 C -31.842675,18.904493 -31.842675,18.904493 -33,16 c 2.705861,-0.845582 4.236612,-1.296077 7,-1 4.450975,2.737187 9.329955,6.989864 11,12 -0.467716,3.170075 -1.133358,5.931506 -2,9 -0.535451,2.112551 -1.05676,4.228354 -1.577881,6.344482 C -19.372586,45.566211 -20.18684,48.782886 -21,52 c -0.486715,3.822764 -0.47001,6.016659 0,9 2.916301,0.0575 3.574948,-0.260468 6.658647,-1.317968 0.225512,-0.302499 0.608946,-0.40075 1.566873,-1.25145 -0.930384,-0.01662 -2.209885,-0.836764 -0.461297,-3.589144 C -11.487189,52.089059 -9.3800979,49.013547 -7.3125,46.1875 -4.2150141,42.450386 -4.2150141,42.450386 -3,38 c -2.944295,-2.044649 -5.5276149,-3.220939 -9,-4 -2.515876,-6.709002 -2.515876,-6.709002 -1.230469,-9.925781 0.855273,-1.311419 1.744935,-2.600787 2.660156,-3.871094 C -6.1691039,14.028295 -2.8106115,7.0265289 0,0 Z"
     fill="#ecc200"
     transform="translate(81,10)"
     id="path3"
     sodipodi:nodetypes="ccccccccccccccccccccccccccccccccccccccccccccccccccccccccccccccccccccccccccccczcccccc" /><path
     d="m 87.572935,79.378478 c 2.761128,1.718036 4.800163,3.19588 6.8125,5.75 v 4 c -4.213165,2.106583 -8.117912,1.903931 -12.593695,1.08337 -3.736759,-1.509075 -6.323617,-3.667761 -8.406305,-7.08337 v -3 c 4.639193,-2.969083 9.171952,-2.716881 14.1875,-0.75 z"
     fill="#e2ba00"
     id="path7"
     sodipodi:nodetypes="ccccccc" /><path
     d="m 24.477197,68.084902 c 4.472386,1.418073 9.771409,4.269348 14.059946,6.156305 -1.803565,1.568346 -2.980208,2.514946 -4.674511,3.486087 -1.903641,-0.321196 -1.646684,-0.385435 -3.373247,-2.100279 l -2.637188,-2.479613 -1.914063,-2.214844 c -1.460937,-1.847656 -1.460937,-1.847656 -1.460937,-2.847656 z"
     fill="#5e5e5e"
     id="path16"
     sodipodi:nodetypes="ccccccc" /><path
     d="m 17.31587,90.775554 1.125,1.5625 1.875,2.4375 1.289063,1.71875 c 4.0125,5.063896 7.746216,7.309246 14.132812,8.874996 5.808818,1.47861 9.082218,3.19872 13.007813,7.78516 2.602595,2.68675 4.888207,3.53583 8.570312,3.99609 3.691886,-0.46149 4.724023,-1.50896 7,-4.375 1.725541,-3.45108 0.993365,-7.60765 0.873047,-11.41406 -0.51598,-3.689621 -0.07811,-6.530456 2.126953,-9.585936 2.375,-1 2.375,-1 5,-1 2.3125,1.9375 2.3125,1.9375 4,4 h -3 l -0.09152,3.272544 -1.690117,-1.45474 -0.218362,-1.817804 h -2 c 0.05801,1.062187 0.116016,2.124375 0.175782,3.21875 0.549787,14.183836 0.549787,14.183836 -3.558594,19.417966 -2.962319,2.49722 -5.76051,3.37806 -9.617188,3.36328 -4.686452,-1.2553 -7.085568,-3.01208 -10.5,-6.375 -4.627753,-4.31924 -9.957192,-5.65553 -15.914062,-7.28906 -5.233055,-1.94957 -8.500465,-4.563 -11.460938,-9.398436 -1.125,-2.9375 -1.125,-2.9375 -1.125001,-6.9375 z"
     fill="#5f5f5f"
     id="path6"
     sodipodi:nodetypes="cccccccccccccccccccccccc" /><path
     d="m 110.08855,23.808525 c 2.97344,1.025324 3.99861,1.997979 5.8125,4.625 1.839,4.038433 1.52763,7.435466 0.1875,11.375 -0.17273,0.828867 -0.34547,1.657734 -0.52343,2.511718 -0.46984,2.168752 -1.53459,6.183312 -1.11318,6.533706 0,0 2.6913,1.921763 2.56847,2.135599 -0.12282,0.213836 -2.90618,-0.586055 -6.34068,-2.317295 -0.18668,-2.026495 -0.63655,-4.614454 1.40882,-8.301228 1.31969,-3.381707 1.32185,-5.957818 1,-9.5625 -1.40759,-2.76442 -1.40759,-2.76442 -3,-5 z"
     fill="#5f5f5f"
     id="path10"
     sodipodi:nodetypes="ccccszccccc" /><path
     d="m 123.19718,54.265418 c 3.82017,1.500781 6.2988,3.841665 8,7 0.99786,3.388482 1.25628,5.231178 0.125,8.625 -2.65746,2.970107 -5.29971,4.043428 -8.96875,5.480469 -2.38758,0.90898 -2.38758,0.90898 -5.15625,2.894531 -0.40545,3.082128 -0.40545,3.082128 -0.25,6.625 0.0258,1.271016 0.0516,2.542032 0.0781,3.851563 0.12464,2.555171 0.29724,5.000176 0.67187,7.523437 1.22297,8.326982 2.12567,17.662722 -2.5,24.999992 -2.75086,3.25102 -5.1639,4.33932 -9.3125,4.75 -10.014819,-0.37649 -20.500639,-7.12083 -27.687499,-13.75 -2.190565,-2.93112 -4.16022,-5.77737 -3.681359,-9.43153 0.53367,0.65227 1.748709,1.73606 2.298549,2.4081 5.20987,6.11123 10.17334,10.47128 17.38281,14.02343 0.70254,0.35063 1.40508,0.70125 2.12891,1.0625 4.975879,2.18121 8.603009,2.34232 13.871089,0.9375 3.12851,-3.04828 4.82569,-5.74607 5.16797,-10.17187 0.0523,-6.90849 -0.74252,-13.525344 -1.71484,-20.359372 -1.4281,-10.932371 -1.4281,-10.932371 1.54687,-15.46875 1.93259,-1.306696 2.25056,-1.806359 4.60212,-2.681359 3.68752,-1.491578 5.71848,-2.317714 8.39788,-5.318641 h 0.0241 c 0.93696,-1.582694 0.39453,-3.20928 -0.39906,-4.8125 -0.44086,-0.89332 -0.88172,-1.78664 -1.33593,-2.707031 -1.30774,-2.626033 -1.30774,-2.626033 -3.28907,-5.480469 z"
     fill="#5f5f5f"
     id="path5"
     sodipodi:nodetypes="sccccccccccccccccccccccccs" /><path
     d="M 0.72678331,-0.59051144 2.044751,0.45558546 c -3.25,6.50000004 -3.3408479,7.86271874 -7.0908479,10.36271854 0,0 -3.3832827,1.253498 -4.4858349,1.09173 -1.1025522,-0.161769 -1.7853632,-1.046306 -1.7853632,-1.046306 2.2348065,-5.5687543 7.510396,-8.3860963 12.04407831,-11.45423944 z"
     fill="#2b2b2b"
     transform="translate(91,28)"
     id="path11"
     sodipodi:nodetypes="ccczcc" /><path
     d="m 0.49983067,-0.73808196 c 0,0 -0.64082257,0.54788826 -1.01777125,0.94087979 C -0.77017194,0.46576411 -0.84881757,0.59776439 -1.1151459,1.1722008 0.83254854,2.6510773 1.638099,6.5139134 1.638099,6.5139134 -2.0493415,6.6989752 -5.8048319,8.6549544 -8.7597656,9.8671875 -11.677565,11.13711 -14.906843,12.610272 -18.54174,13.445381 l 2.376849,-5.2248367 4.421848,-4.8029897 c 1.273886,-1.119816 1.722986,-1.4505302 2.9791296,-2.1267391 l 3.0087235,-1.44923257 c 2.5020312,-0.90858433 5.45419115,-1.16538513 6.25502057,-0.57966489 z"
     fill="#323027"
     id="path9"
     sodipodi:nodetypes="csccccccccc"
     transform="translate(100,51)" /></svg>
