<?xml version="1.0" encoding="UTF-8" standalone="no"?>
<svg
   version="1.1"
   width="100"
   height="100"
   id="svg17"
   sodipodi:docname="æ€.svg"
   xml:space="preserve"
   inkscape:version="1.3 (0e150ed6c4, 2023-07-21)"
   xmlns:inkscape="http://www.inkscape.org/namespaces/inkscape"
   xmlns:sodipodi="http://sodipodi.sourceforge.net/DTD/sodipodi-0.dtd"
   xmlns="http://www.w3.org/2000/svg"
   xmlns:svg="http://www.w3.org/2000/svg"><defs
     id="defs17" /><sodipodi:namedview
     id="namedview17"
     pagecolor="#ffffff"
     bordercolor="#000000"
     borderopacity="0.25"
     inkscape:showpageshadow="2"
     inkscape:pageopacity="0.0"
     inkscape:pagecheckerboard="0"
     inkscape:deskcolor="#d1d1d1"
     inkscape:zoom="3.8917063"
     inkscape:cx="47.023076"
     inkscape:cy="66.423307"
     inkscape:window-width="1920"
     inkscape:window-height="974"
     inkscape:window-x="-11"
     inkscape:window-y="-11"
     inkscape:window-maximized="1"
     inkscape:current-layer="g1" /><g
     id="g1"
     transform="matrix(0.92592965,0,0,0.91689028,-11.111157,-11.002684)"><path
       id="path4"
       style="color:#000000;fill:#ffffff;-inkscape-stroke:none"
       sodipodi:type="inkscape:offset"
       inkscape:radius="2.0794222"
       inkscape:original="M 63.136719 14.650391 L 62.943359 14.867188 C 61.258729 16.756524 59.551564 18.536688 58.09375 20.669922 L 58.025391 20.773438 L 58.013672 20.896484 C 57.567352 25.604744 57.514119 25.826036 56.199219 30.068359 C 54.68274 30.123989 53.166309 30.180858 51.648438 30.253906 L 49.626953 30.353516 C 44.801491 30.515098 41.122841 31.035229 37.041016 33.982422 L 36.730469 34.205078 L 36.880859 34.558594 C 38.273266 37.846182 39.24978 40.061257 42.345703 42.144531 L 42.369141 42.158203 L 42.392578 42.169922 C 44.365414 43.202452 45.29878 43.829993 46.617188 45.1875 C 45.684686 45.518715 45.348761 45.662959 43.683594 46.501953 L 43.673828 46.507812 L 41.294922 47.863281 L 41.294922 47.861328 C 39.888987 48.657179 38.485574 49.45672 37.083984 50.261719 L 36.636719 50.517578 L 38.847656 53.824219 L 38.849609 53.824219 C 41.088338 57.145063 43.481498 60.073129 47.220703 61.84375 L 47.335938 61.898438 L 47.460938 61.888672 C 51.135283 61.613949 53.19366 59.979736 55.908203 57.765625 L 55.927734 57.75 L 58.875 54.810547 L 60.734375 51.578125 C 66.260952 52.85471 65.482298 52.606688 70.669922 56.199219 L 70.658203 56.189453 C 73.478727 58.278555 75.783027 59.861942 79.242188 60.623047 C 77.25328 60.894733 75.247767 61.008509 73.253906 61.328125 L 71.191406 61.669922 C 69.475745 59.334706 68.042003 57.857864 66.326172 56.912109 C 64.541063 55.928169 62.490482 55.483617 59.53125 55 L 59.289062 54.960938 L 59.115234 55.134766 L 58 56.244141 L 58.128906 58.666016 L 58.435547 61.34375 L 58.732422 64.015625 L 58.914062 65.556641 C 56.293029 65.44622 54.114726 65.670249 51.492188 66.375 L 51.478516 66.378906 L 51.466797 66.382812 C 44.276333 68.756942 37.054532 70.987412 29.78125 73.099609 L 26.605469 74.017578 C 23.70285 74.857789 20.799596 75.697834 17.896484 76.535156 L 15.587891 77.199219 L 15.683594 77.638672 C 16.182889 79.932454 16.510862 81.403768 18.115234 83.285156 L 18.138672 83.314453 L 18.167969 83.337891 C 21.754918 86.408534 24.552156 88.568359 29.625 88.568359 L 29.824219 88.568359 L 29.964844 88.427734 C 34.114227 84.291204 38.815949 81.809401 44.484375 80.279297 L 44.470703 80.28125 C 49.146591 79.154317 53.782658 77.931899 58.417969 76.664062 L 58.419922 76.664062 L 59.914062 76.253906 C 59.825798 79.08996 59.7358 81.925895 59.640625 84.761719 L 59.515625 88.492188 L 59.400391 92.210938 L 59.277344 95.742188 C 59.216554 97.603615 59.127959 99.461318 58.984375 101.3125 C 58.620261 101.7504 58.399071 102.00332 58.226562 102.07031 C 58.031602 102.14601 57.627988 102.14927 56.726562 102.10547 L 56.716797 102.10547 L 54.400391 102.08984 L 51.912109 102.08008 L 49.292969 102.05469 C 46.936098 102.04289 44.578896 102.02807 42.222656 102.00977 C 44.486716 100.93274 46.452593 99.789458 48.3125 97.669922 L 48.335938 97.646484 L 49.990234 95.130859 L 49.992188 95.126953 C 51.894087 92.295518 53.606271 89.470906 55.076172 86.375 L 55.380859 85.734375 L 54.673828 85.689453 C 50.475874 85.419456 46.765034 86.269611 42.787109 87.201172 L 42.785156 87.201172 L 41.652344 87.476562 L 41.652344 85.689453 L 41.171875 85.689453 C 39.247448 85.689453 39.035666 85.737743 36.810547 86.828125 L 36.796875 86.835938 L 34.197266 88.330078 C 31.616987 89.776999 31.553545 89.818838 29.330078 91.544922 L 29.251953 91.605469 L 29.203125 91.693359 C 28.025982 93.834477 27.387992 94.99642 27.259766 96.658203 C 27.131539 98.319986 27.493416 100.38072 28.189453 104.47461 L 28.232422 104.72461 L 28.462891 104.83203 C 30.68801 105.85122 30.730457 105.86829 33.316406 106.76758 L 33.341797 106.77539 L 41.980469 108.69141 C 47.652475 111.51866 53.592448 114.48123 60.0625 115.18359 L 60.070312 115.18555 L 63.162109 115.41797 C 63.957241 116.20128 64.182635 116.39745 65.746094 117.12109 L 65.824219 117.15625 L 65.908203 117.16406 C 66.990757 117.25396 67.596986 117.30688 68.271484 117.14258 C 68.945982 116.97829 69.597115 116.62866 70.859375 115.96875 L 70.935547 115.92969 L 70.992188 115.86719 C 72.40738 114.30925 73.186496 113.45868 73.556641 112.18555 C 73.926785 110.91241 73.875545 109.3553 73.802734 106.29297 L 73.802734 106.28516 L 73.664062 103.61523 L 73.664062 103.60547 C 73.576252 100.76869 73.48113 97.931866 73.355469 95.09375 C 73.267099 93.121863 73.187832 91.150348 73.117188 89.177734 L 73.117188 89.175781 C 72.964325 84.613126 72.802604 80.047479 72.607422 75.484375 L 72.462891 72.257812 C 75.493425 72.221024 78.52404 72.189339 81.554688 72.167969 C 82.868533 72.160069 84.18222 72.150265 85.496094 72.140625 L 85.498047 72.140625 L 85.5 72.140625 C 86.785979 72.124205 88.071431 72.10977 89.357422 72.09375 L 93.107422 72.074219 L 93.109375 72.074219 C 96.876496 72.040839 99.763896 72.251104 103.38477 73.238281 L 103.37305 73.234375 C 106.35395 74.126267 107.76067 74.331235 110.62891 73.1875 L 110.92578 73.068359 L 110.93164 72.75 C 110.97324 70.505821 110.97034 68.260565 110.93164 66.017578 L 110.92969 65.908203 L 110.88086 65.810547 C 110.39975 64.851334 110.14983 64.334214 109.75586 63.914062 C 109.36189 63.493915 108.89781 63.261462 108.08594 62.841797 L 108.08008 62.837891 L 105.89062 61.775391 L 103.08008 59.689453 L 103.05664 59.677734 C 101.58325 58.808416 100.83219 58.350875 100.07617 58.148438 C 99.320156 57.946002 98.664633 58.050296 97.535156 58.222656 L 97.509766 58.226562 L 97.484375 58.232422 C 94.952136 58.906816 95.042548 58.892185 92.466797 59.068359 C 88.288856 59.348696 84.18535 59.979801 80.066406 60.527344 L 81.306641 58.369141 L 82.904297 55.53125 L 82.904297 55.529297 C 84.86331 52.080423 86.477552 49.045209 86.873047 44.96875 L 86.890625 44.789062 L 86.785156 44.642578 C 85.712142 43.154314 85.121759 42.342929 83.830078 41.345703 C 82.538398 40.348478 80.57247 39.164118 76.646484 36.792969 L 76.644531 36.791016 L 75.763672 36.269531 L 76.798828 35.599609 L 78.964844 34.111328 L 78.970703 34.107422 C 81.126974 32.663131 81.209068 32.594131 82.890625 30.869141 L 82.998047 30.757812 L 83.021484 30.605469 C 83.382314 28.188652 83.382314 28.045363 83.021484 25.666016 L 83.005859 25.560547 L 82.945312 25.470703 C 79.195076 19.863056 76.040056 18.015089 69.623047 16.269531 L 69.617188 16.269531 L 67.267578 15.679688 C 65.98483 15.357832 64.702475 15.037871 63.417969 14.720703 L 63.136719 14.650391 z M 63.476562 15.724609 C 64.66288 16.018043 65.849364 16.313803 67.035156 16.611328 L 69.378906 17.199219 C 75.671109 18.911599 78.448774 20.517756 82.085938 25.927734 C 82.407217 28.042593 82.405349 28.194087 82.091797 30.291016 C 80.555005 31.867675 80.530811 31.905182 78.429688 33.3125 L 78.427734 33.314453 L 76.265625 34.798828 L 73.935547 36.308594 L 76.152344 37.617188 C 80.074264 39.985883 82.034988 41.173466 83.242188 42.105469 C 84.39206 42.993213 84.902593 43.709589 85.873047 45.054688 C 85.465719 48.829855 83.987133 51.678666 82.068359 55.056641 L 82.068359 55.058594 L 80.470703 57.892578 L 79.443359 59.685547 C 76.175775 58.967121 74.044441 57.502218 71.230469 55.417969 L 71.222656 55.414062 L 71.216797 55.408203 C 65.887722 51.717714 66.756858 51.974213 60.613281 50.548828 L 60.265625 50.46875 L 58.107422 54.220703 L 55.292969 57.025391 C 52.623479 59.20274 50.846808 60.62178 47.517578 60.90625 C 44.075642 59.237609 41.827732 56.524349 39.646484 53.289062 L 39.644531 53.287109 L 38.009766 50.839844 C 39.261026 50.122677 40.513889 49.408042 41.769531 48.697266 L 44.117188 47.359375 L 44.121094 47.357422 C 46.209147 46.305066 45.896595 46.335118 47.621094 45.785156 L 48.332031 45.558594 L 47.830078 45.003906 C 46.136865 43.138258 45.091642 42.503178 42.882812 41.345703 C 40.097831 39.471662 39.22976 37.573403 37.947266 34.554688 C 41.709071 31.952905 45.029678 31.469257 49.666016 31.314453 L 49.669922 31.314453 L 51.693359 31.214844 C 53.321596 31.136484 54.952453 31.072999 56.583984 31.013672 L 56.923828 31.001953 L 57.025391 30.675781 C 58.464792 26.033632 58.507196 25.795803 58.949219 21.138672 C 60.284965 19.200959 61.866892 17.521787 63.476562 15.724609 z M 59.611328 55.996094 C 62.394528 56.458431 64.293579 56.88782 65.861328 57.751953 C 67.479844 58.644069 68.838039 60.015686 70.611328 62.470703 L 70.785156 62.710938 L 73.40625 62.277344 C 79.782483 61.255233 86.094954 60.459214 92.53125 60.027344 L 92.533203 60.027344 C 95.108955 59.851169 95.198229 59.834551 97.730469 59.160156 L 97.679688 59.171875 C 98.809162 58.999512 99.282715 58.930127 99.828125 59.076172 C 100.37076 59.22147 101.0964 59.635825 102.55469 60.496094 L 105.39062 62.601562 L 107.65625 63.699219 L 107.64453 63.695312 C 108.45641 64.114977 108.80217 64.301023 109.05469 64.570312 C 109.29392 64.82544 109.539 65.294257 109.9707 66.152344 C 110.0052 68.223039 110.0046 70.295585 109.9707 72.365234 C 107.5066 73.295813 106.46265 73.156471 103.64844 72.314453 L 103.64258 72.3125 L 103.63672 72.310547 C 99.924126 71.298385 96.908312 71.07964 93.101562 71.113281 L 93.099609 71.113281 L 89.351562 71.132812 L 89.349609 71.132812 C 88.062222 71.148854 86.775667 71.165201 85.488281 71.181641 C 84.175522 71.191241 82.861637 71.199131 81.548828 71.207031 C 78.351028 71.229581 75.15458 71.261121 71.957031 71.300781 L 71.460938 71.306641 L 71.648438 75.527344 C 71.843407 80.085699 72.00338 84.647259 72.15625 89.208984 L 72.15625 89.210938 C 72.22701 91.187061 72.30796 93.161291 72.396484 95.136719 C 72.521981 97.971119 72.615279 100.808 72.703125 103.64648 L 72.703125 103.65039 L 72.84375 106.32812 L 72.841797 106.31445 C 72.914607 109.37674 72.936197 110.88117 72.634766 111.91797 C 72.3388 112.93596 71.701816 113.65445 70.339844 115.1543 C 69.156441 115.77235 68.526815 116.09356 68.044922 116.21094 C 67.571464 116.32626 67.063411 116.28743 66.087891 116.20703 C 64.532734 115.48844 64.578858 115.54079 63.640625 114.60547 L 63.515625 114.48047 L 60.166016 114.22852 C 60.160816 114.22795 60.155621 114.22756 60.150391 114.22656 C 53.890979 113.54328 48.032762 110.63453 42.347656 107.80078 L 42.294922 107.77539 L 33.609375 105.84961 C 31.189197 105.00798 31.002061 104.92097 29.105469 104.05273 C 28.457632 100.23579 28.1103 98.137911 28.21875 96.732422 C 28.328884 95.305114 28.864348 94.311303 29.994141 92.255859 C 32.11553 90.608948 32.124326 90.593478 34.669922 89.166016 L 34.673828 89.164062 L 37.232422 87.691406 L 37.242188 87.6875 C 39.164639 86.745224 39.43368 86.685945 40.691406 86.679688 L 40.691406 88.699219 L 43.005859 88.134766 C 46.698399 87.270037 50.091847 86.587638 53.785156 86.691406 C 52.426229 89.437117 50.918976 92.022059 49.191406 94.59375 L 49.191406 94.595703 L 47.578125 97.048828 C 45.33267 99.602292 43.194974 100.67144 40.019531 102.03516 L 40.205078 102.95703 C 43.232504 102.98483 46.258561 103.00052 49.285156 103.01562 L 51.904297 103.04102 L 54.396484 103.05078 L 56.701172 103.06641 L 56.681641 103.06445 C 57.583014 103.10825 58.081874 103.15604 58.574219 102.96484 C 59.066563 102.77365 59.350775 102.40018 59.824219 101.82227 L 59.919922 101.70508 L 59.931641 101.55469 C 60.084694 99.628485 60.175389 97.700544 60.238281 95.775391 L 60.238281 95.773438 L 60.359375 92.242188 L 60.474609 88.523438 L 60.601562 84.792969 C 60.704045 81.739445 60.802032 78.686527 60.896484 75.632812 L 60.916016 74.982422 L 58.164062 75.738281 C 53.534973 77.004402 48.908093 78.224071 44.246094 79.347656 L 44.240234 79.349609 L 44.234375 79.351562 C 38.520891 80.893833 33.695903 83.435633 29.466797 87.589844 C 24.793325 87.543004 22.336115 85.636874 18.830078 82.636719 C 17.473779 81.037429 17.16531 79.827529 16.736328 77.869141 L 18.162109 77.458984 C 21.065837 76.621484 23.968498 75.78161 26.871094 74.941406 L 30.048828 74.023438 L 30.050781 74.021484 C 37.325992 71.908727 44.54838 69.67761 51.742188 67.302734 C 54.49223 66.563719 56.603314 66.331115 59.423828 66.505859 L 59.998047 66.541016 L 59.685547 63.90625 L 59.388672 61.236328 L 59.085938 58.585938 L 58.982422 56.623047 L 59.611328 55.996094 z M 92.439453 78.191406 C 88.926734 78.123976 85.571101 79.209221 81.400391 80.929688 L 81.076172 81.064453 L 81.105469 81.414062 C 81.250988 83.154877 81.417105 84.351527 81.925781 85.429688 C 82.434458 86.50785 83.266056 87.4078 84.642578 88.574219 L 84.669922 88.597656 L 84.701172 88.617188 C 86.027552 89.431156 86.62971 89.818727 86.972656 90.294922 C 87.249341 90.679111 87.438579 91.481993 87.681641 92.472656 C 86.093486 92.489266 84.974116 92.507894 83.933594 92.867188 C 82.715732 93.287717 81.333081 94.043788 78.214844 95.478516 L 78.005859 95.576172 L 77.111328 99.154297 L 77.761719 99.119141 C 83.419482 98.813805 88.376698 98.205545 93.318359 100.79883 C 95.063824 102.04586 96.053841 102.73661 98.195312 103.36719 C 100.35765 104.00391 103.69344 104.60849 110.36523 105.82617 L 110.64453 105.87891 L 110.82422 105.65625 C 112.69603 103.33863 113.74631 101.95884 114.29102 98.904297 L 114.30664 98.824219 L 114.29297 98.744141 C 113.81435 95.702399 113.80819 93.866853 111.96289 91.363281 L 112.02734 91.482422 C 110.80553 88.145014 110.12888 86.769885 109.09766 85.738281 C 108.06644 84.706677 106.81698 84.109937 104.39258 82.150391 L 104.34961 82.115234 L 101.2832 80.644531 C 97.974835 78.999614 95.17156 78.243853 92.439453 78.191406 z M 92.419922 79.152344 C 94.988846 79.201654 97.635366 79.902879 100.85547 81.503906 L 100.85938 81.505859 L 103.83789 82.935547 C 106.26071 84.885772 107.5487 85.548377 108.41797 86.417969 C 109.2965 87.29683 109.91336 88.50287 111.125 91.8125 L 111.14844 91.876953 L 111.18945 91.933594 C 112.88235 94.230395 112.85932 95.776166 113.32617 98.791016 C 112.8273 101.52687 111.95186 102.70585 110.24414 104.82422 C 103.89096 103.66442 100.47914 103.03787 98.466797 102.44531 C 96.40441 101.83803 95.609664 101.25861 93.832031 99.988281 L 93.804688 99.96875 L 93.775391 99.953125 C 88.748748 97.310911 83.723966 97.828238 78.355469 98.140625 L 78.826172 96.255859 C 81.723999 94.915013 83.198423 94.137152 84.246094 93.775391 C 85.334166 93.399679 86.161016 93.365234 88.320312 93.365234 L 88.925781 93.365234 L 88.787109 92.775391 C 88.429617 91.251229 88.250946 90.425294 87.751953 89.732422 C 87.252961 89.03955 86.529505 88.612795 85.203125 87.798828 L 85.263672 87.841797 C 83.92748 86.709552 83.217758 85.919891 82.792969 85.019531 C 82.409147 84.206004 82.267759 83.131108 82.132812 81.689453 C 86.076504 80.08247 89.223991 79.090991 92.419922 79.152344 z "
       d="m 63.640625,12.632813 a 2.0796302,2.0796302 0 0 0 -2.056641,0.632812 l -0.193359,0.216797 c -1.652017,1.85276 -3.433233,3.701 -5.013672,6.013672 a 2.0796302,2.0796302 0 0 0 -0.01758,0.02734 l -0.06836,0.103516 a 2.0796302,2.0796302 0 0 0 -0.335938,0.949219 l -0.01172,0.123047 a 2.0796302,2.0796302 0 0 0 0,0.002 c -0.371233,3.916169 -0.569865,4.832231 -1.333984,7.351562 -1.0185,0.03901 -2.035157,0.07565 -3.060547,0.125 a 2.0796302,2.0796302 0 0 0 -0.002,0 l -1.990234,0.09766 c -0.002,6.7e-5 -0.0038,-6.8e-5 -0.0059,0 -4.934535,0.165631 -9.256275,0.796397 -13.720703,4.017578 l -0.0039,0.002 c -7.72e-4,5.57e-4 -0.0012,0.0014 -0.002,0.002 l -0.304688,0.21875 a 2.0796302,2.0796302 0 0 0 -0.703125,2.503906 l 0.150391,0.353516 v -0.0039 c 1.397753,3.300211 2.72444,6.148648 6.21875,8.5 a 2.0796302,2.0796302 0 0 0 0.113281,0.07227 l 0.02344,0.01367 a 2.0796302,2.0796302 0 0 0 0.105468,0.05664 c 0.556652,0.291336 0.69967,0.543469 1.080078,0.767578 l -2.232421,1.271484 a 2.0796302,2.0796302 0 0 0 -0.0039,0 c -1.409259,0.797733 -2.816872,1.600796 -4.222656,2.408203 l -0.445312,0.253907 a 2.0796302,2.0796302 0 0 0 -0.695313,2.960937 l 2.210938,3.306641 a 2.0796302,2.0796302 0 0 0 1.253906,0.669922 L 37.125,54.986328 c 2.305984,3.420608 4.974627,6.733088 9.205078,8.736328 l 0.115234,0.05469 a 2.0796302,2.0796302 0 0 0 1.052735,0.193359 l 0.125,-0.0098 c 3.713486,-0.279859 6.17574,-1.963441 8.576172,-3.859375 l 0.169922,1.47461 0.21875,1.974609 c -1.857046,0.08184 -3.678979,0.290831 -5.634766,0.816406 a 2.0796302,2.0796302 0 0 0 -0.03125,0.0078 l -0.01367,0.0039 a 2.0796302,2.0796302 0 0 0 -0.08789,0.02734 l -0.01172,0.0039 c -7.163097,2.36501 -14.358614,4.58827 -21.607422,6.69336 l 0.002,-0.002 -3.175781,0.917969 c -2.902468,0.840168 -5.805058,1.680585 -8.707032,2.517578 l -2.30664,0.664063 a 2.0796302,2.0796302 0 0 0 -1.457031,2.441406 l 0.0957,0.439453 c 0.499361,2.293912 1.021451,4.36498 2.875,6.542969 a 2.0796302,2.0796302 0 0 0 0.308593,0.308594 l 0.002,0.002 a 2.0796302,2.0796302 0 0 0 0.002,0.002 l 0.0293,0.02344 c 3.133755,2.679359 6.281518,4.885159 10.724609,5.447266 a 2.0796302,2.0796302 0 0 0 -0.160156,0.1875 l -0.04883,0.08789 a 2.0796302,2.0796302 0 0 0 -0.0039,0.0078 c -1.177338,2.141474 -2.032103,3.691489 -2.195312,5.806641 -0.161459,2.09246 0.257724,4.234073 0.953125,8.324223 a 2.0796302,2.0796302 0 0 0 0.002,0.004 l 0.04297,0.25 a 2.0796302,2.0796302 0 0 0 1.169922,1.53321 l 0.230468,0.10742 a 2.0796302,2.0796302 0 0 0 0.01367,0.006 c 2.226228,1.01969 2.448167,1.11011 5.035156,2.00976 a 2.0796302,2.0796302 0 0 0 0.07227,0.0234 l 0.02539,0.008 a 2.0796302,2.0796302 0 0 0 0.160156,0.041 l 8.419922,1.86719 c 5.578323,2.78133 11.617945,5.799 18.4375,6.56054 a 2.0796302,2.0796302 0 0 0 0.166015,0.0273 l 2.628907,0.19726 c 0.616279,0.51597 1.136041,0.99813 2.330078,1.55078 a 2.0796302,2.0796302 0 0 0 0.01953,0.01 l 0.07813,0.0352 a 2.0796302,2.0796302 0 0 0 0.660156,0.17383 l 0.08398,0.008 a 2.0796302,2.0796302 0 0 0 0.02148,0.002 c 1.079288,0.0896 1.974726,0.18219 3.027344,-0.0742 1.029999,-0.25088 1.799582,-0.69233 3.044922,-1.34375 l 0.01367,-0.006 0.0625,-0.0332 a 2.0796302,2.0796302 0 0 0 0.591796,-0.45313 l 0.05469,-0.0605 0.002,-0.002 c 1.412069,-1.55446 2.50057,-2.71305 3.019531,-4.49804 0.511395,-1.75899 0.400783,-3.46559 0.328125,-6.52149 a 2.0796302,2.0796302 0 0 0 -0.002,-0.0664 l -0.134765,-2.61718 v 0.0449 a 2.0796302,2.0796302 0 0 0 -0.002,-0.0644 c -0.03097,-1.0005 -0.07553,-2.00585 -0.109375,-3.00782 a 2.0796302,2.0796302 0 0 0 1.589844,0.69727 l 0.650391,-0.0352 c 5.728965,-0.30918 10.143177,-0.81348 14.451172,1.43555 1.649352,1.17178 3.014769,2.0625 5.283203,2.73047 2.376071,0.69965 5.713818,1.29224 12.384768,2.50976 l 0.26562,0.0508 a 2.0796302,2.0796302 0 0 0 2.00586,-0.73633 l 0.17969,-0.22266 h -0.002 c 1.88638,-2.33567 3.28967,-4.29057 3.89648,-7.693359 l 0.01,-0.04687 a 2.0796302,2.0796302 0 0 0 0.008,-0.748047 l -0.0137,-0.08008 c -0.43193,-2.755647 -0.6208,-5.13701 -2.44727,-7.833984 -1.19012,-3.226762 -1.99846,-4.96476 -3.32617,-6.292969 -1.33876,-1.33926 -2.55529,-1.866117 -4.85938,-3.726562 l -0.006,-0.0059 c -0.002,-0.0013 -0.002,-6.46e-4 -0.004,-0.002 l -0.0332,-0.02734 a 2.0796302,2.0796302 0 0 0 -0.41797,-0.265625 l -3.03907,-1.457031 c -3.500298,-1.740348 -6.642386,-2.610641 -9.730464,-2.669922 -3.966174,-0.07613 -7.621877,1.141679 -11.871094,2.894531 a 2.0796302,2.0796302 0 0 0 -0.0059,0.002 l -0.324218,0.134765 a 2.0796302,2.0796302 0 0 0 -1.273438,2.09375 l 0.0293,0.34961 c 0.149872,1.792893 0.324235,3.271363 1.011719,4.728515 0.691317,1.465275 1.790052,2.603329 3.253906,3.84375 l 0.01758,0.01563 a 2.0796302,2.0796302 0 0 0 0.251953,0.185547 l 0.03125,0.01953 a 2.0796302,2.0796302 0 0 0 0.01367,0.0078 c 0.47267,0.290066 0.346301,0.228261 0.601563,0.402344 -0.310869,0.0663 -0.64228,0.002 -0.958985,0.111328 -1.485725,0.513022 -2.831886,1.271161 -5.910156,2.6875 a 2.0796302,2.0796302 0 0 0 -0.01172,0.0039 L 77.125,93.691406 a 2.0796302,2.0796302 0 0 0 -1.136719,1.38086 l -0.482422,1.929687 c -0.02649,-0.667471 -0.04268,-1.331787 -0.07227,-2 a 2.0796302,2.0796302 0 0 0 0,-0.002 c -0.08701,-1.941441 -0.166557,-3.881801 -0.236328,-5.824219 -8.42e-4,-0.02344 -0.0011,-0.04687 -0.002,-0.07031 -0.152951,-4.565307 -0.314148,-9.135715 -0.509765,-13.708985 a 2.0796302,2.0796302 0 0 0 0,-0.0059 l -0.04883,-1.074219 c 2.310143,-0.02598 4.620872,-0.05207 6.929687,-0.06836 1.310643,-0.0079 2.621185,-0.01774 3.929688,-0.02734 h 0.002 0.01367 a 2.0796302,2.0796302 0 0 0 0.01563,0 c 1.279293,-0.01633 2.558689,-0.0309 3.841797,-0.04687 l 3.740234,-0.01953 a 2.0796302,2.0796302 0 0 0 0.01758,0 c 3.680336,-0.03261 6.288431,0.156749 9.710937,1.089844 a 2.0796302,2.0796302 0 0 0 0.0156,-0.0039 c 3.02993,0.898019 5.4082,1.129699 8.54492,-0.121093 a 2.0796302,2.0796302 0 0 0 0.006,-0.002 l 0.29687,-0.11914 a 2.0796302,2.0796302 0 0 0 1.30274,-1.890625 l 0.006,-0.31836 c 0.0421,-2.271663 0.041,-4.541515 0.002,-6.80664 a 2.0796302,2.0796302 0 0 0 -0.002,-0.002 l -0.002,-0.109375 a 2.0796302,2.0796302 0 0 0 -0.21875,-0.892578 l -0.0488,-0.09766 a 2.0796302,2.0796302 0 0 0 0,-0.002 c -0.47621,-0.949457 -0.79063,-1.66562 -1.46679,-2.386719 -0.68092,-0.726164 -1.41371,-1.070253 -2.20508,-1.478515 a 2.0796302,2.0796302 0 0 0 -0.0801,-0.04687 l -2.01562,-0.976563 -2.65235,-1.970703 a 2.0796302,2.0796302 0 0 0 -0.26562,-0.162109 c -1.42037,-0.839954 -2.28133,-1.406167 -3.44141,-1.716797 -1.218492,-0.326273 -2.268152,-0.144245 -3.392577,0.02734 a 2.0796302,2.0796302 0 0 0 -0.002,0 l -0.02539,0.0039 a 2.0796302,2.0796302 0 0 0 -0.15039,0.0293 l -0.02539,0.0059 a 2.0796302,2.0796302 0 0 0 -0.06836,0.01563 c -2.536904,0.675637 -2.044737,0.595002 -4.625,0.771485 -2.883022,0.193598 -5.636083,0.613154 -8.414063,0.988281 l 0.802735,-1.425781 c 0.0012,-0.002 0.0027,-0.0038 0.0039,-0.0059 a 2.0796302,2.0796302 0 0 0 0.002,-0.0039 c 1.973008,-3.473882 3.786255,-6.861315 4.224609,-11.375 v -0.002 l 0.01758,-0.177735 a 2.0796302,2.0796302 0 0 0 -0.382812,-1.417968 l -0.105469,-0.146485 a 2.0796302,2.0796302 0 0 0 0,-0.002 c -1.074944,-1.490941 -1.890147,-2.583216 -3.371094,-3.726562 -1.09628,-0.84637 -3.245228,-2.122517 -5.507812,-3.496094 l 0.53125,-0.365234 0.002,-0.002 c 2.161436,-1.44775 2.566132,-1.78626 4.251953,-3.515625 a 2.0796302,2.0796302 0 0 0 0.0078,-0.0078 l 0.107422,-0.111328 a 2.0796302,2.0796302 0 0 0 0.558593,-1.126953 l 0.02344,-0.152344 a 2.0796302,2.0796302 0 0 0 0.002,-0.0098 c 0.362095,-2.425288 0.361166,-3.167159 0,-5.550781 L 85.0625,25.255859 a 2.0796302,2.0796302 0 0 0 -0.332031,-0.857422 l -0.05664,-0.08398 -0.0039,-0.0059 C 80.738855,18.433131 76.774677,16.060832 70.167969,14.263672 a 2.0796302,2.0796302 0 0 0 -0.544922,-0.07422 H 69.875 l -2.101563,-0.527344 c -1.282528,-0.321801 -2.565778,-0.64149 -3.851562,-0.958984 l -0.0059,-0.002 z m 0.591797,5.423828 c 0.765498,0.190359 1.531567,0.380243 2.296875,0.572265 l 2.326172,0.583985 0.01758,0.0039 c 5.87668,1.601976 7.909509,2.731025 11.15625,7.435547 0.176188,1.136261 0.145442,1.707165 0.0039,2.65625 -0.856923,0.878477 -1.024791,1.113316 -2.759766,2.27539 a 2.0796302,2.0796302 0 0 0 -0.314453,0.257813 l 0.134766,-0.132813 -1.982422,1.359375 -2.306641,1.496094 a 2.0796302,2.0796302 0 0 0 0.07422,3.535156 l 2.216797,1.308594 c 3.90084,2.356061 5.856205,3.557203 6.875,4.34375 0.704976,0.544268 1.11368,1.155353 1.632813,1.855469 -0.471827,2.950399 -1.606157,5.362866 -3.34375,8.421875 a 2.0796302,2.0796302 0 0 0 -0.271485,1.027344 v -0.542969 l -1.326172,2.351562 -0.152343,0.267578 c -2.0401,-0.687853 -3.735852,-1.686735 -5.957032,-3.330078 L 72.6875,53.9375 a 2.0796302,2.0796302 0 0 0 -0.263672,-0.21875 2.0796302,2.0796302 0 0 0 -0.263672,-0.160156 l 0.09375,0.04687 c -5.06361,-3.510443 -5.121863,-3.678808 -11.169922,-5.082032 a 2.0796302,2.0796302 0 0 0 -0.0039,0 l -0.347656,-0.08008 a 2.0796302,2.0796302 0 0 0 -2.269531,0.988282 l -2.019532,3.511718 -2.52539,2.515625 c -2.384659,1.945799 -3.692606,2.866063 -6,3.205078 -2.653353,-1.453312 -4.57354,-3.610204 -6.546875,-6.537109 a 2.0796302,2.0796302 0 0 0 -0.253907,-0.308594 l 0.142579,0.142578 -0.28125,-0.419921 c 0.604713,-0.344619 1.208913,-0.690428 1.814453,-1.033204 a 2.0796302,2.0796302 0 0 0 0.0059,-0.0039 l 2.273438,-1.296875 c 2.110259,-1.064994 1.51193,-0.90954 3.179687,-1.441406 l 0.710938,-0.226563 a 2.0796302,2.0796302 0 0 0 0.910156,-3.375 l -0.501953,-0.554687 a 2.0796302,2.0796302 0 0 0 -0.002,-0.0039 c -1.760563,-1.939856 -3.204656,-2.861722 -5.326172,-3.984375 l -0.002,-0.002 c -1.836126,-1.236104 -2.583682,-2.489981 -3.388672,-4.234375 2.731952,-1.500087 5.261261,-1.86455 9.083984,-1.992188 a 2.0796302,2.0796302 0 0 0 0.03516,-0.002 l 2.021485,-0.09961 c 1.614213,-0.07769 3.236611,-0.140062 4.863281,-0.199219 l 0.339844,-0.01172 a 2.0796302,2.0796302 0 0 0 1.914062,-1.458984 l 0.101563,-0.326172 a 2.0796302,2.0796302 0 0 0 0,-0.0039 c 1.34726,-4.344991 1.544836,-5.40481 1.925781,-9.300782 0.9482,-1.322221 2.099205,-2.604842 3.294922,-3.933593 z m -3.056641,40.509765 c 1.364159,0.302035 2.890001,0.569513 3.681641,1.00586 1.260096,0.694557 2.374912,1.770754 4.068359,4.115234 a 2.0796302,2.0796302 0 0 0 0,0.002 l 0.173828,0.240234 A 2.0796302,2.0796302 0 0 0 71.125,64.761719 l 2.611328,-0.431641 0.0098,-0.002 c 6.326374,-1.013895 12.567963,-1.800202 18.919922,-2.226563 h 0.0039 a 2.0796302,2.0796302 0 0 0 0.0059,0 c 2.449732,-0.167555 3.087549,-0.299737 5.304688,-0.884765 a 2.0796302,2.0796302 0 0 0 0.01367,0.0098 c 1.126056,-0.171841 1.200926,-0.16827 1.296875,-0.142578 0.03467,0.0093 0.780184,0.369127 2.130864,1.160157 l 2.72851,2.027343 a 2.0796302,2.0796302 0 0 0 0.33399,0.201172 l 2.20507,1.06836 a 2.0796302,2.0796302 0 0 0 0,0.002 c 0.80312,0.415135 0.91611,0.52221 0.84766,0.449218 -0.0893,-0.09529 0.18237,0.37279 0.35352,0.671875 0.0191,1.362859 0.011,2.726539 0,4.089844 -0.96158,0.213314 -1.70821,0.148299 -3.64649,-0.43164 a 2.0796302,2.0796302 0 0 0 -0.0606,-0.01758 c -3.90874,-1.065639 -7.19401,-1.304999 -11.082028,-1.271484 h -0.01758 l -3.738281,0.01953 a 2.0796302,2.0796302 0 0 0 -0.02148,0 c -1.287725,0.01605 -2.575808,0.03239 -3.863282,0.04883 -1.307052,0.0095 -2.614912,0.01752 -3.923828,0.02539 a 2.0796302,2.0796302 0 0 0 -0.0039,0 c -3.201698,0.02258 -6.400503,0.05405 -9.601562,0.09375 l -0.496094,0.0059 a 2.0796302,2.0796302 0 0 0 -2.052735,2.171875 l 0.1875,4.220704 c 0.193438,4.523007 0.35382,9.055081 0.50586,13.589843 v 0.002 c 7.64e-4,0.0228 0.0012,0.04556 0.002,0.06836 a 2.0796302,2.0796302 0 0 0 0,0.0059 c 0.07102,1.983303 0.151475,3.964625 0.240234,5.945313 0.123808,2.796585 0.217531,5.602541 0.304688,8.416011 v 0.004 a 2.0796302,2.0796302 0 0 0 0,0.0215 c 4.04e-4,0.0131 0.0015,0.026 0.002,0.0391 a 2.0796302,2.0796302 0 0 0 0.002,0.0488 l 0.136719,2.60351 c 0.07266,3.05587 0.01846,4.48117 -0.125,4.97461 -0.129968,0.44703 -0.618087,1.01954 -1.636719,2.1543 -0.749118,0.37466 -1.41821,0.69166 -1.449219,0.69922 -0.02424,0.006 -0.487809,-0.0195 -0.851562,-0.0371 -0.879692,-0.37996 -0.790481,-0.22227 -1.589844,-1.01953 l -0.002,-0.002 -0.123047,-0.12304 a 2.0796302,2.0796302 0 0 0 -1.314453,-0.60352 l -3.308594,-0.24805 c -5.76097,-0.63223 -11.409229,-3.38821 -17.08789,-6.21875 A 2.0796302,2.0796302 0 0 0 43.25,105.92773 l -0.05273,-0.0254 a 2.0796302,2.0796302 0 0 0 -0.453125,-0.15625 l -8.521485,-1.88867 c -1.73219,-0.6027 -2.29005,-0.86725 -3.208984,-1.27929 -0.440661,-2.719565 -0.779156,-4.928011 -0.720703,-5.685552 0.06796,-0.880793 0.50171,-1.673147 1.361328,-3.248047 1.597792,-1.242004 1.712725,-1.362837 4.033203,-2.664062 a 2.0796302,2.0796302 0 0 0 0.02344,-0.01367 l 2.431641,-1.400391 -0.128906,0.05273 a 2.0796302,2.0796302 0 0 0 0.144531,-0.06445 c 0.432918,-0.212191 0.475205,-0.22672 0.703125,-0.341796 a 2.0796302,2.0796302 0 0 0 2.322266,1.505859 l 2.314453,-0.564453 -0.01758,0.0059 c 2.312072,-0.541447 4.440429,-0.908714 6.552734,-1.142578 -0.836351,1.472153 -1.600272,2.974905 -2.568359,4.416016 a 2.0796302,2.0796302 0 0 0 -0.353516,1.160156 v -0.621094 l -1.152344,1.751953 c -1.978635,2.229525 -3.665107,3.071364 -6.759765,4.400391 a 2.0796302,2.0796302 0 0 0 -1.21875,2.32031 l 0.185547,0.92188 a 2.0796302,2.0796302 0 0 0 2.019531,1.66992 c 3.029703,0.0278 6.056462,0.0435 9.080078,0.0586 l 2.619141,0.0254 a 2.0796302,2.0796302 0 0 0 0.01172,0 l 2.488282,0.01 2.302734,0.0156 a 2.0796302,2.0796302 0 0 0 0.0332,-0.0176 c 0.818894,0.0464 1.615686,0.15781 2.605469,-0.22657 1.092425,-0.42421 1.653761,-1.20795 2.107422,-1.76171 a 2.0796302,2.0796302 0 0 0 0.002,-0.004 l 0.0957,-0.11719 a 2.0796302,2.0796302 0 0 0 0.460937,-1.15234 l 0.01172,-0.14844 v -0.002 c 0.156499,-1.970101 0.248979,-3.928621 0.3125,-5.87305 a 2.0796302,2.0796302 0 0 0 0.002,-0.03516 L 62.4375,92.3125 a 2.0796302,2.0796302 0 0 0 0,-0.0059 l 0.115234,-3.714844 0.126953,-3.728516 c 0.102551,-3.055549 0.200421,-6.11069 0.294922,-9.166015 a 2.0796302,2.0796302 0 0 0 0,-0.002 l 0.01953,-0.65039 a 2.0796302,2.0796302 0 0 0 -2.628907,-2.06836 l -2.751953,0.75586 c -4.61615,1.26257 -9.220697,2.477198 -13.853515,3.59375 a 2.0796302,2.0796302 0 0 0 -0.0957,0.02734 c -5.63693,1.52584 -10.563317,4.097925 -14.871093,8.080078 -3.507374,-0.203495 -5.321414,-1.58114 -8.447266,-4.253907 C 19.7832,80.499088 19.46974,79.928072 19.257812,79.306641 21.98863,78.518719 24.71827,77.729406 27.447266,76.939453 L 30.625,76.021484 a 2.0796302,2.0796302 0 0 0 0.0078,-0.0039 c 7.265102,-2.109843 14.479001,-4.339648 21.666016,-6.710937 2.587341,-0.693872 4.359855,-0.887937 6.996094,-0.72461 a 2.0796302,2.0796302 0 0 0 0.002,0 l 0.574219,0.03516 A 2.0796302,2.0796302 0 0 0 62.0625,66.296875 l -0.310547,-2.628906 -0.296875,-2.66211 a 2.0796302,2.0796302 0 0 0 0,-0.0059 z m -3.429687,20.419922 c -0.06021,1.902089 -0.119786,3.803848 -0.183594,5.705078 l -0.125,3.730469 a 2.0796302,2.0796302 0 0 0 0,0.0059 l -0.115234,3.714844 -0.123047,3.527344 a 2.0796302,2.0796302 0 0 0 0,0.0039 c -0.04773,1.461383 -0.133539,2.907195 -0.228516,4.349612 -0.06287,-5.9e-4 -0.07441,0.009 -0.142578,0.006 a 2.0796302,2.0796302 0 0 0 -0.101563,-0.004 h -0.002 l -2.310547,-0.0156 a 2.0796302,2.0796302 0 0 0 -0.0059,0 L 51.925781,100 49.3125,99.974609 a 2.0796302,2.0796302 0 0 0 -0.0098,0 c -0.160176,-8.02e-4 -0.32029,-0.0031 -0.480468,-0.0039 0.339075,-0.325432 0.702013,-0.536304 1.03125,-0.910156 a 2.0796302,2.0796302 0 0 0 0.220703,-0.271485 l 1.644531,-2.501953 0.0098,-0.01367 a 2.0796302,2.0796302 0 0 0 0.08789,-0.15625 2.0796302,2.0796302 0 0 0 0.0332,-0.05664 l 0.002,-0.0039 c 1.879066,-2.811632 3.614431,-5.652751 5.103516,-8.789063 h -0.002 l 0.304687,-0.640625 a 2.0796302,2.0796302 0 0 0 -1.74414,-2.96875 l -0.707031,-0.04492 v 0.002 c -4.271435,-0.274723 -8.007549,0.537051 -11.742188,1.40625 A 2.0796302,2.0796302 0 0 0 41.65625,83.613281 c 1.128943,-0.428816 2.133492,-0.992627 3.369141,-1.326172 a 2.0796302,2.0796302 0 0 0 0.0039,-0.002 c 4.269985,-1.030091 8.496368,-2.152121 12.716797,-3.298828 z m 34.634765,2.244141 c 2.218124,0.04258 4.518695,0.628191 7.548828,2.134765 a 2.0796302,2.0796302 0 0 0 0.0293,0.01563 l 2.798826,1.34375 c 2.28497,1.81009 3.69917,2.6736 4.18946,3.164063 0.55014,0.550353 1.03523,1.389859 2.22461,4.638672 l 0.0215,0.06055 a 2.0796302,2.0796302 0 0 0 0.27148,0.507812 l 0.041,0.05664 a 2.0796302,2.0796302 0 0 0 0.01,0.01563 c 1.33017,1.804683 1.30331,2.829329 1.6875,5.49414 -0.33799,1.692511 -0.90028,2.649651 -1.84375,3.863281 -5.1078,-0.9376 -8.7162,-1.60647 -10.304693,-2.07422 -1.857438,-0.54693 -2.231219,-0.880522 -4.013671,-2.154295 l -0.02734,-0.01953 a 2.0796302,2.0796302 0 0 0 -0.230469,-0.142578 l -0.0293,-0.01563 a 2.0796302,2.0796302 0 0 0 -0.01172,-0.0059 c -3.442005,-1.809262 -6.8333,-2.177449 -10.183593,-2.205078 0.06025,-0.02323 0.312988,-0.149928 0.365234,-0.167969 0.817923,-0.282429 1.259305,-0.294922 3.396484,-0.294922 h 0.605469 a 2.0796302,2.0796302 0 0 0 2.023438,-2.55664 l -0.138672,-0.589844 0.002,0.002 c -0.354528,-1.511527 -0.553649,-2.645436 -1.373047,-3.783203 -0.759368,-1.054416 -1.712059,-1.609373 -2.890625,-2.326172 -1.164558,-0.997011 -1.638779,-1.557912 -1.875,-2.058594 -0.06713,-0.142287 -0.123364,-0.750329 -0.189453,-1.064453 3.034383,-1.147331 5.572973,-1.882495 7.896484,-1.83789 z"
       transform="matrix(1.0141698,0,0,1.0154675,-1.7003661,-0.76501627)" /><path
       id="path3-9"
       d="m 69.013992,17.940595 c -5.071975,3.593546 -5.155573,9.303843 -6.569818,14.741062 -1.860259,1.881101 -6.142148,0.662415 -9.045107,1.229408 -3.782853,0.295558 -13.418941,1.523638 -9.218601,6.804947 0.76041,3.9822 9.172008,5.497865 7.768064,8.173959 -3.212881,1.467114 -6.191152,3.391044 -9.282493,5.091272 2.770998,4.156906 5.516217,8.734038 10.246427,10.897426 4.86295,-0.417186 8.785355,-4.078481 11.649562,-7.744636 0.879608,-3.93139 4.397011,-2.401696 7.214385,-1.243577 4.667274,2.48898 8.402904,6.899903 13.827035,7.831502 2.686246,-4.991269 6.284682,-9.778403 6.830952,-15.585145 -2.739213,-4.225535 -7.641253,-6.100352 -11.710204,-8.766644 2.685253,-1.829977 5.582198,-3.441717 7.806804,-5.844429 1.674048,-5.585219 -3.575589,-10.034922 -8.057955,-12.247312 -3.654212,-1.618574 -7.620352,-2.3085 -11.459051,-3.337833 z m -3.9034,40.911006 c -1.821318,1.225547 -0.53599,3.653718 -0.598486,5.471001 0.196557,1.748271 0.385503,3.497396 0.598486,5.243786 -7.597527,-0.496608 -14.467131,3.419145 -21.672902,5.184909 -7.389169,2.249858 -14.823049,4.349245 -22.240347,6.503949 0.512814,5.35235 5.541653,8.8582 10.292815,10.340805 6.351201,0.889166 10.415023,-7.334774 17.233129,-7.720997 5.796929,-1.483975 11.600562,-2.951109 17.363155,-4.56795 -0.337588,8.765881 -0.45055,17.542744 -0.97585,26.299926 -1.603164,2.02651 -4.575399,0.71777 -6.844433,1.0626 -4.224133,-0.0357 -8.448443,-0.05 -12.672571,-0.0889 4.190967,-1.48443 7.790238,-4.33318 9.87253,-8.268447 1.07457,-2.646331 7.797075,-9.430847 1.710218,-8.299142 -3.603236,0.210751 -7.111686,1.115402 -10.606898,1.956695 0.801005,-3.779456 -3.946425,-1.101514 -5.695884,0.01589 -3.242865,1.769071 -6.978896,3.619416 -7.744593,7.605683 -0.532718,4.714011 -0.149883,10.791401 5.913097,10.947751 4.179182,1.05685 8.612074,1.38713 12.325133,3.76709 5.50271,2.7323 11.447924,4.8093 17.646801,4.93758 3.907242,4.70779 11.201073,-0.60263 10.21204,-5.8719 -0.404793,-12.65454 -0.916488,-25.309304 -1.429388,-37.961313 9.341453,0.08775 18.719956,-0.620262 28.034576,0.173935 4.21548,0.965812 12.86401,4.023646 11.02777,-3.461476 1.02665,-3.852806 -2.65883,-5.361538 -5.36674,-6.794433 -2.6041,-2.042549 -5.74561,-4.520291 -9.21244,-2.806223 -8.485712,0.941745 -17.041665,1.578436 -25.459016,3.14752 -2.527762,-4.264833 -6.862173,-6.41369 -11.710202,-6.818502 z m 33.443831,23.556551 c -3.523782,0.549888 -11.406333,0.446723 -10.728873,4.980241 -0.13623,4.239547 8.224113,6.076256 5.793763,9.454465 -3.298096,0.461552 -9.069755,1.13358 -9.761683,5.016492 3.108738,1.79176 11.407312,-0.85679 15.834653,2.59095 4.843767,3.82208 11.392977,3.64545 17.138357,5.05302 5.01615,-4.36045 3.26719,-11.163693 0.31066,-16.08973 -1.32121,-3.876449 -5.14028,-6.127141 -8.5658,-7.961361 -3.13226,-1.574277 -6.44576,-3.022775 -10.021077,-3.044077 z"
       style="fill:#ffd300;fill-opacity:1;stroke-width:0.974961" /><path
       style="color:#000000;fill:#000000;stroke-width:1.01482;-inkscape-stroke:none"
       d="m 62.498999,14.65627 c -1.715794,1.92675 -3.429606,3.720438 -4.879248,5.844429 -0.468859,4.952349 -0.468861,4.952359 -1.9517,9.740717 -1.655298,0.06027 -3.310544,0.123841 -4.965017,0.203565 l -2.048903,0.100836 c -4.872878,0.162911 -8.450002,0.661712 -12.503075,3.59189 1.411516,3.336971 2.317641,5.433492 5.367174,7.488176 2.272113,1.190685 3.225291,1.758149 4.928803,3.637547 -1.763633,0.563162 -1.513332,0.563137 -3.625128,1.628526 l -2.401507,1.369788 c -1.42532,0.807857 -2.849114,1.618434 -4.269342,2.43518 l 1.951699,2.922215 c 2.254717,3.34884 4.617306,6.23162 8.294724,7.975211 3.599823,-0.269496 5.543074,-1.831679 8.294722,-4.078926 l 2.92755,-2.922215 2.04128,-3.551935 c 6.235292,1.448516 5.169874,1.104172 10.587588,4.860845 2.959172,2.1946 5.215151,3.819772 8.839826,4.535521 l 1.246496,-2.172638 1.620063,-2.880359 c 1.983312,-3.49606 3.573242,-6.495337 3.96439,-10.532149 -2.176439,-3.02257 -2.176448,-3.022578 -10.139689,-7.838233 l -1.570508,-0.928411 1.707737,-1.107245 2.195662,-1.510573 c 2.19566,-1.47252 2.195664,-1.472524 3.903399,-3.226611 0.365943,-2.454201 0.365943,-2.454206 0,-4.870358 -3.762441,-5.633377 -6.768932,-7.382193 -13.234962,-9.143337 l -2.378635,-0.597381 c -1.300613,-0.326752 -2.601562,-0.652212 -3.903399,-0.974071 z m -3.903398,40.911007 -0.97585,0.974072 0.118169,2.225905 0.308764,2.705331 0.301143,2.712942 0.247774,2.096538 c -2.903055,-0.180088 -5.122466,0.06545 -7.947839,0.825677 -7.298288,2.412814 -14.626437,4.679702 -22.008081,6.826111 l -3.222973,0.932216 c -2.94374,0.853204 -5.887638,1.706574 -8.832202,2.556939 l -1.902145,0.547914 c 0.506648,2.330539 0.789753,3.67778 2.359575,5.521009 3.629953,3.111433 6.292412,5.19378 11.302321,5.19378 4.269806,-4.262027 9.130935,-6.830564 14.942701,-8.401368 4.735417,-1.14274 9.43261,-2.383224 14.130761,-3.66989 L 59.57145,76.02278 c -0.09578,3.100557 -0.195318,6.200944 -0.299236,9.301241 l -0.127698,3.787846 -0.116263,3.776429 -0.123887,3.586182 c -0.06364,1.951082 -0.154335,3.902212 -0.308765,5.848242 -0.960308,1.17371 -0.960071,1.17343 -2.788415,1.08441 l -2.338608,-0.0152 -2.525393,-0.0101 -2.654997,-0.0248 c -3.069929,-0.0153 -6.139743,-0.0327 -9.209582,-0.0609 3.239348,-1.39293 5.5124,-2.53116 7.852541,-5.201383 L 48.59314,95.56462 c 1.921725,-2.864373 3.645494,-5.711173 5.123212,-8.827525 -4.173729,-0.268782 -7.879698,0.576431 -11.912228,1.521988 l -1.749669,0.426157 v -1.948145 c -1.951698,0 -1.951702,10e-7 -4.208352,1.107247 l -2.622597,1.510572 c -2.622592,1.472521 -2.622597,1.472524 -4.879249,3.226611 -2.387648,4.348475 -2.387649,4.348488 -0.975848,12.662925 2.25665,1.03495 2.256654,1.03495 4.879249,1.94815 l 8.782646,1.94815 c 5.770515,2.88 11.766824,5.87179 18.236193,6.57498 l 3.232502,0.24352 c 0.97585,0.97406 0.975852,0.97406 2.683587,1.7655 2.19566,0.18263 2.194951,0.18169 4.755362,-1.15861 2.870536,-3.16412 2.871296,-3.16371 2.723612,-9.38306 l -0.141041,-2.71446 c -0.08911,-2.88317 -0.185146,-5.764998 -0.312577,-8.64678 -0.08971,-2.004517 -0.170341,-4.008511 -0.242056,-6.013751 -0.155079,-4.633543 -0.318641,-9.267608 -0.516515,-13.899546 l -0.167724,-3.782136 c 3.242031,-0.04026 6.48389,-0.07223 9.726097,-0.09512 1.332268,-0.008 2.664534,-0.01685 3.996791,-0.02663 1.305576,-0.01669 2.611158,-0.03318 3.916741,-0.04946 l 3.802387,-0.01903 c 3.8411,-0.03408 6.83414,0.183294 10.553277,1.198564 3.00863,0.901342 4.1913,1.10264 7.03869,-0.03424 0.0421,-2.272441 0.0392,-4.546007 0,-6.818502 -0.97585,-1.948101 -0.97585,-1.948104 -2.6226,-2.800416 l -2.25664,-1.09583 -2.86656,-2.130781 c -2.988537,-1.765531 -2.988537,-1.765533 -5.279503,-1.415475 -2.568124,0.684826 -2.568134,0.684827 -5.180386,0.863727 -6.546206,0.439807 -12.963616,1.250976 -19.440757,2.29059 l -2.363386,0.391912 C 66.671242,57.347433 64.574012,56.545558 58.595601,55.567277 Z m 33.443815,23.556551 c -3.456083,-0.06643 -6.788067,1.00399 -10.999271,2.743382 0.293018,3.509793 0.66432,4.606039 3.415474,6.94026 2.690352,1.653116 2.690356,1.653121 3.415474,4.748598 -4.39132,0 -3.701373,0.156007 -10.044391,3.078219 l -0.689956,2.766211 c 5.721239,-0.309156 10.879252,-0.950938 16.040531,1.765502 3.605646,2.57996 3.605667,2.57996 17.138353,5.053 1.89643,-2.35111 2.87688,-3.61173 3.41548,-6.635861 -0.49001,-3.118111 -0.46767,-4.829143 -2.27381,-7.28271 -2.46794,-6.749857 -2.6238,-5.244832 -7.59142,-9.265095 l -3.06478,-1.472521 c -3.310489,-1.648078 -6.073609,-2.387317 -8.761684,-2.438985 z"
       id="path2" /></g></svg>
