<?xml version="1.0" encoding="UTF-8" standalone="no"?>
<svg
   version="1.1"
   width="129"
   height="135"
   id="svg17"
   sodipodi:docname="æ€_1_1.svg"
   xml:space="preserve"
   inkscape:version="1.3 (0e150ed6c4, 2023-07-21)"
   xmlns:inkscape="http://www.inkscape.org/namespaces/inkscape"
   xmlns:sodipodi="http://sodipodi.sourceforge.net/DTD/sodipodi-0.dtd"
   xmlns="http://www.w3.org/2000/svg"
   xmlns:svg="http://www.w3.org/2000/svg"><defs
     id="defs17" /><sodipodi:namedview
     id="namedview17"
     pagecolor="#ffffff"
     bordercolor="#000000"
     borderopacity="0.25"
     inkscape:showpageshadow="2"
     inkscape:pageopacity="0.0"
     inkscape:pagecheckerboard="0"
     inkscape:deskcolor="#d1d1d1"
     inkscape:zoom="2.7518519"
     inkscape:cx="-43.243607"
     inkscape:cy="33.613728"
     inkscape:window-width="1920"
     inkscape:window-height="974"
     inkscape:window-x="-11"
     inkscape:window-y="-11"
     inkscape:window-maximized="1"
     inkscape:current-layer="svg17" /><path
     d="M 0.44967423,-0.35331547 C 6.1996742,1.3966845 5.75,1.75 8,4 8.5633803,9.2957746 8.7239782,9.7133292 6.6605979,12.292555 L 5,13 3.0625,12.0625 C -4.7754844,9.3431993 -13.370231,9.873305 -21.5625,9.9375 l -3.345703,0.013672 C -27.605527,9.9628486 -30.302733,9.9792248 -33,10 l 0.21875,1.917236 c 0.573055,5.302252 0.871889,10.439582 0.78125,15.770264 -0.08296,4.910106 0.269036,9.460022 1,14.3125 0.08397,1.748481 0.130505,3.499513 0.125,5.25 l 0.0078,2.515625 C -31,52 -31,52 -32,55 c -3.007919,2.041088 -5.421953,2.19878 -9,2 l -2,-3.100652 2.51639,-1.326855 c 2.362614,-2.474901 1.781264,-3.541038 1.830046,-6.844466 -0.04939,-1.798044 -0.120752,-3.595569 -0.209717,-5.39209 l -0.0916,-2.872161 c -0.100061,-3.030622 -0.227792,-6.059296 -0.35762,-9.088776 -0.11386,-3.036575 -0.222049,-6.073252 -0.325485,-9.110199 -0.06617,-1.891075 -0.139433,-3.781918 -0.220246,-5.672424 l -0.100021,-2.579193 -0.09712,-2.2806706 C -40,7 -40,7 -39,6 c 3.968989,-0.2203143 7.941671,-0.185786 11.91626,-0.1853027 1.981731,-0.00215 3.963424,-0.020565 5.945068,-0.039307 7.294491,-0.011091 14.7068954,-0.063661 21.78106376,1.7749355 z"
     fill="#ffd200"
     id="path5"
     sodipodi:nodetypes="cccccccccccccccccccccccccccccc"
     transform="translate(109,64)" /><path
     d="M0 0 C0.99 0.33 1.98 0.66 3 1 C2.89055285 5.45885926 2.75982334 9.91684156 2.625 14.375 C2.5940625 15.64601563 2.563125 16.91703125 2.53125 18.2265625 C2.49257813 19.43828125 2.45390625 20.65 2.4140625 21.8984375 C2.3826416 23.01911621 2.3512207 24.13979492 2.31884766 25.29443359 C2 28 2 28 0 30 C-2.06298828 30.22705078 -2.06298828 30.22705078 -4.5703125 30.1953125 C-5.46621094 30.18886719 -6.36210938 30.18242188 -7.28515625 30.17578125 C-8.22230469 30.15902344 -9.15945312 30.14226562 -10.125 30.125 C-11.54232422 30.11146484 -11.54232422 30.11146484 -12.98828125 30.09765625 C-15.32577292 30.07404522 -17.66276123 30.04111516 -20 30 C-18.35873248 28.27802396 -17.18591772 27.08513649 -15.00390625 26.0859375 C-12.42449587 24.68812837 -11.48005018 23.10130722 -9.9375 20.625 C-8.06237047 17.65065662 -6.14494883 14.787797 -4 12 C-4.88751953 12.2165625 -4.88751953 12.2165625 -5.79296875 12.4375 C-9.92529941 13.40822694 -13.7229762 14.27593702 -18 14 C-18 13.34 -18 12.68 -18 12 C-18.59167969 12.38414063 -19.18335938 12.76828125 -19.79296875 13.1640625 C-26.32761578 17.1509434 -26.32761578 17.1509434 -30.0625 16.3125 C-31.0215625 15.6628125 -31.0215625 15.6628125 -32 15 C-25.87549931 8.31872652 -19.33368277 5.50399376 -10.6875 3.3125 C-9.08681502 2.89354586 -7.4865333 2.47304704 -5.88671875 2.05078125 C-4.83810669 1.78261597 -4.83810669 1.78261597 -3.76831055 1.5090332 C-1.91617398 1.03406021 -1.91617398 1.03406021 0 0 Z "
     fill="#FFD201"
     id="path6"
     transform="translate(56,74)" /><path
     d="m 0,0 c 4.4687139,0.91741809 7.7100543,2.8549483 11,6 1.3125,2.75 1.3125,2.75 1,6 -1.355207,3.731546 -2.9875617,6.390634 -6,9 -4.3124514,1.344972 -8.5133899,1.675387 -13,2 -1.3418461,0.297217 -2.6809671,0.613942 -4,1 l -1.5,-2.375 C -15.857442,18.099686 -18.272917,17.866632 -23,17 l -1,7 c -2.25,1.1875 -2.25,1.1875 -5,2 -2.3125,-1.25 -2.3125,-1.25 -4,-3 v -2 c 1.986897,-1.352781 3.987452,-2.685683 6,-4 l 3,-2 0.3125,-1.9375 L -23,11 c 3,-1 3,-1 6.1875,0.5625 3.529134,2.142956 6.778375,4.610541 10.015625,7.167969 C -4.9174172,20.188167 -4.9174172,20.188167 -2,21 l 0.75,-2.0625 C -0.25045107,16.58856 0.78346378,14.703249 2.125,12.5625 4.0627382,9.2898755 4.0530039,6.8997867 3.6788041,3.0642392 2.166246,2.2380775 0.96673095,1.3807019 0,0 Z"
     fill="#ffd200"
     id="path7"
     sodipodi:nodetypes="ccccccccccccccccccccccc"
     transform="translate(80,38)" /><path
     d="M0 0 C0.99 0.33 1.98 0.66 3 1 C2.67 2.65 2.34 4.3 2 6 C-2.06770807 7.37888409 -6.12318931 8.7436041 -10.24609375 9.94921875 C-17.41699893 11.98390436 -17.41699893 11.98390436 -24 15.375 C-27 17 -27 17 -29.9375 16.25 C-30.618125 15.8375 -31.29875 15.425 -32 15 C-25.87549931 8.31872652 -19.33368277 5.50399376 -10.6875 3.3125 C-9.08681502 2.89354586 -7.4865333 2.47304704 -5.88671875 2.05078125 C-4.83810669 1.78261597 -4.83810669 1.78261597 -3.76831055 1.5090332 C-1.91617398 1.03406021 -1.91617398 1.03406021 0 0 Z "
     fill="#FFD200"
     transform="translate(56,74)"
     id="path8" /><path
     d="m 0,0 c 6.6481528,2.0107175 9.5766595,7.2653089 13,13 1.410305,4.527821 1.384384,6.08082 -0.4375,10.4375 L 11,26 C 7.3405635,25.310929 3.7755804,24.431787 0.1875,23.4375 L -2.4483354,22.17142 -5.3854351,20.586738 -5,20 4,21 C 6.3525404,17.471189 6.4493885,16.156844 6,12 4.5196293,8.9524913 4.9050644,9.3379263 2.8854351,6.5104351 L 1.8160335,4.2231393 0.67021858,2.0278268 Z"
     fill="#ffd200"
     id="path9"
     transform="translate(106,84)"
     sodipodi:nodetypes="cccccccccccccc" /><path
     d="M0 0 C3.40502926 0.28375244 4.76257746 0.76917253 7.25 3.1875 C9.13906079 6.22349056 9.67137084 8.46723648 10 12 C2.99130435 18 2.99130435 18 -0.8125 18 C-3 17 -3 17 -6 15 C-0.25 10.125 -0.25 10.125 2 9 C2.20140476 5.37471432 1.85776765 3.13498292 0 0 Z "
     fill="#FFD200"
     id="path10"
     transform="translate(78,19)" /><path
     d="M0 0 C0 2.97 0 5.94 0 9 C-2.64 9.33 -5.28 9.66 -8 10 C-7.34 8.68 -6.68 7.36 -6 6 C-6.59167969 6.144375 -7.18335938 6.28875 -7.79296875 6.4375 C-11.92529941 7.40822694 -15.7229762 8.27593702 -20 8 C-19.67 7.01 -19.34 6.02 -19 5 C-16.92578125 4.12109375 -16.92578125 4.12109375 -14.3125 3.4375 C-13.41015625 3.19257812 -12.5078125 2.94765625 -11.578125 2.6953125 C-10.72734375 2.46585937 -9.8765625 2.23640625 -9 2 C-7.865625 1.608125 -6.73125 1.21625 -5.5625 0.8125 C-3 0 -3 0 0 0 Z "
     fill="#FFFFFF"
     id="path11"
     transform="translate(58,80)" /><path
     d="M0 0 C4.02144292 1.37878043 6.73061335 3.31742634 10 6 C11.32 6.66 12.64 7.32 14 8 C10.7 8.66 7.4 9.32 4 10 C3.38125 9.195625 2.7625 8.39125 2.125 7.5625 C0.25835959 4.96125481 0.25835959 4.96125481 -2 4 C-1.34 2.68 -0.68 1.36 0 0 Z "
     fill="#FFF6D1"
     transform="translate(65,52)"
     id="path13"
     style="fill:#ffffff;fill-opacity:1" /><path
     d="M0 0 C0.33 0 0.66 0 1 0 C1.05391993 1.79133978 1.09275571 3.58313899 1.125 5.375 C1.14820313 6.37273437 1.17140625 7.37046875 1.1953125 8.3984375 C1 11 1 11 -1 13 C-3.68839385 13.26991906 -6.29141936 13.08737357 -9 13 C-8.06398754 11.58235006 -7.1261208 10.16592432 -6.1875 8.75 C-5.66542969 7.96109375 -5.14335938 7.1721875 -4.60546875 6.359375 C-3.12635376 4.18568776 -1.64317664 2.05279374 0 0 Z "
     fill="#FFFFFF"
     transform="translate(57,91)"
     id="path14" /><path
     d="M 0,0 2,3 -10.100652,2.7430433 -12.224837,1.3211959 C -7.9153322,-0.89885211 -4.6837773,-1.1488511 0,0 Z"
     fill="#ffd200"
     id="path15"
     sodipodi:nodetypes="ccccc"
     transform="translate(92,99)" /><path
     d="m 54.871522,115.35332 6.306278,0.53045 5.55364,1.12406 1.287239,3.911 c -3.854944,-0.81853 -10.897157,-3.31551 -13.147157,-5.56551 z"
     fill="#ffd200"
     id="path17"
     sodipodi:nodetypes="ccccc" /><path
     d="M 0,0 C 1.3340568,0.3304261 2.6671981,0.66454817 4,1 L 6.4375,1.6132812 C 13.063558,3.4213062 16.144443,5.2166651 20,11 c 0.375,2.480469 0.375,2.480469 0,5 -1.75,1.800781 -1.75,1.800781 -4,3.3125 L 13.75,20.863281 12,22 13.609375,22.953125 C 21.769697,27.89697 21.769697,27.89697 24,31 23.599172,35.14427 21.969896,38.223376 19.9375,41.8125 L 18.277344,44.769531 17,47 C 13.285617,46.265198 10.973814,44.59677 7.9414062,42.34375 2.3896092,38.487076 3.4816752,38.840391 -2.907934,37.353315 L -5,41 -8,44 c -2.819749,2.307067 -4.811085,3.910831 -8.5,4.1875 C -20.268429,46.397496 -22.689483,43.437985 -25,40 l -2,-3 c 1.455376,-0.838488 2.914404,-1.670639 4.375,-2.5 l 2.460938,-1.40625 C -18,32 -18.256957,32 -16.449674,31.421847 -18.195347,29.492419 -19.171654,28.909882 -21.5,27.6875 -24.625005,25.578122 -25.553551,23.4258 -27,20 c 4.153382,-3.008178 7.819023,-3.520254 12.8125,-3.6875 l 2.099609,-0.103516 C -10.392472,16.127137 -8.6962654,16.061876 -7,16 -5.4804629,11.084179 -5.4804629,11.084179 -5,6 -3.5144808,3.81947 -1.758258,1.9780403 0,0 Z"
     fill="#000000"
     id="path3"
     sodipodi:nodetypes="cccccccccccccccccccccccccccccc"
     transform="translate(61,12)" /><path
     d="M 0,0 C 6.1263697,1.0043229 8.2754926,1.827538 12,7 L 14.421875,6.5976562 C 21.059319,5.5303677 27.635532,4.6976084 34.34375,4.2460937 37.020653,4.0624311 37.020653,4.0624311 39.652344,3.359375 42,3 42,3 45.0625,4.8125 L 48,7 50.3125,8.125 C 52,9 52,9 53,11 c 0.04022,2.332987 0.0432,4.667067 0,7 -2.917867,1.167147 -4.130028,0.960975 -7.213135,0.03564 -3.811184,-1.042296 -6.878037,-1.265946 -10.814209,-1.230958 l -3.896484,0.01953 c -1.337894,0.01671 -2.675784,0.03364 -4.013672,0.05078 -1.365228,0.01005 -2.730463,0.01917 -4.095703,0.02734 C 19.644348,16.925824 16.322267,16.958666 13,17 l 0.171143,3.883789 c 0.20277,4.755237 0.371844,9.511179 0.530761,14.268066 0.07349,2.058618 0.156111,4.11693 0.248047,6.174805 0.130585,2.958494 0.228262,5.916531 0.31958,8.876465 l 0.144486,2.787659 c 0.15134,6.384901 0.15134,6.384901 -2.790238,9.633239 C 9,64 9,64 6.75,63.8125 5,63 5,63 4,62 L 0.6875,61.75 C -5.9419792,61.028097 -12.086672,57.956664 -18,55 l -9,-2 c -2.6875,-0.9375 -2.6875,-0.9375 -5,-2 -1.446741,-8.535771 -1.446741,-8.535771 1,-13 2.3125,-1.800781 2.3125,-1.800781 5,-3.3125 l 2.6875,-1.550781 C -21,32 -21,32 -19,32 v 2 l 1.792969,-0.4375 C -13.074701,32.591773 -9.2770238,31.724063 -5,32 c -1.5142893,3.199307 -3.280715,6.121878 -5.25,9.0625 l -1.703125,2.597656 C -14.351182,46.401447 -16.680481,47.569981 -20,49 c 3.145814,0.02889 6.291595,0.04676 9.4375,0.0625 l 2.7207031,0.02539 2.5878907,0.0098 2.3962402,0.01587 C -0.98407311,49.204959 -0.98407311,49.204959 0,48 0.15825258,46.002179 0.25119171,43.999112 0.31640625,41.996094 L 0.44335938,38.314453 0.5625,34.4375 0.69335938,30.548828 C 0.799848,27.366001 0.90185962,24.183093 1,21 l -2.2062988,0.60791 C -6.0207252,22.928827 -10.834885,24.20184 -15.6875,25.375 -21.6431,26.987619 -26.624521,29.624521 -31,34 -36.1339,34 -38.86224,31.862227 -42.582031,28.667969 -44.190704,26.775673 -44.480813,25.392575 -45,23 l 1.949219,-0.563232 C -40.033343,21.563766 -37.016594,20.688416 -34,19.8125 l 3.302002,-0.957275 c 7.56433,-2.203545 15.074554,-4.530527 22.5534667,-7.007569 C -5.2492333,11.067185 -2.9749024,10.815119 0,11 L -0.25390625,8.8476563 -0.5625,6.0625 -0.87890625,3.2851563 -1,1 Z"
     fill="#000000"
     id="path2"
     transform="translate(57,54)"
     sodipodi:nodetypes="ccccccccccccccccccccccccccccccccccccccccccccccccccccccccccccccc" /><path
     d="M 0,0 3.140625,1.5117187 C 8.2311974,5.6389988 8.3910598,4.0936806 10.920087,11.023217 12.770916,13.542096 12.747865,15.298889 13.25,18.5 12.698065,21.604636 11.693355,22.898812 9.75,25.3125 -4.1176134,22.77363 -4.1176134,22.77363 -7.8125,20.125 -13.101515,17.336247 -18.387167,17.995114 -24.25,18.3125 l 0.706631,-2.839402 c 6.5,-3 5.793369,-3.160598 10.293369,-3.160598 -0.743065,-3.1778781 -0.743065,-3.1778781 -3.5,-4.875 -2.819242,-2.396356 -3.199731,-3.5217764 -3.5,-7.125 C -12.578129,-2.8620673 -7.7541023,-3.8673098 0,0 Z"
     fill="#000000"
     id="path4"
     transform="translate(100.25,80.6875)"
     sodipodi:nodetypes="cccccccccccc" /><path
     d="m 36.292032,106.8773 2.685237,2.13861 -1.74814,0.98409 -5.164891,-0.48609 -1.080599,-2.26909 1.01179,-0.91261 c 1.27245,-0.56732 2.485105,-0.99915 2.485105,-0.99915 0,0 0.98692,0.60018 1.811498,1.54424 z"
     fill="#ffd200"
     id="path16"
     sodipodi:nodetypes="cccccccc" /></svg>
