<?xml version="1.0" encoding="UTF-8" standalone="no"?>
<svg
   version="1.1"
   width="500"
   height="500"
   id="svg504"
   sodipodi:docname="泼墨.svg"
   inkscape:version="1.3 (0e150ed6c4, 2023-07-21)"
   xmlns:inkscape="http://www.inkscape.org/namespaces/inkscape"
   xmlns:sodipodi="http://sodipodi.sourceforge.net/DTD/sodipodi-0.dtd"
   xmlns="http://www.w3.org/2000/svg"
   xmlns:svg="http://www.w3.org/2000/svg">
  <defs
     id="defs504" />
  <sodipodi:namedview
     id="namedview504"
     pagecolor="#ffffff"
     bordercolor="#000000"
     borderopacity="0.25"
     inkscape:showpageshadow="2"
     inkscape:pageopacity="0.0"
     inkscape:pagecheckerboard="0"
     inkscape:deskcolor="#d1d1d1"
     inkscape:zoom="1.141321"
     inkscape:cx="95.503368"
     inkscape:cy="126.60768"
     inkscape:window-width="1920"
     inkscape:window-height="974"
     inkscape:window-x="-11"
     inkscape:window-y="-11"
     inkscape:window-maximized="1"
     inkscape:current-layer="svg504"
     shape-rendering="auto" />
  <path
     id="path2"
     d="m 299.60324,0.01496831 c -4.19606,10.08711669 3.5844,18.52139469 3.75566,7.27105589 -4.23277,1.411102 -0.36738,-7.70403167 -3.75566,-7.27105589 z M 213.85472,1.0536905 c -2.53587,7.5085182 -9.89322,5.2245103 -8.64171,9.3485005 1.59026,7.008612 -0.65732,33.185794 7.27431,35.872573 5.7765,-0.354391 -7.81648,-11.866227 -0.32203,-17.175573 2.42421,-8.031597 2.30573,-18.919469 3.75566,-28.0455005 h -1.40991 z m -46.49015,2.0774448 c -2.65349,8.3841847 7.69035,29.4444207 4.92141,11.4360887 -1.66504,-3.564923 -0.60153,-10.2331694 -4.92141,-11.4360887 z M 450.66598,7.582222 c -15.28678,4.450377 15.58363,2.933396 0,0 z M 147.73539,25.983025 c 0.96753,16.787922 3.92659,32.980853 4.19501,49.375827 -9.89795,0.789023 4.50618,17.25006 -7.29435,16.063673 -8.79327,-0.822637 -3.3756,22.577215 -16.52984,14.542105 -2.44506,8.76309 -20.59015,13.1372 -12.25752,23.63843 7.37946,7.38907 -4.24065,9.56127 -3.54171,13.16486 -4.96607,-1.36451 -13.913245,-6.35976 -17.862739,1.80311 -6.660648,-10.53505 -19.760396,-15.46551 -23.774687,-7.06764 -14.913371,13.6746 17.729631,-2.9322 5.023943,9.3228 -5.200275,6.6304 -7.150651,2.931 -12.673506,-3.46756 0.309966,14.36998 -8.277293,-3.14696 -11.291943,-1.11143 5.790845,13.76336 -11.699,12.73312 -10.18621,24.65425 -3.059507,7.43049 -10.825305,15.74859 1.261712,12.50637 1.307675,0.16165 -5.078151,11.33648 2.322576,17.41052 7.34966,1.63367 13.418712,3.89133 4.463375,12.35864 -5.627313,1.24714 -27.322926,-3.45068 -5.354695,4.08604 14.513019,-2.5235 33.857676,15.57342 24.607075,25.65806 -4.288892,6.63724 3.237626,-11.42384 -9.845334,-1.06712 -11.860393,7.71202 -19.832753,7.00621 -37.746991,12.79915 5.180067,7.38302 29.110039,-10.89175 31.439289,1.77136 2.053729,2.75919 -8.869072,13.43799 1.261061,4.55966 1.446423,3.12448 11.483059,0.62083 17.766658,0.82976 10.928576,0.51137 -10.221605,13.70073 3.700802,12.26886 2.220804,7.03845 -8.542545,13.93047 -17.280453,21.93083 -11.88806,3.69309 -13.724948,14.27727 -1.867179,6.55425 8.386401,-4.5052 12.14575,8.77959 6.415983,17.28045 -9.927767,4.33587 -15.118868,15.45717 -20.704816,22.79013 -8.803727,2.57181 -18.376577,0.90939 -14.302707,11.42595 -1.075183,9.15521 -5.293989,-5.20849 -10.02646,4.92581 -2.863442,4.59759 -10.8116162,5.646 -11.8556301,12.96165 5.7638291,3.13637 18.4150201,-11.70845 21.7099731,-7.76006 13.393215,-1.69176 1.392814,7.66798 7.924258,14.21152 3.90726,6.34665 -7.816638,11.95483 -2.370668,20.32613 6.246697,-2.69387 15.931816,3.25168 24.3489,-0.73263 -4.61515,5.8796 5.78039,21.1769 10.635584,13.62383 0.544369,-2.89429 12.502547,-9.32096 21.611446,-9.85461 17.633813,-6.94486 -7.394146,19.28205 16.044943,11.95999 7.78001,-0.43536 15.78298,1.01068 20.78336,5.48573 -8.8653,15.80603 -5.40659,10.0382 -13.87441,16.91169 2.4839,7.50655 -11.85994,13.3282 -16.971722,18.70918 -5.604712,-6.99233 -13.182122,17.98414 -0.671938,9.22271 5.73461,-5.52945 9.22606,-4.20606 12.91191,-13.45267 9.98858,-7.16728 8.57156,13.93464 4.2859,16.37636 -3.32699,0.62431 9.69384,5.66156 8.71077,-1.77136 8.6828,-10.26328 6.75561,-11.42445 12.60718,-12.7 7.68806,-3.66218 16.87858,-10.53958 21.4856,-8.07444 8.83458,-4.01942 8.44002,-5.79114 18.59606,-6.23233 -0.63104,13.24573 14.7652,0.94158 10.81125,-5.89624 0.95006,-8.64752 27.0994,-6.78864 21.97192,4.17011 -1.17999,8.03109 13.24448,-5.8802 13.06088,11.29517 2.97313,19.34356 13.93698,-3.8598 15.00883,-5.21414 10.02934,12.90548 6.89183,-4.0402 9.39892,-4.3549 3.18653,4.41732 6.38976,5.07472 7.2318,10.38722 -11.3747,-3.47571 2.98572,21.24838 5.16557,18.697 6.29593,4.32475 5.82465,1.85219 10.37956,-8.64249 9.58392,-2.48346 0.38452,-22.61412 8.21651,-23.5579 8.28582,1.68964 5.78404,-7.45154 6.19868,7.18561 1.36586,15.71398 0.48577,-3.07983 9.29804,6.31778 -14.27541,7.44967 5.37691,6.19717 2.57107,16.48306 9.32155,0.78025 -9.82635,10.93515 0.52827,9.10615 9.02521,-0.50909 8.97909,-22.00016 14.8404,-4.81477 -1.3332,-12.20186 -0.53972,-15.11816 0.65632,-22.85189 -8.01092,-1.21593 5.87834,-15.91066 10.67309,-7.97326 7.79489,9.99175 21.66274,-5.5384 20.99429,-8.64629 10.79207,-0.0371 12.41418,-5.83793 16.889,-1.6986 7.53598,2.47921 8.39854,9.44671 17.56295,12.08582 -7.61609,-10.23115 -0.34623,-20.94794 2.83546,-5.08712 -0.30514,16.35054 4.60814,2.39786 3.70518,-2.88614 0.44482,3.83651 2.37918,-8.0963 11.02231,-1.37524 -8.58634,-3.90054 -8.31674,-14.94384 -18.37069,-14.28611 -8.13483,0.57015 2.04868,-10.55878 8.26769,-7.93168 7.3273,-3.55569 18.18461,1.45721 3.90451,-5.82756 -4.7831,4.10465 1.5723,-19.81832 8.26472,-12.46482 2.31159,-5.12257 34.80018,2.70879 19.62923,6.23234 -13.1269,-1.6064 -4.64218,15.07575 1.01488,6.25059 -4.4477,3.94632 13.63402,4.76948 6.96998,-1.59091 5.42293,-2.073 -1.5577,-11.86798 10.61987,-6.73025 11.29729,11.43796 7.99519,-6.98763 13.61249,-15.97081 4.64587,-12.97116 -16.99713,-17.18796 -18.03367,-8.43148 1.45758,6.81661 -1.39541,13.86488 1.31312,19.58064 -6.87884,5.50937 -14.96566,-8.99416 -15.28078,-17.17566 -0.026,-12.96681 19.65852,-6.02387 12.20317,-25.75974 4.02207,-3.70907 7.29063,-9.92428 14.91593,-8.34083 4.25313,-3.38314 8.93797,-8.13987 17.08889,-10.23709 2.66406,-4.795 4.66453,-19.23154 13.28165,-7.22044 14.71949,11.98027 10.07829,0.0974 -1.08203,-4.79385 -11.50371,-16.72919 -12.26493,17.79595 -17.80796,-4.73959 -6.80283,-13.00297 6.86617,-16.96567 -3.05916,-25.17432 4.95902,-4.81783 -11.1331,-10.96494 5.891,-10.09312 6.27056,-4.35869 36.18248,7.66749 25.98324,-0.0162 -16.60817,1.74964 -3.6041,-12.69963 -10.80937,-17.707 2.42279,-9.38631 -5.56639,-9.10253 -3.09934,-16.61955 -10.68813,-8.50849 -2.60072,-4.81151 0.64569,-16.29496 -0.84156,-6.31391 -11.56405,-2.6219 -2.1402,-14.31183 -2.78885,-11.50951 1.52042,-17.76242 9.61943,-22.11565 -2.62562,-2.39076 32.67839,-2.85452 9.68782,-5.44601 -6.92027,1.43566 -19.52928,-2.8483 -22.97832,2.07745 -10.26096,-1.33266 -18.21332,0.0922 -13.43049,9.82514 -0.84781,13.30636 -31.46311,6.92797 -22.28267,-0.78273 8.25883,-6.81987 -10.10027,-2.71946 -13.87634,-6.96497 4.68976,-5.58314 2.70996,-10.63504 -0.8917,-10.99941 -1.22075,-8.06584 11.36429,-12.67517 21.45714,-19.29395 3.40731,-8.22152 -10.24563,1.49028 -12.30052,-3.98447 4.90567,-8.93689 -6.47839,-7.80701 2.75013,-12.09898 7.99173,-6.54384 22.14626,-15.99702 30.0585,-19.20345 6.15974,-12.32699 17.35956,-19.416148 29.47134,-25.162843 21.19696,-1.33748 1.23862,-7.015915 -8.40063,-2.932594 -6.55631,3.439033 -14.67635,11.667547 -21.4008,18.692937 -4.71376,13.16633 -34.21915,15.89396 -30.67664,19.56734 -15.57877,6.78506 -1.36053,-4.27109 -1.8019,-10.02408 0.96984,-12.92273 -19.57149,-3.59054 -7.58192,4.48957 -0.79983,3.54127 -12.95253,15.9862 -14.11349,8.25614 -5.51135,1.48207 -18.15861,5.90029 -11.11322,-1.46052 -0.20196,-9.02241 5.22029,-20.2497 13.81362,-28.97359 9.29713,-0.58814 4.12528,-14.616565 13.82944,-11.39582 8.151,-21.906132 -7.46068,-4.272514 -13.15204,7.18382 -7.41598,-4.561711 -14.49254,23.51032 -11.61658,10.09586 1.71088,-14.569809 -8.59684,-19.327687 -14.81259,-6.762622 -13.60124,3.467412 -12.12036,20.427222 -18.64852,18.376042 -3.16053,-14.21274 -10.80762,6.1026 -8.75904,-13.86409 -3.45278,-6.199169 0.4285,-13.606303 6.48086,-10.141489 9.56453,-8.490152 -10.66212,-0.66016 -4.17573,-6.155427 -14.21151,3.436187 19.46325,-13.039973 3.59468,-18.066121 6.91168,-8.011571 2.83686,-17.8791 -0.55449,-23.999532 6.40714,-21.648913 -12.82576,-8.415821 -8.53019,6.443007 2.24872,14.083245 -22.62758,18.394805 -16.60799,-0.503448 -16.61762,-3.512823 -5.2318,27.322892 -4.13246,31.54051 -7.11175,-1.526413 -16.99407,-1.25889 -15.62586,13.968503 2.99615,13.484167 -19.92491,9.119347 -15.95484,9.237177 -4.29454,-2.90153 0.61232,-15.320366 -9.10809,-14.129482 -10.9544,4.989052 4.81835,-21.87926 -1.97722,-27.457853 2.2027,-11.761576 -6.94189,-28.003026 -9.02403,-6.96913 -1.55447,8.289575 -0.68927,24.905599 -12.36306,21.855775 -10.8171,-14.324738 -9.99262,17.512718 -19.49197,20.31189 -15.39196,8.01799 -16.45004,-31.294757 -11.99599,-29.163185 11.20887,17.097098 0.85864,-26.156074 -5.70417,-9.845705 2.30188,-10.691298 5.73193,-12.691399 -5.16557,-23.890611 2.63619,12.009966 2.77938,20.711051 -9.11577,15.580833 -5.85876,3.783868 -0.53739,10.37562 -5.36217,14.058212 0.13319,2.009637 -15.07943,-2.287952 -6.82198,7.6738 -6.22417,-2.079169 5.5765,7.075775 -4.52795,0.08112 -6.30868,-6.822837 -8.57469,-10.658038 -13.43049,-11.425945 13.8188,1.331466 -0.0966,-26.893941 -6.71524,-19.281281 -5.74761,11.089773 -17.78888,6.831292 -20.86234,-4.857782 -1.60782,-4.040203 1.38291,-12.857293 -4.44897,-13.254905 z m 271.70914,50.897388 c 13.2311,-1.062893 1.23999,-13.574749 0,0 z m 15.49672,73.749277 c 16.43263,2.478 12.78329,-13.33973 0,0 z M 473.16649,25.983025 c -6.83824,10.823558 -5.1682,1.765682 -14.93767,1.038722 -3.35105,2.528686 5.63579,7.588167 6.71311,11.245383 7.33933,-0.872267 15.85032,-6.499576 8.25358,-12.276814 z m -24.79475,13.503388 c -15.15705,5.414724 -11.24596,8.715056 -17.56295,22.851889 10.29884,-3.399779 16.73275,-19.169514 17.56295,-22.851889 z m -204.1047,3.830289 c -17.80582,2.062507 9.74859,28.381495 7.4942,6.628304 0.72676,-4.912595 -3.72554,-6.9144 -7.4942,-6.628304 z m 226.83322,14.866711 c -1.45463,8.834208 8.76193,-1.389851 0,0 z m -2.06623,3.116167 c -2.26479,19.270115 10.71823,0.11213 0,0 z M 134.3049,62.338302 c -1.0762,8.684767 10.05863,23.689006 9.29803,8.493029 -5.78562,-10.410468 0.53941,5.121555 -9.29803,-8.493029 z m 219.13934,2.757081 c 1.44625,2.303709 -1.63499,-0.451076 0,0 z m 141.41766,9.707586 c -10.29927,-1.476575 -25.79461,20.243429 -11.99406,10.157665 3.20413,-1.602614 11.8826,-5.874027 11.99406,-10.157665 z M 88.847856,79.99658 c 3.464953,14.674694 9.300886,4.37675 0,0 z m 22.728524,1.038722 c -0.24672,16.472105 10.82729,-1.303679 0,0 z M 455.78514,110.1175 c -0.35198,0.62807 -0.28866,-0.22969 0,0 z m -3.28094,3.11819 c 1.25621,-0.42914 -1.30931,1.83445 0,0 z M 4.1324587,125.70036 c 1.2183418,7.65386 26.9564493,12.35178 8.5731563,3.50066 l -4.1411256,-1.9889 z m 16.5298333,8.30977 c 2.650084,10.91201 14.277644,-3.50018 0,0 z m 465.559378,25.04903 c -16.4904,15.8365 18.08407,10.07805 0,0 z M 0,180.75263 c 4.9594257,8.99239 48.391088,14.03366 17.925127,3.24276 C 11.990597,182.69812 5.9832629,181.78431 0,180.75263 Z m 14.463605,20.77445 c 3.564069,5.37291 12.642316,9.13276 17.562948,4.81477 -5.685302,0.0159 -11.045266,-4.86925 -17.562948,-4.81477 z m 479.881735,40.25049 c -22.10456,8.81035 20.24738,16.61438 0,0 z m -458.186329,19.9954 c -15.328848,0.14218 0.02841,10.14792 -20.04857,9.17264 -12.1907212,-0.39145 -23.9559133,8.65758 -4.903958,4.03331 7.208661,-2.69334 31.833154,-5.07583 28.348645,-8.73797 -11.637985,1.04589 -3.782057,0.83057 -3.396117,-4.46798 z M 445.2724,282.54741 c 6.05325,2.54607 0.0553,20.50314 0,0 z M 15.496719,333.4448 c -11.1176868,-0.66828 -19.1628192,17.06379 -4.132458,6.89221 -6.1090753,-3.59689 6.00254,-2.22517 4.132458,-6.89221 z m 457.798911,18.63208 c -19.92887,-0.40109 -19.12452,36.14184 2.97022,30.18787 12.92892,-6.40183 10.5517,-26.56608 -2.97022,-30.18787 z M 26.86098,362.52902 c -10.361179,-1.42553 -3.542684,12.02544 0,0 z m -6.198688,5.19361 c -3.905225,5.39904 -18.0876564,11.80817 -10.012337,10.38723 -0.353604,7.04337 13.736488,-3.68352 8.656374,-5.45329 0.605168,-1.88406 6.071408,-4.04496 1.355963,-4.93394 z m 412.212728,34.27784 c -8.27054,8.1593 1.05321,13.00726 -8.06314,16.66014 2.64282,15.61565 19.02634,-6.15513 15.89225,-13.98035 -1.92401,-2.54066 -5.00845,-2.5844 -7.82911,-2.67979 z m -384.318633,9.3485 c -6.942314,1.1544 -19.625996,18.27177 -6.449725,13.36263 -4.866641,-7.24153 5.206444,-2.34449 9.18535,1.86709 8.212662,-6.53165 -1.499132,-7.47478 -2.735625,-15.22972 z m 368.821913,1.03872 c -7.39405,3.16323 -2.07732,7.80038 5.16558,6.23233 3.83471,1.04329 -3.33803,-8.03624 -5.16558,-6.23233 z m -70.25179,23.89061 c -4.09989,3.00636 2.57013,17.40797 9.29803,13.50339 -2.8386,-2.23138 -5.56377,-9.55596 -9.29803,-13.50339 z m -78.51671,21.81317 c -5.67401,9.23336 1.62352,11.31124 3.86761,7.56463 -0.23031,-2.91008 -1.04933,-6.0316 -3.86761,-7.56463 z m -62.48931,1.623 c -18.65701,7.87867 -4.13619,29.40635 11.86669,22.26761 17.69579,2.21996 -4.51547,-23.81013 -11.86669,-22.26761 z m 19.66751,32.95712 c -15.24252,5.36316 15.55839,13.38669 0,0 z"
     style="fill:#000000;fill-opacity:1;stroke:none;stroke-width:3;stroke-opacity:1;stroke-dasharray:none"
     sodipodi:nodetypes="cccccccccccccccscccccccccccccccccccccccccccccccccccccccccccccccccccccccccccccccccccccccccccccccccccccccccccccccccccccccccccccccccccccccccccccccccccccccccccccccsscccccccccccccccccccccccccccccccccccccccccccccccccccccccccccccccccccccccccccccccccccccccccccc" />
</svg>
