<?xml version="1.0" encoding="UTF-8" standalone="no"?>
<svg
   version="1.1"
   width="100"
   height="100"
   id="svg15"
   sodipodi:docname="ç».svg"
   xml:space="preserve"
   inkscape:version="1.3 (0e150ed6c4, 2023-07-21)"
   xmlns:inkscape="http://www.inkscape.org/namespaces/inkscape"
   xmlns:sodipodi="http://sodipodi.sourceforge.net/DTD/sodipodi-0.dtd"
   xmlns="http://www.w3.org/2000/svg"
   xmlns:svg="http://www.w3.org/2000/svg"><defs
     id="defs15" /><sodipodi:namedview
     id="namedview15"
     pagecolor="#ffffff"
     bordercolor="#000000"
     borderopacity="0.25"
     inkscape:showpageshadow="2"
     inkscape:pageopacity="0.0"
     inkscape:pagecheckerboard="0"
     inkscape:deskcolor="#d1d1d1"
     inkscape:zoom="5.7153846"
     inkscape:cx="14.434724"
     inkscape:cy="42.254374"
     inkscape:window-width="1920"
     inkscape:window-height="974"
     inkscape:window-x="-11"
     inkscape:window-y="-11"
     inkscape:window-maximized="1"
     inkscape:current-layer="g1" /><g
     id="g1"><path
       id="path4"
       style="color:#000000;fill:#ffffff;-inkscape-stroke:none;paint-order:stroke fill markers"
       sodipodi:type="inkscape:offset"
       inkscape:radius="1.863461"
       inkscape:original="M 46.5 8.8398438 L 46.298828 9.734375 C 44.909098 15.919847 40.41026 21.050417 37.871094 27.380859 L 37.910156 27.292969 C 35.703715 31.550216 32.865447 35.567653 30.667969 40.054688 L 30.605469 40.181641 L 30.580078 40.322266 C 30.214039 42.414926 30.303626 44.645042 31.056641 46.625 C 31.809655 48.604958 33.28515 50.335072 35.53125 51.1875 L 35.248047 51.023438 C 36.350835 51.93712 36.854365 52.828855 37.074219 53.783203 C 37.294072 54.737551 37.207905 55.795785 36.931641 56.955078 C 36.379112 59.273664 35.04589 61.881026 34.609375 64.59375 L 34.591797 64.707031 L 34.599609 64.822266 C 34.825071 68.09587 34.755693 71.787443 35.326172 75.357422 C 35.89665 78.9274 37.142124 82.425063 40.046875 85.113281 L 40.048828 85.115234 L 40.050781 85.117188 C 43.240249 88.032026 47.122177 89.078263 51.029297 89.5 C 54.936417 89.921737 58.919361 89.75111 62.501953 90.132812 L 62.525391 90.134766 L 62.550781 90.136719 C 70.175812 90.579854 78.408289 90.738131 85.574219 86.816406 C 89.547891 84.781533 93.96205 81.842371 95.513672 77.119141 L 95.542969 77.027344 L 95.556641 76.931641 C 95.992913 73.458528 94.939685 70.3327 93.830078 67.371094 C 92.720471 64.409488 91.555395 61.586747 91.449219 58.671875 L 91.445312 58.541016 L 91.40625 58.416016 C 91.26246 57.943578 91.211222 56.917946 91.230469 55.822266 C 91.249719 54.726585 91.31328 53.54425 91.25 52.513672 C 91.21836 51.998383 91.16142 51.521574 91.003906 51.060547 C 90.846396 50.59952 90.534276 50.065017 89.927734 49.832031 C 89.321192 49.599046 88.700057 49.773771 88.179688 50.064453 C 87.659319 50.355137 87.140807 50.792835 86.523438 51.417969 L 86.476562 51.464844 L 86.435547 51.517578 C 83.142212 55.889863 82.152829 61.262956 79.953125 65.673828 L 79.916016 65.746094 L 79.892578 65.824219 C 78.210971 71.225186 73.073769 74.804575 67.566406 75.863281 L 67.609375 75.857422 C 59.558482 77.043529 51.718957 79.767248 43.998047 78.365234 C 43.697863 76.706365 43.212809 74.754334 43.072266 72.964844 C 42.991906 71.941634 43.037966 71.016042 43.240234 70.357422 C 43.441825 69.701022 43.719472 69.336251 44.263672 69.095703 C 49.458247 67.833904 54.628813 65.941207 59.042969 62.689453 C 59.612486 62.28031 60.233692 62.162971 61.013672 62.185547 C 61.793652 62.208127 62.69013 62.397371 63.621094 62.548828 C 64.552058 62.700286 65.536262 62.830202 66.539062 62.546875 C 67.541864 62.263595 68.465834 61.471509 69.003906 60.230469 C 73.118081 54.589465 74.132235 47.72569 76.488281 41.818359 C 77.464238 41.016684 78.130097 40.037081 78.363281 38.980469 C 78.624222 37.798089 78.436791 36.590109 77.984375 35.492188 C 77.133795 33.42801 75.336004 31.741385 73.236328 30.957031 C 71.356293 28.673096 68.769781 28.05071 66.345703 28.363281 C 63.883389 28.680782 61.498735 29.810484 59.513672 30.847656 C 59.138079 30.969989 58.68659 31.164725 58.214844 31.367188 C 59.751366 29.552644 60.24332 27.139162 59.669922 25.087891 C 59.311807 23.806772 58.52816 22.644231 57.326172 21.958984 C 56.241056 21.340366 54.830308 21.228565 53.289062 21.578125 C 53.103615 21.496565 52.941225 21.411003 52.90625 21.367188 C 52.86071 21.310137 52.839021 21.273607 52.837891 21.113281 C 52.835591 20.792635 53.076182 20.06675 53.457031 19.242188 C 53.83788 18.417625 54.323219 17.481488 54.632812 16.478516 C 54.909087 15.583487 54.983146 14.575659 54.642578 13.603516 C 54.623428 12.562131 54.34118 11.652381 53.804688 10.990234 C 53.251734 10.307907 52.507359 9.8998864 51.753906 9.6425781 C 50.247002 9.1279615 48.594449 9.1232722 47.408203 8.9628906 L 46.5 8.8398438 z M 47.947266 11.064453 C 49.07674 11.182594 50.274818 11.25015 51.109375 11.535156 C 51.633082 11.714005 52.006329 11.946847 52.251953 12.25 C 52.497577 12.553153 52.666941 12.95638 52.667969 13.6875 L 52.667969 13.914062 L 52.767578 14.119141 C 52.976962 14.553325 52.956341 15.125274 52.720703 15.888672 C 52.48506 16.65207 52.046732 17.529278 51.642578 18.404297 C 51.238424 19.279316 50.830917 20.13726 50.837891 21.126953 C 50.841391 21.6218 50.990286 22.172932 51.341797 22.613281 C 51.693307 23.05363 52.198157 23.351726 52.785156 23.542969 L 53.080078 23.640625 L 53.378906 23.550781 C 54.719863 23.153048 55.65292 23.307881 56.335938 23.697266 C 57.018955 24.08665 57.500418 24.762044 57.742188 25.626953 C 58.225729 27.356771 57.633797 29.698299 55.779297 30.974609 L 55.712891 31.019531 L 55.65625 31.074219 C 55.183342 31.525537 54.848274 31.879115 54.603516 32.201172 C 54.481136 32.362201 54.379484 32.51289 54.292969 32.707031 C 54.206459 32.901172 54.099957 33.168846 54.203125 33.5625 C 54.306289 33.956154 54.709544 34.277799 54.978516 34.361328 C 55.247488 34.444858 55.429117 34.430383 55.595703 34.414062 C 55.928875 34.381422 56.216467 34.293525 56.541016 34.185547 C 57.190113 33.969591 57.941011 33.647379 58.632812 33.351562 C 59.324615 33.055746 59.986607 32.780608 60.232422 32.707031 L 60.324219 32.679688 L 60.408203 32.634766 C 62.335387 31.626732 64.578314 30.608543 66.601562 30.347656 C 68.624813 30.08677 70.327387 30.454402 71.789062 32.314453 L 71.982422 32.560547 L 72.28125 32.652344 C 73.868644 33.139165 75.478356 34.6562 76.136719 36.253906 C 76.4659 37.052759 76.565253 37.846048 76.410156 38.548828 C 76.255059 39.251608 75.86792 39.898615 75.029297 40.490234 L 74.787109 40.660156 L 74.677734 40.933594 C 72.130101 47.250952 71.155984 54.044232 67.285156 59.234375 L 67.214844 59.328125 L 67.167969 59.435547 C 66.806584 60.269064 66.472071 60.486084 65.994141 60.621094 C 65.51621 60.756104 64.797793 60.713539 63.941406 60.574219 C 63.085019 60.434894 62.10965 60.21563 61.070312 60.185547 C 60.030975 60.155467 58.884067 60.340939 57.876953 61.064453 L 57.871094 61.068359 L 57.867188 61.072266 C 53.708004 64.139284 48.734389 65.977423 43.632812 67.203125 L 43.544922 67.224609 L 43.462891 67.259766 C 42.35271 67.747133 41.649767 68.722233 41.328125 69.769531 C 41.006483 70.81683 40.986885 71.961319 41.078125 73.123047 C 41.260605 75.446502 41.922328 77.903541 42.152344 79.4375 L 42.253906 80.123047 L 42.933594 80.267578 C 51.578428 82.106501 59.91069 79.013031 67.900391 77.835938 L 67.921875 77.832031 L 67.943359 77.828125 C 74.042819 76.655597 79.851437 72.676025 81.800781 66.421875 C 84.110753 61.727644 85.13721 56.612322 88 52.777344 C 88.496635 52.2828 88.895352 51.964945 89.130859 51.830078 C 89.180329 52.013478 89.231431 52.270709 89.253906 52.636719 C 89.305716 53.480507 89.250509 54.644574 89.230469 55.787109 C 89.210769 56.908833 89.210689 57.98895 89.488281 58.941406 C 89.655352 62.246956 90.888333 65.219848 91.957031 68.072266 C 93.035603 70.951037 93.901947 73.693673 93.566406 76.583984 C 92.261299 80.40675 88.418516 83.115536 84.642578 85.046875 L 84.628906 85.054688 L 84.617188 85.060547 C 78.041198 88.66097 70.232073 88.578379 62.666016 88.138672 L 62.714844 88.142578 C 58.920321 87.738296 54.941955 87.911074 51.242188 87.511719 C 47.54428 87.112564 44.175378 86.174856 41.404297 83.644531 L 41.402344 83.642578 C 41.402344 83.642578 41.400391 83.640625 41.400391 83.640625 C 38.920914 81.343766 37.832318 78.367303 37.300781 75.041016 C 36.776966 71.763047 36.827522 68.194619 36.605469 64.839844 C 36.981527 62.606223 38.248796 60.053919 38.876953 57.417969 C 39.194083 56.087192 39.340221 54.709086 39.023438 53.333984 C 38.706655 51.958882 37.905401 50.627406 36.523438 49.482422 L 36.394531 49.376953 L 36.240234 49.318359 C 34.543416 48.674392 33.516749 47.467938 32.925781 45.914062 C 32.348424 44.395973 32.255004 42.548221 32.542969 40.791016 C 34.639182 36.549461 37.4206 32.583024 39.685547 28.212891 L 39.708984 28.169922 L 39.726562 28.125 C 41.983266 22.498771 46.222803 17.446478 47.947266 11.064453 z M 14.103516 11.410156 L 14.03125 12.355469 C 13.505972 19.409782 8.3863535 25.138455 5.2070312 31.871094 C 3.9014694 33.939702 2.3769248 36.411804 1.5898438 39.070312 C 0.81970061 41.671611 0.8294351 44.546473 2.5566406 47.117188 C 3.0341235 48.246113 4.02508 48.880515 4.96875 49.263672 C 5.9201073 49.64995 6.8984243 49.848316 7.6191406 50.070312 C 8.3398569 50.29231 8.6201838 50.548571 8.6171875 50.541016 C 8.6156875 50.537216 8.650818 50.572526 8.5625 50.820312 C 8.474182 51.068095 8.2480818 51.479964 7.8300781 52.017578 L 7.7402344 52.132812 L 7.6855469 52.269531 C 6.3681209 55.672274 3.4118479 58.352409 1.6015625 62.087891 L 1.59375 62.103516 L 1.5859375 62.119141 C 0.54318517 64.475595 0.80802406 67.550145 2.0371094 69.923828 C 2.651652 71.11067 3.5413413 72.142248 4.75 72.699219 C 5.9586587 73.25619 7.4573573 73.25728 8.9648438 72.5625 L 9.2324219 72.439453 L 13.511719 65.724609 C 13.503119 67.204257 13.268343 68.682197 12.666016 70.154297 C 11.705693 72.501345 10.162643 74.781742 8.7246094 76.8125 L 8.5488281 77.0625 L 8.5410156 77.367188 C 8.4201191 82.394573 11.231084 88.442966 16.298828 90.416016 L 16.376953 90.447266 L 16.460938 90.462891 C 17.977661 90.775992 19.321776 90.509601 20.339844 89.828125 C 21.357911 89.146651 22.036456 88.136159 22.566406 87.060547 C 23.626307 84.909323 24.188653 82.355583 24.960938 80.912109 L 25.003906 80.832031 L 25.03125 80.744141 C 27.231904 73.87898 30.049563 67.210683 32.685547 60.425781 L 32.628906 60.544922 C 33.434386 59.082479 33.937684 56.725601 33.853516 54.917969 C 33.832476 54.466061 33.780336 54.04633 33.597656 53.625 C 33.414978 53.20367 32.954694 52.693514 32.332031 52.628906 C 31.709368 52.564296 31.239939 52.845737 30.818359 53.191406 C 30.39678 53.537075 29.979919 54.009485 29.5 54.660156 L 29.732422 54.435547 C 27.899734 55.715723 26.875126 58.052996 25.746094 59.869141 C 25.181577 60.777213 24.610215 61.547624 24.076172 61.986328 C 23.63404 62.349529 23.2587 62.387151 22.808594 62.355469 C 21.490446 60.269768 19.535368 58.923645 18.173828 57.855469 C 20.477096 53.523597 23.006999 48.383051 21.4375 43.007812 L 21.361328 42.746094 L 21.164062 42.560547 C 19.799765 41.277168 19.020792 39.677917 18.933594 38.148438 C 18.846394 36.61896 19.39529 35.141745 20.882812 33.884766 L 21.033203 33.755859 L 21.125 33.580078 C 22.102809 31.696987 23.997718 29.571351 25.324219 27.208984 C 26.650719 24.846618 27.356996 21.983946 25.623047 19.164062 L 25.621094 19.162109 L 25.619141 19.158203 C 23.393032 15.590476 20.045005 11.536152 15.050781 11.429688 L 14.103516 11.410156 z M 15.783203 13.605469 C 19.284872 14.094029 21.964476 17.079724 23.921875 20.216797 C 25.23742 22.36094 24.747206 24.149976 23.580078 26.228516 C 22.411888 28.308947 20.514588 30.41661 19.349609 32.660156 L 19.591797 32.355469 C 17.67515 33.975064 16.816805 36.144702 16.9375 38.261719 C 17.050233 40.239082 18.029408 42.122358 19.527344 43.662109 C 20.84624 48.353845 18.393442 53.229513 16.025391 57.660156 L 15.650391 58.359375 L 16.248047 58.882812 C 17.93558 60.361703 20.407101 61.853567 21.441406 63.867188 L 21.65625 64.285156 L 22.117188 64.386719 C 23.338881 64.653881 24.497332 64.228168 25.345703 63.53125 C 26.194075 62.834332 26.838566 61.899833 27.445312 60.923828 C 28.658808 58.971818 29.792475 56.831752 30.876953 56.074219 L 31.011719 55.980469 L 31.109375 55.847656 C 31.429484 55.413653 31.645808 55.204958 31.853516 55.001953 C 31.853726 55.006153 31.855269 55.005566 31.855469 55.009766 C 31.913219 56.250083 31.341542 58.736563 30.876953 59.580078 L 30.845703 59.638672 L 30.820312 59.701172 C 28.198474 66.449663 25.364005 73.156058 23.126953 80.134766 L 23.197266 79.96875 C 22.186664 81.857661 21.662576 84.36718 20.771484 86.175781 C 20.325939 87.080082 19.812365 87.773892 19.226562 88.166016 C 18.660728 88.544775 17.999399 88.70204 16.958984 88.507812 C 13.118091 86.959808 10.566863 81.791226 10.570312 77.650391 C 11.969371 75.665584 13.498079 73.403786 14.517578 70.912109 C 15.588441 68.294899 16.091442 65.394605 15.154297 62.474609 L 14.503906 60.447266 L 7.9023438 70.804688 C 6.9476593 71.186768 6.2173535 71.172881 5.5878906 70.882812 C 4.9043931 70.567846 4.2793595 69.905533 3.8125 69.003906 C 2.8806378 67.204238 2.7171326 64.526555 3.4140625 62.939453 C 4.9906198 59.70198 7.9716425 56.987294 9.515625 53.064453 C 9.9336642 52.504519 10.267426 51.99126 10.445312 51.492188 C 10.643586 50.935916 10.685684 50.330067 10.476562 49.802734 C 10.058319 48.748068 9.0688866 48.425026 8.2089844 48.160156 C 7.3490821 47.895286 6.4353061 47.699512 5.7226562 47.410156 C 5.0100064 47.1208 4.5812968 46.799085 4.3886719 46.332031 L 4.3457031 46.228516 L 4.28125 46.136719 C 2.832083 44.083219 2.8269681 41.936394 3.5078125 39.636719 C 4.1886569 37.337043 5.6034955 34.98814 6.8964844 32.939453 L 6.9316406 32.886719 L 6.9570312 32.830078 C 9.8034126 26.749658 14.781641 20.992825 15.783203 13.605469 z M 47.294922 28.632812 C 46.714748 28.617992 46.118634 28.702882 45.511719 28.769531 L 45.154297 28.808594 L 44.904297 29.066406 C 40.848112 33.239363 39.254527 39.069419 38.835938 44.544922 L 38.681641 46.574219 L 40.382812 45.457031 C 44.872546 42.508865 47.722926 37.730006 49.1875 32.777344 L 49.083984 33.013672 C 49.569474 32.214922 49.857474 31.556196 49.892578 30.861328 C 49.927688 30.16646 49.525228 29.424303 48.982422 29.09375 C 48.439615 28.763197 47.875096 28.64763 47.294922 28.632812 z M 46.107422 30.765625 C 46.957642 30.726255 47.773813 30.759628 47.876953 30.798828 C 47.863443 30.9427 47.756705 31.34661 47.375 31.974609 L 47.306641 32.085938 L 47.269531 32.210938 C 46.140216 36.029877 44.081582 39.608842 41.162109 42.232422 C 41.79712 37.984776 43.262275 33.845481 46.107422 30.765625 z M 64.001953 34.978516 L 63.945312 34.980469 L 63.191406 35.009766 L 63.072266 35.044922 C 59.689729 36.039482 56.534146 38.335424 54.416016 41.033203 L 54.177734 41.337891 L 54.205078 41.720703 C 54.321052 43.384521 54.959931 44.804596 55.449219 46.109375 C 55.938506 47.414154 56.281988 48.572436 56.105469 49.785156 L 56.115234 49.726562 C 55.994448 50.313614 55.960786 50.846936 56.068359 51.357422 C 56.175928 51.867908 56.4662 52.3582 56.882812 52.667969 C 57.691097 53.26896 58.648524 53.214532 59.646484 53.023438 C 60.632819 53.150723 61.555937 53.001547 62.283203 52.568359 C 63.085428 52.090528 63.654223 51.375537 64.095703 50.615234 C 64.978663 49.094629 65.430515 47.295259 65.896484 46.117188 L 65.914062 46.070312 L 65.927734 46.023438 C 66.384646 44.422682 67.543943 42.063723 67.900391 39.867188 C 68.078614 38.768921 68.068318 37.621978 67.4375 36.648438 C 66.806682 35.674898 65.617133 35.102862 64.058594 34.982422 L 64.001953 34.978516 z M 63.931641 36.982422 C 65.097273 37.078022 65.535928 37.390879 65.759766 37.736328 C 65.985835 38.085221 66.063961 38.695368 65.925781 39.546875 C 65.653256 41.226258 64.584591 43.495397 64.03125 45.392578 C 63.48814 46.768634 63.03639 48.455485 62.365234 49.611328 C 62.288694 49.74315 62.193444 49.77735 62.113281 49.892578 L 61.195312 49.75 L 61.101562 50.347656 L 61.001953 50.697266 L 60.921875 50.875 L 60.904297 50.896484 C 60.578817 51.026107 60.272207 51.157498 59.732422 51.052734 L 59.539062 51.015625 L 59.345703 51.054688 C 58.549198 51.213636 58.11176 51.090883 58.076172 51.064453 C 58.058382 51.051223 58.052461 51.071853 58.025391 50.943359 C 57.998321 50.814899 57.989859 50.540873 58.074219 50.130859 L 58.080078 50.101562 L 58.083984 50.072266 C 58.339078 48.319726 57.837032 46.778973 57.322266 45.40625 C 56.859302 44.171668 56.463871 43.064194 56.3125 41.966797 C 58.156404 39.759879 60.834968 37.818679 63.568359 36.996094 L 63.931641 36.982422 z M 52.419922 41.222656 L 51.351562 41.814453 C 47.962925 43.689655 44.453387 45.611594 41.412109 48.267578 C 40.832024 48.684284 40.395985 49.140343 40.162109 49.705078 C 39.926699 50.273518 39.961785 50.914006 40.152344 51.414062 C 40.533531 52.414178 41.308351 53.052751 42.011719 53.712891 C 42.715086 54.37303 43.37104 55.024571 43.644531 55.552734 C 43.918023 56.080898 43.987426 56.355556 43.484375 57.060547 L 43.529297 57.003906 C 43.178602 57.427905 42.926419 57.781982 42.818359 58.279297 C 42.764329 58.527954 42.759986 58.840538 42.884766 59.140625 C 43.009538 59.440712 43.258828 59.677086 43.490234 59.802734 C 43.953047 60.054031 44.334882 60.032317 44.71875 60 C 45.102618 59.96768 45.496125 59.881094 45.90625 59.761719 C 46.726499 59.522968 47.605972 59.147543 48.376953 58.701172 C 49.142432 58.257986 49.820188 57.839609 50.208984 57.019531 C 52.694029 52.751863 54.36585 47.370501 52.789062 42.388672 L 52.419922 41.222656 z M 51.082031 44.275391 C 51.807644 48.176811 50.550287 52.494565 48.451172 56.078125 L 48.425781 56.119141 L 48.40625 56.160156 C 48.41832 56.134226 47.988584 56.61546 47.375 56.970703 C 46.761416 57.325947 45.986351 57.655891 45.347656 57.841797 C 45.304556 57.854347 45.282006 57.852091 45.240234 57.863281 C 45.861587 56.753268 45.886603 55.534062 45.419922 54.632812 C 44.903872 53.636223 44.080907 52.91093 43.380859 52.253906 C 42.680812 51.596882 42.126776 50.979378 42.021484 50.703125 C 41.968834 50.564999 41.972156 50.561522 42.009766 50.470703 C 42.047376 50.379883 42.189178 50.167064 42.583984 49.884766 L 42.625 49.855469 L 42.662109 49.822266 C 45.150338 47.635508 48.093121 45.939551 51.082031 44.275391 z M 61.59375 50.451172 L 61.611328 50.455078 C 61.611328 50.455078 61.611328 50.457031 61.611328 50.457031 L 61.59375 50.451172 z "
       d="m 46.75,6.9941406 a 1.8636474,1.8636474 0 0 0 -2.068359,1.4375 L 44.480469,9.3261719 C 43.247746,14.81283 38.962618,19.851008 36.261719,26.431641 a 1.8636474,1.8636474 0 0 0 -0.0059,0.0039 c -2.126408,4.102826 -4.978719,8.137166 -7.261718,12.798828 l -0.06055,0.125 a 1.8636474,1.8636474 0 0 0 -0.16211,0.490234 l -0.02539,0.140625 a 1.8636474,1.8636474 0 0 0 -0.002,0.01172 c -0.413646,2.364828 -0.330514,4.916547 0.570312,7.285156 0.510001,1.340984 1.391465,2.551166 2.490234,3.59961 C 30.882629,51.007205 30.080989,51.385726 29.636719,51.75 29.037168,52.241595 28.530141,52.835926 28,53.554687 a 1.8636474,1.8636474 0 0 0 0.0078,0.06641 c -1.876565,1.672806 -2.946591,3.820515 -3.84375,5.263672 -0.367154,0.590598 -0.639187,0.878007 -0.904296,1.18164 -0.95758,-1.125082 -1.854101,-2.037113 -2.742188,-2.724609 2.14956,-4.164837 4.340123,-9.269127 2.708984,-14.855469 l -0.07617,-0.261719 a 1.8636474,1.8636474 0 0 0 -0.511719,-0.835937 l -0.197266,-0.185547 c -1.059403,-0.996568 -1.590981,-2.186623 -1.646484,-3.160156 -0.05802,-1.01773 0.180638,-1.796089 1.291015,-2.734375 a 1.8636474,1.8636474 0 0 0 0.0098,-0.0098 l 0.150391,-0.128906 a 1.8636474,1.8636474 0 0 0 0.439453,-0.550781 l 0.0918,-0.175782 a 1.8636474,1.8636474 0 0 0 0.002,-0.0039 c 0.788361,-1.518247 2.706134,-3.711499 4.169922,-6.318359 1.500374,-2.672018 2.402645,-6.42941 0.269531,-9.916016 a 1.8636474,1.8636474 0 0 0 -0.01758,-0.03125 1.8636474,1.8636474 0 0 0 -0.002,-0.002 1.8636474,1.8636474 0 0 0 -0.257813,-0.326172 l 0.09961,0.101563 C 24.695983,14.242311 20.958244,9.6915054 15.089844,9.5664063 L 14.142578,9.546875 a 1.8636474,1.8636474 0 0 0 -1.896484,1.720703 l -0.07227,0.945313 a 1.8636474,1.8636474 0 0 0 0,0.0039 c -0.459508,6.171051 -5.2120968,11.700259 -8.5429686,18.660156 -1.3137379,2.081563 -2.94436871,4.679016 -3.82812502,7.664063 -0.85402148,2.884613 -0.84087488,6.3178 1.08007812,9.359375 0.7505536,1.703219 2.2145474,2.614701 3.3847656,3.089843 0.7075353,0.28728 1.1633138,0.379272 1.7128906,0.525391 l -0.025391,0.0625 a 1.8636474,1.8636474 0 0 0 -0.00781,0.01953 c -1.0967311,2.832717 -4.0147023,5.537582 -6.01953122,9.669922 v 0.002 c -0.0011215,0.0023 -0.0027853,0.0035 -0.0039063,0.0059 l -0.0039063,0.0098 a 1.8636474,1.8636474 0 0 0 -0.03710938,0.08008 c -1.3327156,3.011725 -0.9809382,6.55594 0.5,9.416016 0.7494844,1.44745 1.9006162,2.833803 3.5878906,3.611328 1.1711958,0.539708 2.5022223,0.550602 3.8398438,0.322266 -0.2302285,0.334487 -0.3765208,0.695411 -0.6074219,1.021484 a 1.8636474,1.8636474 0 0 0 -0.00195,0.0039 l -0.1757813,0.25 a 1.8636474,1.8636474 0 0 0 -0.3398437,1.025391 l -0.00781,0.304687 a 1.8636474,1.8636474 0 0 0 0,0.002 c -0.1384492,5.757299 2.8948608,12.474425 8.9453126,14.830078 l 0.0625,0.02539 a 1.8636474,1.8636474 0 0 0 0.349609,0.101563 l 0.08398,0.01563 -0.03516,-0.0078 c 1.935153,0.399479 3.831396,0.0682 5.292969,-0.910156 1.40762,-0.942233 2.257165,-2.265948 2.861328,-3.492187 1.20248,-2.440609 1.84679,-5.121953 2.365235,-6.091797 v -0.002 l 0.04297,-0.07813 a 1.8636474,1.8636474 0 0 0 0.136719,-0.328125 l 0.02344,-0.07227 c 1.714481,-5.348497 3.831783,-10.638705 5.951171,-15.984375 0.189416,3.077763 0.145085,6.673189 0.728516,10.324219 0.607238,3.800018 1.993679,7.772971 5.294922,10.828125 a 1.8636474,1.8636474 0 0 0 0.01172,0.01172 c 3.581363,3.272989 7.933998,4.418436 12.037109,4.861329 4.094777,0.441992 8.094875,0.272723 11.474609,0.632812 a 1.8636474,1.8636474 0 0 0 0.04297,0.0039 l 0.02344,0.002 a 1.8636474,1.8636474 0 0 0 0.01172,0 l 0.02539,0.002 a 1.8636474,1.8636474 0 0 0 0.03516,0.002 c 7.673002,0.445923 16.304963,0.674654 24.013672,-3.539063 4.116816,-2.111461 9.023675,-5.268951 10.826172,-10.755859 a 1.8636474,1.8636474 0 0 0 0.0059,-0.01563 l 0.0293,-0.0918 a 1.8636474,1.8636474 0 0 0 0.07031,-0.302734 l 0.01367,-0.0957 a 1.8636474,1.8636474 0 0 0 0.0039,-0.03125 C 97.905979,73.185778 96.699041,69.719013 95.574219,66.716797 94.452713,63.723433 93.405427,61.076562 93.3125,58.617187 v -0.0039 l -0.0039,-0.126953 a 1.8636474,1.8636474 0 0 0 -0.08398,-0.501953 l -0.03516,-0.111328 v -0.002 c 0.03864,0.125744 -0.113554,-0.999415 -0.0957,-2.015625 0.0184,-1.047188 0.08893,-2.261293 0.01563,-3.455078 -0.03571,-0.581605 -0.101615,-1.238419 -0.341797,-1.941407 -0.258541,-0.756743 -0.874535,-1.868851 -2.171875,-2.367187 -1.295182,-0.497506 -2.530233,-0.09782 -3.324219,0.345703 -0.755551,0.42206 -1.395877,0.985002 -2.074218,1.671875 l -0.03906,0.03711 a 1.8636474,1.8636474 0 0 0 -0.152344,0.173828 l -0.04102,0.05273 a 1.8636474,1.8636474 0 0 0 -0.01758,0.02344 c -3.626397,4.814463 -4.633038,10.373778 -6.66211,14.44336 -2.47e-4,4.95e-4 2.47e-4,0.0015 0,0.002 l -0.02734,0.05273 a 1.8636474,1.8636474 0 0 0 -0.126953,0.316406 l -0.01758,0.05859 c -1.430845,4.595574 -5.944753,7.811402 -10.898437,8.763672 a 1.8636474,1.8636474 0 0 0 -0.002,0.0039 c -7.755633,1.156774 -14.929056,3.370064 -21.626954,2.56836 -0.261561,-1.305172 -0.567196,-2.653221 -0.65625,-3.78711 -0.06914,-0.880351 0.01006,-1.647922 0.0918,-1.914062 0.113071,-0.368169 -0.09529,-0.07442 -0.0039,-0.09961 5.231689,-1.296259 10.52804,-3.224498 15.130859,-6.615234 l -0.01758,0.01367 c 0.185153,-0.133015 0.263404,-0.170642 0.828125,-0.154297 0.520225,0.01506 1.376633,0.179328 2.363282,0.339844 0.969718,0.157763 2.269422,0.361762 3.722656,-0.04883 1.589148,-0.448916 2.935306,-1.677333 3.667969,-3.367188 l -0.203125,0.355469 c 4.395268,-6.026416 5.449548,-13.001993 7.630859,-18.583984 0.969491,-0.936912 1.751653,-2.041309 2.042969,-3.361329 0.358969,-1.626568 0.09022,-3.22415 -0.476563,-4.599609 -0.983207,-2.386036 -2.949591,-4.189427 -5.273437,-5.230469 -2.297332,-2.593702 -5.516236,-3.399434 -8.326172,-3.037109 -1.607176,0.207236 -3.080803,0.701497 -4.455078,1.273437 0.121499,-1.077597 0.103005,-2.163874 -0.1875,-3.203125 -0.469178,-1.678433 -1.527809,-3.284323 -3.214844,-4.246093 -0.895378,-0.51045 -1.889619,-0.715295 -2.912109,-0.765625 0.340379,-0.713093 0.757304,-1.513858 1.076171,-2.546875 0.364872,-1.18205 0.487634,-2.608098 -0.01367,-4.039063 l 0.105468,0.580078 C 56.480888,12.210389 56.112772,10.878842 55.251953,9.8164063 54.412743,8.7808491 53.323854,8.209615 52.355469,7.8789062 50.457535,7.2307508 48.621514,7.247428 47.658203,7.1171875 Z m 2.421875,6.1191404 c 0.468698,0.06063 1.140127,0.118677 1.335937,0.185547 0.311861,0.106502 0.338733,0.176661 0.296875,0.125 5.79e-4,7.14e-4 -6.24e-4,-0.178678 0,0.265625 v 0.22461 a 1.8636474,1.8636474 0 0 0 0.1875,0.814453 l 0.09766,0.201172 c -0.08752,-0.182881 0.01622,-0.129614 -0.150391,0.410156 -0.162217,0.525524 -0.567856,1.372956 -0.988281,2.283203 -0.398639,0.863078 -0.987194,2.008815 -0.976563,3.517578 0.0061,0.858832 0.245763,1.802458 0.910157,2.634766 0.638425,0.799778 1.492195,1.268627 2.322265,1.539062 l 0.28711,0.0957 a 1.8636474,1.8636474 0 0 0 1.123046,0.01563 l 0.292969,-0.08789 c 0.985512,-0.29173 1.268939,-0.154325 1.501953,-0.02148 0.204913,0.11682 0.398354,0.323103 0.535157,0.8125 0.260013,0.930172 -0.09438,2.532696 -1.22461,3.310547 l -0.05469,0.03711 a 1.8636474,1.8636474 0 0 0 -0.25,0.203125 l -0.04883,0.04687 c -7.61e-4,7.26e-4 -0.0012,0.0012 -0.002,0.002 l -0.0059,0.0059 c -0.502223,0.479664 -0.901318,0.891321 -1.242187,1.339844 -0.160462,0.211137 -0.365856,0.512617 -0.527344,0.875 -0.11427,0.256438 -0.426823,1.187667 -0.191406,2.085937 0.170971,0.652394 0.508724,1.076041 0.84375,1.394531 0.335025,0.318491 0.652072,0.546481 1.18164,0.710938 0.554119,0.172083 1.160572,0.147618 1.351563,0.128906 0.540625,-0.05296 0.975661,-0.193552 1.322265,-0.308594 -1.474685,1.049587 -2.766033,2.307693 -3.871093,3.660157 a 1.8636474,1.8636474 0 0 0 -1.710938,-0.0293 l -1.068359,0.591797 c -1.459195,0.807488 -2.971023,1.663826 -4.472657,2.570312 2.318656,-2.814068 4.003315,-6.083439 4.998047,-9.447265 a 1.8636474,1.8636474 0 0 0 -0.02148,-0.101563 c 0.361951,-0.704063 0.757661,-1.396445 0.800781,-2.25 0.0747,-1.478437 -0.551136,-2.690938 -1.802734,-3.453125 -0.868217,-0.528718 -1.812827,-0.712077 -2.609375,-0.732422 -0.794341,-0.02029 -1.465346,0.08608 -2.033203,0.148438 l -0.357422,0.03906 a 1.8636474,1.8636474 0 0 0 -1.134766,0.554688 l -0.25,0.257812 c -4.489306,4.619876 -6.149629,10.899976 -6.58789,16.632813 a 1.8636474,1.8636474 0 0 0 0,0.002 l -0.154297,2.029297 a 1.8636474,1.8636474 0 0 0 0.80664,1.548828 l -0.05664,-0.04687 a 1.8636474,1.8636474 0 0 0 -0.517578,-0.300781 l -0.154297,-0.05859 c -1.208094,-0.458489 -1.784393,-1.141047 -2.234375,-2.324219 -0.39891,-1.048884 -0.490214,-2.501116 -0.296875,-3.912109 1.998633,-3.974019 4.680751,-7.854921 6.96875,-12.269532 l -0.01758,0.03516 0.02344,-0.04297 a 1.8636474,1.8636474 0 0 0 0.09766,-0.212891 l 0.01758,-0.04492 -0.0039,0.01367 c 1.931421,-4.81526 5.66696,-9.61824 7.714844,-15.705078 z m -32.095703,2.857422 c 1.985729,0.911369 3.798386,2.884792 5.257812,5.220703 5.63e-4,9e-4 -5.62e-4,0.003 0,0.0039 0.480451,0.78449 0.556442,1.269393 0.494141,1.853516 -0.06242,0.585273 -0.346701,1.330207 -0.873047,2.267578 -0.940726,1.675341 -2.663482,3.715853 -3.96875,6.042969 -2.030696,1.93702 -3.053404,4.495211 -2.910156,7.007812 0.12909,2.264263 1.208408,4.278118 2.673828,5.97461 0.957806,3.750156 -1.050275,8.102399 -3.367187,12.4375 l -0.375,0.699219 a 1.8636474,1.8636474 0 0 0 0.24414,1.349609 1.8636474,1.8636474 0 0 0 -1.320312,0.617187 l -6.1777348,9.691407 c -0.094393,-3.87e-4 -0.3166983,0.085 -0.3867187,0.05273 -0.1738664,-0.08012 -0.5744643,-0.41352 -0.9003906,-1.042969 -0.6222063,-1.201641 -0.684668,-3.636767 -0.3476563,-4.433593 1.3472922,-2.733047 4.331927,-5.530253 6.0683594,-9.841797 0.38417,-0.531376 0.767265,-1.062595 1.013672,-1.753907 0.313932,-0.880757 0.428823,-1.94031 0.0078,-3.001953 C 11.46756,47.245616 9.6407578,46.650874 8.7578125,46.378906 7.7898516,46.080752 6.8934877,45.874289 6.4238281,45.683594 c -0.5079262,-0.206233 -0.376445,-0.217547 -0.3125,-0.0625 a 1.8636474,1.8636474 0 0 0 -0.00195,-0.0039 L 6.0664062,45.513672 A 1.8636474,1.8636474 0 0 0 5.8710937,45.158203 l -0.064453,-0.0918 a 1.8636474,1.8636474 0 0 0 -0.00195,-0.0039 c -1.0975788,-1.555292 -1.100272,-2.901943 -0.5097656,-4.896484 0.5786368,-1.954452 1.896125,-4.202817 3.171875,-6.22461 0.0017,-0.0027 0.00416,-0.0051 0.00586,-0.0078 l 0.00977,-0.01367 a 1.8636474,1.8636474 0 0 0 0.1503906,-0.271485 l 0.011719,-0.02734 0.00195,-0.0039 C 11.081565,28.41736 15.442363,22.950651 17.076172,15.970703 Z m 49.763672,16.224609 c 1.671527,-0.215533 2.383368,-0.129599 3.484375,1.271485 l 0.193359,0.24414 a 1.8636474,1.8636474 0 0 0 0.917969,0.63086 l 0.298828,0.0918 c 0.887519,0.272184 2.270663,1.536683 2.679687,2.529297 0.213939,0.519183 0.231192,0.932517 0.175782,1.183593 -0.06633,0.300579 -0.09834,0.44188 -0.634766,0.820313 l -0.238281,0.167969 a 1.8636474,1.8636474 0 0 0 -0.660156,0.833984 l -0.109375,0.273437 c -2.657506,6.592299 -3.662787,13.194748 -7.15625,17.878907 l -0.06641,0.08984 a 1.8636474,1.8636474 0 0 0 -0.216797,0.371094 l -0.04687,0.107422 a 1.8636474,1.8636474 0 0 0 -0.002,0.0039 c -0.06679,0.154057 -0.04076,0.104039 -0.05664,0.128907 1.83e-4,-0.01466 -0.461182,0.02614 -1.16211,-0.08789 -0.771881,-0.125577 -1.847845,-0.375426 -3.115234,-0.412109 -1.295245,-0.03749 -2.893619,0.204335 -4.318359,1.220703 a 1.8636474,1.8636474 0 0 0 -0.238282,0.195312 l 0.19336,-0.166015 c -3.874297,2.85694 -8.60686,4.62725 -13.564453,5.818359 a 1.8636474,1.8636474 0 0 0 -0.0078,0.002 l -0.08789,0.02148 a 1.8636474,1.8636474 0 0 0 -0.291015,0.09766 l -0.08203,0.03516 a 1.8636474,1.8636474 0 0 0 -0.01563,0.0059 c -1.682757,0.738727 -2.715976,2.204547 -3.166016,3.669922 -0.42726,1.391204 -0.426522,2.769145 -0.326172,4.046875 0.141372,1.800034 0.478609,3.145206 0.761719,4.509766 -0.327715,-0.962341 -0.662709,-1.912496 -0.841797,-3.033203 -0.473182,-2.961114 -0.448805,-6.371675 -0.65625,-9.732422 0.329148,-1.782891 1.521633,-4.296106 2.205078,-7.164063 0.183291,-0.769145 0.312986,-1.593136 0.351563,-2.451172 0.389029,0.403405 0.736956,0.773586 0.814453,0.867188 -0.331031,0.444764 -0.703391,0.908303 -0.857422,1.617187 -0.118434,0.545057 -0.140787,1.234818 0.166015,1.972657 0.329405,0.792245 0.838029,1.258485 1.4375,1.583984 0.880087,0.477867 1.856166,0.453098 2.273438,0.417969 0.555038,-0.04673 1.067664,-0.165451 1.552734,-0.306641 0.980366,-0.285356 1.972135,-0.709077 2.882813,-1.236328 0.787869,-0.456149 1.921395,-1.137471 2.566406,-2.476562 1.02058,-1.769273 1.848382,-3.76435 2.466797,-5.84375 0.229239,0.833494 0.667847,1.604912 1.427734,2.169921 1.352983,1.005995 2.902468,0.902609 4.042969,0.701172 1.184904,0.08612 2.380164,-0.07483 3.421875,-0.695312 1.171667,-0.697883 1.934959,-1.696498 2.470703,-2.619141 1.064885,-1.83391 1.543063,-3.790326 1.921875,-4.748047 a 1.8636474,1.8636474 0 0 0 0.01172,-0.03125 l 0.01758,-0.04687 a 1.8636474,1.8636474 0 0 0 0.04492,-0.132812 l 0.01367,-0.04687 a 1.8636474,1.8636474 0 0 0 0.002,-0.0098 c 0.361193,-1.265413 1.596495,-3.750237 2.021484,-6.36914 0.212899,-1.311949 0.250709,-3.004945 -0.738281,-4.53125 C 67.970929,34.043588 66.140954,33.274751 64.203125,33.125 a 1.8636474,1.8636474 0 0 0 -0.01563,-0.002 l -0.05664,-0.0039 a 1.8636474,1.8636474 0 0 0 -0.193359,-0.0039 l -0.05664,0.002 a 1.8636474,1.8636474 0 0 0 -0.0078,0.002 l -0.08203,0.0039 c 1.091711,-0.449324 2.154581,-0.812426 3.048828,-0.927735 z M 64.195312,38.75 c -0.206532,-0.318742 -0.01153,-0.104905 -0.109375,0.498047 -0.188057,1.158866 -1.183577,3.418748 -1.808593,5.517578 -0.54217,1.3844 -0.977077,2.74305 -1.394532,3.578125 a 1.8636474,1.8636474 0 0 0 -0.998046,0.728516 c -0.02163,-1.675269 -0.391997,-3.183335 -0.81836,-4.320313 -0.329991,-0.879984 -0.489925,-1.527269 -0.65625,-2.195312 1.56028,-1.635932 3.584037,-3.083408 5.56836,-3.712891 h 0.0039 c 0.04112,-0.01303 0.08204,-0.05016 0.123047,-0.0625 l -0.22461,0.03711 c 0.273788,0.02239 0.390906,0.04963 0.314453,-0.06836 z m -23.871093,8.003906 c -0.0071,0.0051 -0.01052,0.01638 -0.01758,0.02148 -0.0387,0.03346 -0.0825,0.05419 -0.121094,0.08789 z m 9.039062,0.689453 c -0.165815,2.289013 -1.01987,4.663436 -2.177734,6.855469 -0.06398,-0.168937 -0.0273,-0.361157 -0.111328,-0.523437 -0.718274,-1.387121 -1.75032,-2.254244 -2.417969,-2.88086 -0.05465,-0.05129 -0.08259,-0.08639 -0.134766,-0.136719 1.45879,-1.19988 3.099871,-2.284221 4.841797,-3.314453 z m -10.208984,0.701172 c -0.21287,0.277819 -0.507952,0.441387 -0.658203,0.783203 -0.234245,-0.245532 -0.401095,-0.521113 -0.667969,-0.75 a 1.8636474,1.8636474 0 0 0 1.326172,-0.0332 z m 23.023437,0.5625 -0.988281,3.5625 -1.441406,-0.320312 v -1.492188 l 0.04687,-0.0332 c -0.0029,0.01167 0.05587,0.140364 0.05469,0.134766 0.06703,0.31807 0.0044,0.172658 0.05078,-0.05273 a 1.8636474,1.8636474 0 0 0 0.002,-0.0098 l 0.0059,-0.0293 a 1.8636474,1.8636474 0 0 0 0.01953,-0.119141 v -0.0078 c 6.19e-4,-0.0042 -6.11e-4,-0.0075 0,-0.01172 l 0.002,-0.002 h 0.002 z m -51.828125,1.150391 c -2.3e-5,-5.9e-5 0.109382,0.396524 0.109375,0.396484 0,0 0.01563,0.136719 0.01563,0.136719 0,0 0.0059,0.111328 0.0059,0.111328 0,0 -0.05469,0.490234 -0.05469,0.490234 0,0 -1.8085935,-0.451171 -1.8085935,-0.451171 0,0 -0.5117187,1.791015 -0.5117187,1.791015 0,0 -0.031653,-0.0094 -0.0625,-0.01953 0.00118,-0.0035 0.5742187,-1.771484 0.5742187,-1.771484 z m -2.3867184,2.425781 c 0.01357,0.0052 0.016171,0.0074 0.027344,0.01172 -0.00867,-0.0029 -0.027344,-0.0098 -0.027344,-0.0098 0,0 -1.2e-6,-0.002 0,-0.002 z m 40.4453124,3.869141 0.01172,0.0059 c -2e-4,3.3e-5 -0.01367,0.002 -0.01367,0.002 0,0 0.0019,-0.0077 0.002,-0.0078 z m 39.111328,1.298828 c 0.03064,0.642326 -0.01902,1.249087 0.171875,1.933594 0.255014,3.550776 1.504237,6.626703 2.521485,9.341796 1.028394,2.744846 1.705785,5.11491 1.488281,7.44336 -1.106452,2.933747 -4.380602,5.415431 -7.90625,7.21875 a 1.8636474,1.8636474 0 0 0 -0.01172,0.0059 1.8636474,1.8636474 0 0 0 -0.06445,0.03516 l 0.0039,-0.0039 c -6.02037,3.296215 -13.443818,3.289698 -20.949219,2.853516 a 1.8636474,1.8636474 0 0 0 -0.002,0.002 c -3.937533,-0.405253 -7.871962,-0.249776 -11.330078,-0.623047 -3.505702,-0.378408 -6.391431,-1.212621 -8.77539,-3.386719 l -0.002,-0.002 c -0.05736,-0.05318 -0.07522,-0.12763 -0.130859,-0.18164 l 0.01172,0.002 c 9.299168,1.978112 17.918191,-1.274453 25.626953,-2.410157 a 1.8636474,1.8636474 0 0 0 0.0625,-0.0098 l 0.02148,-0.0039 0.02148,-0.0039 a 1.8636474,1.8636474 0 0 0 0.01758,-0.0039 C 74.946596,78.37952 81.384626,74.020311 83.580078,66.976562 l -0.107422,0.267579 c 1.696647,-3.447857 2.740102,-6.872296 4.046875,-9.792969 z m -70.609375,4.402344 c 1.269834,1.03376 2.436043,2.014458 2.873047,2.865234 l 0.214844,0.417969 a 1.8636474,1.8636474 0 0 0 1.257812,0.96875 l 0.460938,0.101562 a 1.8636474,1.8636474 0 0 0 0.002,0 c 1.865467,0.407944 3.60686,-0.247526 4.810547,-1.236328 0.184463,-0.151532 0.245113,-0.343127 0.410156,-0.503906 -1.960128,4.938668 -3.926844,9.917808 -5.587891,15.099609 a 1.8636474,1.8636474 0 0 0 0.0098,0.01758 c -1.019039,2.114197 -1.601213,4.426986 -2.261719,5.767578 -0.36164,0.734005 -0.750349,1.158654 -0.910156,1.265625 -0.163172,0.109225 -0.348593,0.09444 -0.703125,0.04687 -1.324632,-0.598049 -2.610672,-1.862265 -3.535156,-3.519531 -0.883601,-1.583975 -1.367665,-3.431524 -1.451172,-5.03125 1.311798,-1.881486 2.729066,-4.020002 3.742187,-6.496094 1.175918,-2.873966 1.790867,-6.264998 0.685547,-9.710937 v -0.002 z"
       transform="matrix(0.99062624,0,0,0.99443845,0.93737654,0.56153624)" /><path
       id="path3-3"
       d="m 53.062964,12.846652 c -1.448674,6.472631 -5.968069,11.620932 -8.397334,17.700683 -2.22742,4.314268 -5.034285,8.303109 -7.164809,12.670165 -0.673459,3.865019 0.37306,8.216836 4.279023,9.70491 4.922925,4.094439 0.505591,9.485091 -0.285321,14.419136 0.455276,6.635834 -0.256746,14.558538 5.079949,19.516415 5.905465,5.417742 14.369925,3.951117 21.67789,4.732731 7.525041,0.439005 15.471012,0.558865 22.278024,-3.182388 3.856905,-1.980344 7.977596,-4.801639 9.377837,-9.080461 0.796567,-6.364257 -3.847806,-11.729139 -4.075274,-17.997923 -0.866861,-2.859127 1.406481,-11.219148 -3.185497,-6.551525 -3.078544,4.102852 -4.062595,9.366185 -6.326469,13.923203 -1.797805,5.796387 -7.221064,9.555835 -12.970774,10.665383 -8.056424,1.191487 -16.173025,4.18275 -24.382546,2.429703 -0.48898,-3.273518 -2.566962,-9.60408 0.71804,-11.051739 5.129779,-1.237222 10.186714,-3.101672 14.457799,-6.263328 3.123703,-2.25272 7.753218,2.093323 9.535272,-2.032721 4.029358,-5.423497 4.987428,-12.296883 7.44841,-18.422852 4.019071,-2.846226 0.826579,-8.378738 -3.001692,-9.557308 -3.318619,-4.23935 -8.629577,-1.985221 -12.510848,0.05273 -1.490889,0.447966 -7.147786,3.479831 -3.566016,0.04842 4.42104,-3.054376 2.887671,-10.97294 -3.220733,-9.154187 -3.640498,-1.190632 2.012037,-5.853533 0.568629,-8.858145 -0.005,-3.607144 -3.792997,-3.366095 -6.33356,-3.710904 z M 21.119619,15.309154 C 20.564582,22.791809 15.281,28.622465 12.226085,35.173463 9.6518907,39.267864 6.3994694,44.761574 9.6618397,49.402211 c 1.3183493,3.208876 8.7373293,1.197821 5.1074503,5.884338 -1.414529,3.667612 -4.379753,6.35574 -6.0609624,9.838226 -1.7281693,3.920441 0.8530848,11.455706 5.9888754,9.079577 l 5.603358,-8.824341 c 1.678303,5.24945 -1.752742,10.467443 -4.61755,14.528622 -0.109931,4.588989 2.586404,10.280124 7.05407,12.026234 5.197107,1.076984 5.580877,-5.680193 7.347054,-8.994047 2.198055,-6.883446 4.998003,-13.534098 7.602272,-20.263168 1.258165,-2.293136 2.130852,-9.635186 -1.435047,-4.781955 -2.889825,2.026379 -4.273105,8.905578 -7.899009,8.109607 -1.211525,-2.367713 -3.843945,-3.903647 -5.372917,-5.248738 2.364954,-4.441873 5.041263,-9.591375 3.537664,-14.760736 -3.025742,-2.857234 -3.610891,-7.250765 -0.238627,-10.111345 2.122704,-4.103688 7.516648,-8.418526 4.491289,-13.357533 -2.145794,-3.452244 -5.240151,-7.123426 -9.650141,-7.217798 z m 30.305225,17.237508 c 2.317595,-0.255485 4.326692,-0.163806 2.583225,2.715671 -1.400566,4.754431 -4.661152,8.572287 -8.857353,11.338313 0.404046,-5.305652 2.489363,-10.14528 6.274128,-14.053984 z m 18.188885,6.181904 c 5.449804,0.422769 1.967924,6.220007 0.97438,9.714218 -1.001572,2.541951 -1.79326,6.949155 -5.373747,6.251562 -1.810685,0.362725 -2.829908,-0.111932 -2.423456,-2.094972 0.427565,-2.948771 -1.676133,-5.368447 -1.874884,-8.230782 1.968305,-2.516602 4.966553,-4.698886 8.074927,-5.616349 z m -13.354864,7.093077 c 1.44416,4.580358 1.217496,9.292073 -1.176846,13.395367 -0.743555,1.602911 -7.338601,3.929751 -4.96711,1.051522 2.684881,-3.77715 -6.161489,-5.733368 -2.275719,-8.5225 2.918491,-2.574761 5.035873,-4.044656 8.419675,-5.924389 z m 11.57277,6.753682 -0.09598,0.620434 z m -0.108779,0.681356 -0.126382,0.444084 z m -0.132778,0.460116 -0.143975,0.319036 z m -0.159971,0.349496 -0.30555,0.389574 z"
       style="fill:#ffdc2c;fill-opacity:1;stroke-width:0.819946"
       sodipodi:nodetypes="cccccccccccccccccccccccccccccccccccccccccccccccccccccccccccccccccccccc" /><path
       style="color:#000000;fill:#000000;stroke-width:0.99253;-inkscape-stroke:none;paint-order:stroke fill markers"
       d="m 47.769282,10.459668 c -1.448673,6.472629 -5.968067,11.620932 -8.397331,17.700683 -2.227423,4.314269 -5.034288,8.303107 -7.16481,12.670164 -0.673461,3.865018 0.373059,8.216837 4.279021,9.704911 4.922926,4.094439 0.505592,9.48509 -0.285321,14.419134 0.455276,6.635835 -0.256745,14.558535 5.07995,19.516417 5.905465,5.417741 14.369925,3.951116 21.677896,4.73273 7.52504,0.439007 15.471011,0.558865 22.278024,-3.182389 3.856904,-1.980343 7.977596,-4.801645 9.377836,-9.080461 0.796568,-6.364257 -3.847805,-11.729139 -4.075273,-17.99792 -0.866861,-2.859128 1.406481,-11.219151 -3.185498,-6.551525 -3.078543,4.102852 -4.062594,9.366185 -6.32647,13.923202 -1.797803,5.796387 -7.221063,9.555834 -12.970773,10.665381 -8.056422,1.19149 -16.17303,4.182749 -24.382551,2.429705 -0.48898,-3.273518 -2.566961,-9.60408 0.71804,-11.051741 5.129779,-1.23722 10.186714,-3.10167 14.457801,-6.263327 3.123707,-2.252719 7.753221,2.093324 9.535275,-2.032721 4.029358,-5.423497 4.987429,-12.296883 7.44841,-18.422852 4.01907,-2.846225 0.826578,-8.378739 -3.001691,-9.557307 -3.318619,-4.239348 -8.629577,-1.98522 -12.510855,0.05273 -1.490887,0.447965 -7.147786,3.479829 -3.566014,0.04842 4.421045,-3.054377 2.88767,-10.972941 -3.220733,-9.15419 -3.6405,-1.190631 2.012036,-5.853531 0.568628,-8.858144 -0.0051,-3.607145 -3.792998,-3.366096 -6.333561,-3.710904 z M 15.825939,12.92217 C 15.270902,20.404824 9.9873194,26.23548 6.9324047,32.786479 4.3582094,36.880881 1.1057882,42.37459 4.3681586,47.015226 c 1.31835,3.208877 8.7373284,1.197821 5.1074514,5.88434 -1.4145298,3.667609 -4.3797542,6.355738 -6.0609636,9.838225 -1.7281691,3.92044 0.8530848,11.455705 5.9888773,9.079578 1.8677853,-2.941448 3.7355693,-5.882896 5.6033553,-8.824343 1.678303,5.24945 -1.752742,10.467443 -4.617548,14.528624 -0.10993,4.588983 2.586403,10.280122 7.054069,12.026233 5.197107,1.076983 5.580878,-5.680194 7.347053,-8.994049 2.198056,-6.883444 4.998002,-13.534096 7.602273,-20.263166 1.258164,-2.293136 2.130851,-9.635188 -1.435048,-4.781954 -2.889824,2.026378 -4.273104,8.905579 -7.899009,8.109607 -1.211524,-2.367714 -3.843945,-3.903649 -5.372916,-5.248738 2.364954,-4.441875 5.041264,-9.591377 3.537664,-14.760737 -3.025743,-2.857234 -3.610892,-7.250764 -0.238628,-10.111344 2.122704,-4.103691 7.516648,-8.418527 4.491291,-13.357535 -2.145795,-3.452244 -5.240153,-7.123425 -9.650141,-7.217797 z m 30.305223,17.237506 c 2.317598,-0.255483 4.326694,-0.163803 2.583225,2.715672 -1.400565,4.754433 -4.120444,9.293312 -8.316646,12.059336 0.404049,-5.305651 1.948658,-10.866303 5.733421,-14.775008 z m 18.188893,6.181905 c 5.449804,0.422769 1.967923,6.22001 0.974377,9.71422 -1.001578,2.541949 -1.793258,6.949153 -5.373746,6.251561 -1.810689,0.362724 -2.829914,-0.111932 -2.423466,-2.094974 0.427567,-2.94877 -1.676128,-5.368446 -1.874878,-8.230781 1.968306,-2.516601 4.96656,-4.698886 8.074927,-5.616349 z m -12.033145,6.67248 c 1.444162,4.580358 -0.104229,9.712669 -2.498571,13.815963 -0.743556,1.602913 -7.338604,3.929753 -4.967111,1.051523 2.684881,-3.777149 -6.161489,-5.733366 -2.27572,-8.5225 2.918492,-2.574761 6.357601,-4.465255 9.741402,-6.344986 z m 10.25105,7.17428 -0.09598,0.620435 z m -0.108783,0.681355 -0.126377,0.444085 z m -0.132776,0.460117 -0.143975,0.319035 z m -0.159972,0.349495 -0.305548,0.389576 z"
       id="path5" /></g></svg>
