<?xml version="1.0" encoding="UTF-8" standalone="no"?>
<svg
   version="1.1"
   width="160"
   height="130"
   id="svg15"
   sodipodi:docname="ç»_1_1.svg"
   xml:space="preserve"
   inkscape:version="1.3 (0e150ed6c4, 2023-07-21)"
   xmlns:inkscape="http://www.inkscape.org/namespaces/inkscape"
   xmlns:sodipodi="http://sodipodi.sourceforge.net/DTD/sodipodi-0.dtd"
   xmlns="http://www.w3.org/2000/svg"
   xmlns:svg="http://www.w3.org/2000/svg"><defs
     id="defs15" /><sodipodi:namedview
     id="namedview15"
     pagecolor="#ffffff"
     bordercolor="#000000"
     borderopacity="0.25"
     inkscape:showpageshadow="2"
     inkscape:pageopacity="0.0"
     inkscape:pagecheckerboard="0"
     inkscape:deskcolor="#d1d1d1"
     inkscape:zoom="2.8576923"
     inkscape:cx="12.94751"
     inkscape:cy="67.012113"
     inkscape:window-width="1920"
     inkscape:window-height="974"
     inkscape:window-x="-11"
     inkscape:window-y="-11"
     inkscape:window-maximized="1"
     inkscape:current-layer="svg15" /><path
     d="m 0,0 c 4.2110764,0.49371241 6.0155272,1.5315497 8.75,4.75 l 1.796875,2.046875 C 12.32448,9.4919533 13.023007,10.737632 13,14 11.201859,17.847027 8.762231,21.313134 6.4277344,24.849609 L 5.0273437,27.066406 3.7067871,29.064697 C 2.757457,31.020151 2.757457,31.020151 3.748291,33.05835 4.8166968,34.71566 5.9062177,36.359327 7,38 7.5277153,43.488239 6.4084295,47.090509 4,52 L 2.8125,54.4375 2,56 3.75,56.6875 C 6.5623279,58.328025 8.0297046,60.437788 10,63 l 2.117188,-2.808594 C 13.036254,58.981615 13.955536,57.771988 14.875,56.5625 l 1.394531,-1.853516 C 19.773437,50.113281 19.773437,50.113281 22,49 21.460085,55.209022 19.428305,60.293912 17,66 14.777295,71.363671 12.75038,76.711689 11,82.25 9.5319572,86.77064 7.9118327,90.256215 5,94 1.8572865,93.415309 -0.34372989,92.756968 -2.4765625,90.296875 -5.0925153,86.288807 -6.6358855,82.854861 -7,78 -7,78 -6.3029153,77.110112 -5.0516191,76.62884 -3.8003229,76.147568 -3.353206,75.171417 -3,73 -2.1945374,70.699248 -1.3645395,68.409046 -0.5234375,66.121094 0.24141995,63.83374 0.24141995,63.83374 -1,61 l -7,11 c 0,0 -2.551311,0.183071 -3.551311,0.0164 C -12.551311,71.849738 -14,71 -14,71 c -1.850722,-5.140893 -2.52404,-6.841834 -0.37116,-12.257681 l 2.62628,-3.175339 C -9.3725298,52.360111 -7.8549495,48.628858 -6,45 L -8.3125,44.625 C -11,44 -11,44 -14,42 -15.739751,37.966941 -16.269677,35.856621 -14.9375,31.625 -14.318292,30.402809 -13.670276,29.194948 -13,28 l 1.074219,-1.984375 c 1.890397,-3.441653 3.8337668,-6.853236 5.769531,-10.269531 L -4.25,12.3125 -2.453125,9.1132813 C -1.0031528,6.0067547 -0.38630556,3.3903396 0,0 Z"
     fill="#000000"
     id="path3"
     transform="translate(40,15)"
     sodipodi:nodetypes="ccccccccccccccccccccccczcccczccccccccccccc" /><path
     d="M 0,0 C 5.75,0.75 5.75,0.75 8,3 7.6717687,7.3490643 6.8026076,11.034263 5,15 l 3.9375,0.4375 C 12.875,15.875 12.875,15.875 14,17 c 0.486973,2.759513 0.317545,4.463727 -1.117187,6.886719 C 11.63108,25.629951 10.329764,27.316172 9,29 l 3.324219,-1.417969 c 1.45397,-0.590968 2.908423,-1.18075 4.363281,-1.769531 l 2.185547,-0.943359 c 5.41592,-2.15153 5.41592,-2.15153 9.146484,-0.669922 L 30,26 l 5,3 2,6 -1.386719,1.125 C 33.484811,38.598767 33.0163,40.851317 32.1875,44 30.337136,50.397382 27.842658,58.157342 23,63 L 19.4375,62.25 C 14.888611,61.615084 12.977205,62.993182 9.3632813,65.585937 4.6721206,68.39288 -0.7578093,69.569585 -6,71 c -0.027241,1.416558 -0.046505,2.83327 -0.0625,4.25 l -0.035156,2.390625 C -6.0038531,79.90691 -5.6324106,81.82889 -5,84 3.481048,85.636693 10.663651,83.866347 19,82 20.853536,81.68378 22.707616,81.370713 24.5625,81.0625 28.865223,80.224865 32.072672,78.613051 35.55674,76 l 3.094446,-3.688837 2.372251,-5.225226 1.15625,-2.804687 c 0.798503,-1.941457 1.587545,-3.886831 2.367188,-5.835938 l 1.164062,-2.796875 1.040528,-2.557128 C 48.2047,50.657126 49.388761,49.997668 52,49 l -0.105469,2.308594 C 51.683349,59.363705 52.891274,65.338606 56.1875,72.625 57.358598,76.048208 57.49687,78.397691 57,82 52.952667,89.457291 44.934834,92.96955 37.125,95.3125 31.793231,96.440579 26.416721,96.202494 21,96 L 17.28125,95.875 C -1.5122441,94.958244 -1.5122441,94.958244 -8.5625,89.6875 c -4.499052,-4.960493 -4.858534,-10.708369 -5.25,-17.125 l -0.193359,-2.197266 C -14.345449,65.041811 -13.336016,61.779025 -11,57 c 0.50379,-2.713058 0.50379,-2.713058 0,-5 0,0 -1.951395,-1.080966 -2.44326,-1.81442 C -13.935126,49.452126 -14,48 -14,48 l -3,-1 c -2.300094,-3.268555 -2.304061,-6.089972 -2,-10 1.355469,-2.859375 1.355469,-2.859375 3.1875,-5.75 2.75995,-4.494617 5.245757,-8.990236 7.5507812,-13.730469 C -6.378255,13.758435 -4.3048779,10.106047 -2.234375,6.4453125 -1.1324507,4.2623864 -0.46638979,2.3874715 0,0 Z"
     fill="#000000"
     transform="translate(79,12)"
     id="path2"
     sodipodi:nodetypes="cccscccccccccccccccccccccccccccccccccccccccczccccccc" /><path
     d="M -3.8930014,-2.340175 C 2.4777088,-2.0707665 6.6769013,3.1563533 8.125,6.9375 7.9767561,10.569474 6.9794297,11.994199 5,15 l -0.8984375,3.203125 c -1.1335459,3.907116 -2.628,7.47081 -4.4140625,11.109375 l -0.8574219,1.876953 c -1.4571778,2.975745 -2.4956207,4.621814 -5.4121093,6.267578 C -9,38 -9,38 -11.375,37.375 c -3.325259,-0.475037 -4.704131,0.685929 -7.453125,2.4375 -3.663029,2.002807 -7.627959,3.105288 -11.597656,4.355469 C -32.951326,44.912973 -32.951326,44.912973 -35,46 l 1.421013,9.660414 C -39.993588,55.400558 -39.780348,55.91999 -41.1875,53.21875 -42.096733,50.735844 -42.202477,48.884209 -42.125,46.25 L -42.07031,43.828125 -42,42 c 5.040288,-2.240128 10.135231,-4.143919 15.351563,-5.9375 2.713088,-0.97081 2.363155,-1.23326 5.134358,-2.268843 1.722463,-0.868991 4.924783,-2.264994 4.924783,-2.264994 0,0 2.669261,1.057212 4.589296,1.471337 4.2400975,-8.208265 8.2965028,-16.138537 11,-25 L 1,5 C 0.82938571,3.5537007 1.016477,3.1540591 0.19808094,1.0324661 -0.37018686,-0.44069949 -2.859359,-1.3822109 -3.8930014,-2.340175 Z"
     fill="#ffd200"
     transform="translate(114,41)"
     id="path4"
     sodipodi:nodetypes="ccccccccccccccccccccccsc" /><path
     d="M -0.61238223,1.3997308 C 0.5818867,0.27385602 2,-0.52489906 2,-0.52489906 L 2.078125,2.9648438 C 2.3790342,9.9199499 2.8327048,15.667431 6.0664062,21.945312 7.687146,25.512296 8.1828004,29.100259 8,33 5.4935866,39.487188 -0.23131061,42.84361 -6.28125,45.625 -13.568608,48.590395 -20.282032,48.67229 -28.0625,48.5 l -3.892578,0.0078 C -39.535961,48.430496 -46.929926,47.979811 -54,45 l -1.12372,-1.44326 3.463056,0.355105 c 3.138323,0.130112 6.060302,0.408906 9.199017,0.529162 2.012715,0.07889 4.148883,0.102644 6.161318,0.188384 13.196522,0.497356 23.82022,-0.995692 34.0229852,-10.262204 C -0.24746025,32.194529 0.00531202,30.947942 0.3125,27.9375 0.0244414,24.307962 -0.4692287,22.664315 -2,19.5 -3.2316533,15.335633 -3.8780309,12.399518 -3.2126514,7.8250336 -2.070426,5.0383976 -1.8066512,2.5256056 -0.61238223,1.3997308 Z"
     fill="#ffd200"
     transform="translate(135,63)"
     id="path5"
     sodipodi:nodetypes="zccccccccccccccccz" /><path
     d="M -0.48115747,0.34993271 C 4.5496964,2.4558715 8.000531,4.4125768 11,9 11.803796,15.257591 9.9797263,18.361019 6.4375,23.1875 3.1300944,27.322643 3.1300944,27.322643 2.1210938,32.289062 3.0163571,34.146642 3.0163571,34.146642 4.625,36.1875 6.6411917,40.311529 6.1022127,43.620155 5,48 3.8421744,50.819866 2.5020757,53.335027 1,56 L 4.1855798,57.18558 2,61 0.25,58.6875 C -1.7170309,56.337991 -3.4847674,54.706765 -6,53 -5.0625043,50.120549 -4.145045,47.314264 -2.875,44.5625 -1.7123962,41.157732 -1.6167636,38.576873 -2,35 L -4.125,32.4375 -6,30 C -4.6355216,23.920299 -0.9952847,19.346692 2.515625,14.316406 4.3703868,11.014109 4.3703868,11.014109 3.3046875,7.2421875 2.3006634,4.7471576 0.83194331,2.6947555 -0.48115747,0.34993271 Z"
     fill="#ffd200"
     transform="translate(48,18)"
     id="path6"
     sodipodi:nodetypes="cccccccccccccccccc" /><path
     d="M 0,0 0.512786,0.86877524 0.24385935,4.0188425 C -1.7589221,7.7329929 -1.7483019,10.581646 -2.6967741,13.712525 -4.9094099,20.99719 -6.7022621,28.120236 -10,35 c -0.547853,1.268179 -1.089873,2.538899 -1.625,3.8125 C -12.680135,41.258496 -13.771885,43.638241 -15,46 l -6,-1 -0.650067,-2.518843 C -20.69368,40.789087 -20.036626,38.644137 -19,37 c 0.675856,-1.857274 1.299136,-3.734331 1.875,-5.625 C -13.31,19.597632 -7.9666168,9.4986584 0,0 Z"
     fill="#ffd201"
     id="path7"
     transform="translate(67,66)"
     sodipodi:nodetypes="cccccccccccc" /><path
     style="fill:#ffffff;fill-opacity:1;stroke-width:1.3;stroke-linecap:round;stroke-linejoin:round;paint-order:stroke fill markers"
     d="m 102.87309,46.3331 c 0,0 -0.12372,2.721838 -1.8558,7.361334 -1.732075,4.639496 -2.845554,7.856214 -3.526013,8.351093 -0.68046,0.49488 -1.546499,0.866039 -1.546499,0.866039 L 93.84154,62.169247 93.77968,49.549818 Z"
     id="path16" /><path
     d="M -1.2681289,-1.0825491 C -0.0855294,0.14842792 0.11437455,1.0171045 -0.25470859,2.0107046 -0.60954292,2.9659458 -1.2504972,3.4481622 -2.1804366,3.852101 -5.576175,5.3271116 -7.7747333,7.42406 -8.0935095,8.4103764 c -0.2529531,0.782655 2.247166,2.2834536 2.1845122,5.9305596 -0.05407,3.147423 -0.9940116,3.274749 -1.1837926,3.628134 L -12,18 l -0.123974,-2.570444 -0.07121,-3.071405 c 0,0 -2.489122,-5.8360634 -2.21715,-6.9560614 0.271972,-1.119998 1.618031,-2.0306841 2.724834,-2.8395896 l 1.8632812,-1.3710938 c 3.5865469,-2.3423914 4.5440778,-3.2498501 8.5560899,-2.2739553 z"
     fill="#ffd200"
     transform="translate(103,45)"
     id="path8"
     sodipodi:nodetypes="csssscccczccc" /><path
     style="fill:#ffffff;stroke-width:1.3;stroke-linecap:round;stroke-linejoin:round;paint-order:stroke fill markers;fill-opacity:1"
     d="m 85.119287,53.941874 c 0,0 0.06186,5.381815 -0.371159,6.742734 -0.43302,1.360919 -2.103238,5.876695 -2.721838,6.990174 -0.618599,1.113479 -1.917658,2.226958 -1.917658,2.226958 l -3.031138,0.55674 -0.804179,-9.155272 z"
     id="path15" /><path
     d="M 1.5155687,-0.34022971 2.06186,1.9278992 C 2.2572454,4.0649212 2.3899812,4.9503163 1.1152461,6.8299135 -0.0283041,8.5160786 -3.8673528,11.054289 -5.3117804,12.270835 -2.9911372,13.913867 -0.95991094,14.867863 -3,18 c -2.640625,0.789062 -3.2901544,1.345802 -5.6495294,1.55674 L -7.21843,17.12756 C -6.9857069,14.179734 -8.0815643,13.337902 -9.4993599,11.99744 -10.183981,11.350162 -10.9195,10.957891 -12.06186,9.2474398 -9.8531815,6.0587655 -3.0179297,2.1212062 1.5155687,-0.34022971 Z"
     fill="#ffd200"
     id="path9"
     transform="translate(83,52)"
     sodipodi:nodetypes="ccsccccscc" /><path
     d="M 0,0 C 5.875,1.875 5.875,1.875 7,3 6.6205651,7.0978967 6.4819068,9.4083646 4.1749664,12.868775 L -3,12 C -2.257494,7.9162172 -1.170767,3.9806078 0,0 Z"
     fill="#ffd200"
     id="path10"
     transform="translate(87,15)"
     sodipodi:nodetypes="ccccc" /><path
     d="M0 0 C1.32 0 2.64 0 4 0 C2.48102059 7.13920321 -0.81002108 13.87334739 -7 18 C-6.59657725 11.81418444 -4.51160866 4.51160866 0 0 Z "
     fill="#FFD200"
     transform="translate(77,36)"
     id="path11" /><path
     d="M 0.21870794,0.15309556 6,2 6.4751009,6.2235868 -6,12 C -4,8 -4,8 -2.4375,6 -0.96806014,3.9555619 -0.21964558,2.6078753 0.21870794,0.15309556 Z"
     fill="#ffd200"
     transform="translate(93,30)"
     id="path12"
     sodipodi:nodetypes="cccccc" /><path
     d="M 0,0 C 0.8779748,-1.5249036 2,1 2,1 1.4069957,5.8626348 -0.02627402,9.8684563 -2.3061911,14.174966 -4.4936911,15.112466 -4.1875,14.9375 -6,15 L -8,12 -5.6875,8.8125 C -3.6413622,5.9525574 -0.8779748,1.5249036 0,0 Z"
     fill="#ffd200"
     transform="translate(39,75)"
     id="path13"
     sodipodi:nodetypes="zcccccz" /></svg>
