<?xml version="1.0" encoding="UTF-8" standalone="no"?>
<svg
   version="1.1"
   width="100"
   height="100"
   id="svg25"
   sodipodi:docname="军.svg"
   xml:space="preserve"
   inkscape:version="1.3 (0e150ed6c4, 2023-07-21)"
   xmlns:inkscape="http://www.inkscape.org/namespaces/inkscape"
   xmlns:sodipodi="http://sodipodi.sourceforge.net/DTD/sodipodi-0.dtd"
   xmlns="http://www.w3.org/2000/svg"
   xmlns:svg="http://www.w3.org/2000/svg"><defs
     id="defs25" /><sodipodi:namedview
     id="namedview25"
     pagecolor="#ffffff"
     bordercolor="#000000"
     borderopacity="0.25"
     inkscape:showpageshadow="2"
     inkscape:pageopacity="0.0"
     inkscape:pagecheckerboard="0"
     inkscape:deskcolor="#d1d1d1"
     inkscape:zoom="2.6726618"
     inkscape:cx="-53.130553"
     inkscape:cy="84.746973"
     inkscape:window-width="1920"
     inkscape:window-height="974"
     inkscape:window-x="-11"
     inkscape:window-y="-11"
     inkscape:window-maximized="1"
     inkscape:current-layer="svg25" /><g
     id="g1"
     transform="matrix(0.81035858,0,0,0.79875682,-3.6236725,-6.4241011)"><path
       d="m 98.04918,13.25823 c 4.12123,3.880702 8.19399,10.30687 5.67973,15.985247 -2.89581,5.927698 -9.766015,7.018018 -15.337029,8.988211 -4.24185,4.78674 2.96071,12.037465 4.98334,17.048772 3.5813,4.775667 11.934869,1.433273 15.718649,7.330081 4.72016,3.505512 8.7439,8.719549 7.96125,14.935988 0.20284,6.76171 -7.32973,10.330078 -13.21932,10.421399 -5.849214,0.978998 -12.291389,-1.270037 -17.760973,0.670674 -4.628409,4.964808 -2.710532,12.261078 -3.88524,18.364378 -0.872786,8.82893 -2.818259,18.74137 -10.047267,24.62221 -5.547591,3.76959 -13.581486,0.59981 -14.721914,-6.10126 -3.514207,-10.01252 -2.269652,-20.80401 -2.781807,-31.192115 -4.695576,-2.768741 -11.613664,0.738075 -16.750349,2.24963 -6.122784,2.585461 -14.132997,2.47137 -18.720346,-2.936709 -4.016744,-3.526746 -5.297898,-8.81011 -4.674439,-13.944877 -1.28981,-8.289978 10.80548,-7.171799 15.194457,-12.450084 4.631797,-1.778528 7.054202,-8.653623 0.42072,-8.226873 -6.796851,-0.618445 -10.483201,-6.732455 -11.6542,-12.869476 -1.543207,-6.28343 0.823848,-12.660203 -0.153324,-19.016207 -2.183014,-6.566503 5.038706,-10.766875 10.636746,-8.194222 8.748183,0.591811 16.204213,-4.97575 24.484948,-6.852149 13.011313,-3.5523109 27.487986,-6.3902902 40.458276,-1.221466 1.466582,0.649654 2.872801,1.441375 4.168092,2.388848 z"
       fill="#2d2c2b"
       id="path2" /><path
       d="m 94.828251,16.033044 c 1.540183,2.290894 3.9466,4.776313 1.917645,7.843641 -6.119694,2.664641 -13.247984,1.259773 -19.579071,3.420929 0.485146,2.593873 0.0079,5.416808 -2.146156,7.146156 -2.973138,2.959403 -9.140753,4.696474 -11.546537,5.46156 1.37796,4.546555 7.140202,1.12753 10.577411,2.253528 6.694389,0.108505 11.149799,7.076845 10.203442,13.356927 0.580052,3.176142 -3.652856,1.206174 -5.598309,1.679799 -1.897823,-0.361777 -3.783687,-0.824809 -5.67693,-1.225359 l 0.187079,7.327389 c 8.398381,-0.62987 17.062407,-0.01643 25.245829,-2.212614 5.408826,1.187767 11.718666,5.808811 10.844236,12.073645 -1.04248,6.882481 -11.088585,2.792106 -16.119887,3.496944 -6.328846,-0.374601 -12.64364,-0.949431 -18.970178,-1.357975 -0.207668,10.600064 0.873304,21.357715 -1.218088,31.821326 -1.366943,6.19323 -4.262417,11.94139 -7.781952,17.17867 -6.156055,-0.9144 -4.778494,-8.08338 -5.131319,-12.64663 0.230829,-11.45181 -0.721549,-22.990916 1.130899,-34.353366 -9.821088,0.890294 -19.027451,4.73492 -27.585398,9.413425 -5.117853,2.665004 -12.101349,1.528141 -15.414602,-3.413425 -1.109888,-4.414035 -0.09087,-8.179315 4.939761,-8.891336 7.653669,-3.339469 14.731996,-7.767111 21.358691,-12.828045 -3.65209,-1.406217 -4.213387,-4.943346 -3.752561,-8.567002 -0.832719,-3.313112 3.727143,-8.07717 -1.155546,-9.018424 l -5.390385,-2.695193 c -0.123016,5.65528 -7.896256,11.982595 -10.574786,4.337617 -3.596418,-6.677842 0.736137,-14.265889 -1.100242,-21.299207 -0.982127,-5.913909 5.74164,-2.217002 8.189833,-0.459339 11.21122,-5.603599 23.678457,-8.071451 35.854906,-10.676632 7.429683,-1.432477 15.04635,-0.86181 22.564336,-0.830392 z"
       fill="#f0c600"
       id="path3"
       sodipodi:nodetypes="ccccccccccccccccccccccccccccccc" /><path
       style="fill:#2d2c2b;fill-opacity:1;stroke-width:1.3;stroke-linecap:round;stroke-linejoin:round;paint-order:stroke fill markers"
       d="m 32.458277,73.101278 c 9.076856,-4.985222 18.122438,-10.200361 28.155451,-13.048788 0.04677,2.042284 0.09354,4.084567 0.140309,6.126851 -9.629727,1.44533 -18.984183,4.142332 -28.29576,6.921937 z"
       id="path25" /><path
       d="m 56.115927,40.759072 c 2.865237,-1.098132 4.335336,3.869158 1.75977,4.86202 -2.838747,3.160192 -7.545207,1.335528 -4.339398,-2.807421 0.61123,-0.909648 1.478078,-1.796055 2.579628,-2.054599 z"
       fill="#000000"
       id="path22"
       style="fill:#2d2c2b;fill-opacity:1" /><path
       id="path7"
       d="M 96.984277,12.73543 C 99.932589,17.291991 102.38044,22.067499 101,28 c -2.556729,6.24297 -11.14283,3.758234 -15.365522,8.332005 -4.848793,3.634643 -1.236468,9.632521 1.202252,13.552524 2.458068,2.853719 3.048569,9.366042 7.667768,8.912803 L 101,59 C 98.885764,56.911919 93.970728,58.454946 92.917969,54.453125 90.525817,49.830539 87.363455,45.351738 87,40 c 3.758071,-4.399219 10.884266,-3.416536 14.74513,-8.011733 5.55267,-4.545593 3.95013,-11.861328 -0.87805,-16.952398 -1.286808,-0.79003 -2.443985,-1.859745 -3.882803,-2.300439 z M 18.017833,42.90646 c -0.11681,6.627522 3.750318,14.927813 11.032121,16.033751 2.850392,0.417775 6.272309,0.547964 4.734315,3.971167 -1.253599,1.888129 -2.063368,4.244381 1.523412,1.821715 6.621182,-2.932275 -0.0063,-9.518002 -5.020144,-9.324472 -5.364746,-1.163522 -8.008326,-6.097739 -10.11078,-10.627372 l -0.514038,-0.785156 z m 91.172737,19.696685 c 3.77336,3.943149 5.42776,9.41652 4.77372,15.037012 -0.20485,5.601614 -7.09857,6.761385 -11.57589,6.596371 C 96.604288,84.433629 90.612792,83.124615 85,85 79.78173,88.135525 80.28703,94.642059 79.64914,99.889823 78.905467,109.63327 78.645079,120.81504 71,128 64.08549,131.88436 59.790636,124.65599 58.241474,118.89925 56.828533,110.23834 57.74604,101.36647 57.160295,92.630237 54.580987,84.629964 44.565391,91.188046 39.302437,92.695684 33.206832,94.938395 25.99726,95.178899 21.037935,90.421512 18.99573,89.03233 15.650978,83.602877 14.649339,83.911286 c 0.283066,8.583916 9.403592,15.667979 17.959641,14.046436 6.861933,-1.361573 12.576601,-4.530871 19.739988,-4.505216 3.905327,0.546393 1.516785,5.77857 2.351647,8.607504 0.216101,9.38159 0.275522,19.58451 5.406814,27.86087 4.427113,5.68968 13.845985,3.06961 16.638186,-3.00327 6.348742,-9.76324 5.766986,-21.75461 6.939342,-32.890861 0.441411,-7.431959 7.959014,-6.613196 13.297471,-6.054367 C 103.19617,88.252699 109.77992,87.568845 115.0625,84 c 3.85494,-5.574815 4.44033,-14.535245 -1.42733,-18.620634 -1.40548,-1.13997 -2.74908,-2.150371 -4.4446,-2.776221 z"
       style="fill:#5f5f5f;fill-opacity:1"
       sodipodi:nodetypes="cccccccccccccccccccccccccccccccccccccccc" /><path
       style="fill:#2d2c2b;fill-opacity:1;stroke-width:1.3;stroke-linecap:round;stroke-linejoin:round;paint-order:stroke fill markers"
       d="m 50.367554,22.75304 c 7.692319,-1.730528 15.337084,-5.406327 23.372017,-4.179689 6.632978,1.232193 1.604851,5.80267 -2.627037,5.546364 -5.393146,-1.100645 -9.890454,2.025966 -14.86368,3.10517 -1.998641,-1.43646 -3.899061,-3.010301 -5.8813,-4.471845 z"
       id="path28" /><path
       style="fill:#2d2c2b;fill-opacity:1;stroke-width:1.3;stroke-linecap:round;stroke-linejoin:round;paint-order:stroke fill markers"
       d="m 34.288997,39.383971 c -1.289259,-4.616197 -3.461223,-11.872407 3.728058,-12.142613 3.772086,-0.774257 9.731331,-4.597974 12.167232,-3.66539 1.392836,5.844824 -1.403554,9.288458 -7.146792,10.595367 -3.170191,1.00017 -7.199698,1.934312 -8.748498,5.212636 z"
       id="path29" /></g></svg>
