<?xml version="1.0" encoding="UTF-8" standalone="no"?>
<svg
   version="1.1"
   width="100"
   height="100"
   id="svg18"
   sodipodi:docname="åƒ.svg"
   xml:space="preserve"
   inkscape:version="1.3 (0e150ed6c4, 2023-07-21)"
   xmlns:inkscape="http://www.inkscape.org/namespaces/inkscape"
   xmlns:sodipodi="http://sodipodi.sourceforge.net/DTD/sodipodi-0.dtd"
   xmlns="http://www.w3.org/2000/svg"
   xmlns:svg="http://www.w3.org/2000/svg"><defs
     id="defs18" /><sodipodi:namedview
     id="namedview18"
     pagecolor="#ffffff"
     bordercolor="#000000"
     borderopacity="0.25"
     inkscape:showpageshadow="2"
     inkscape:pageopacity="0.0"
     inkscape:pagecheckerboard="0"
     inkscape:deskcolor="#d1d1d1"
     inkscape:zoom="2.5272109"
     inkscape:cx="-2.7698519"
     inkscape:cy="89.624495"
     inkscape:window-width="1920"
     inkscape:window-height="974"
     inkscape:window-x="-11"
     inkscape:window-y="-11"
     inkscape:window-maximized="1"
     inkscape:current-layer="svg18" /><g
     id="g1"
     transform="matrix(0.79110799,0,0,0.79741296,-15.883779,-8.4227233)"><path
       d="m 84.246094,21.164062 c 6.747244,4.141841 11.873469,10.233397 16.098446,16.822179 3.2922,1.474914 6.85901,3.73835 7.66937,7.685828 1.08197,7.055011 -1.50837,14.672871 1.98609,21.32793 0.86202,5.288468 -1.07241,10.926811 -5.62243,13.964408 -5.001199,4.144326 -10.942834,8.246879 -12.157247,15.132303 3.390038,1.715843 11.701747,-0.994724 16.754317,-2.214534 5.97532,-2.075147 12.55371,-4.770116 15.20399,-10.996105 4.75975,-4.529134 2.77712,-16.196343 10.04396,-16.687482 4.43597,0.789548 6.40791,5.185026 9.10554,8.258442 4.4495,7.11943 2.55745,15.771245 2.97276,23.723763 0.20614,8.988876 -2.69162,19.181766 -11.30974,23.532766 -9.89448,5.45622 -21.59939,5.42504 -32.60003,5.39399 C 92.409088,126.38365 81.25921,123.81229 74.678068,115.6792 70.795083,110.55582 69.380831,104.14504 68,97.999999 c -4.51348,-2.432129 -8.479452,1.430869 -12.235185,3.436941 -5.632857,3.20533 -11.121064,6.67146 -16.095297,10.8378 -4.820754,3.1529 -11.357433,1.98789 -14.85575,-2.54305 -5.17454,-5.15076 -4.653431,-13.186938 -4.735878,-19.937814 0.630936,-10.71189 0.592715,-21.520765 2.337685,-32.121752 0.804048,-6.834382 7.470036,-5.861476 12.343869,-4.319993 5.952873,3.573408 11.543527,-1.711149 17.856406,-0.04268 2.461856,0.225411 4.925735,0.428852 7.38415,0.690553 4.941579,-8.876922 8.972791,-18.538446 9.584091,-28.783615 1.050993,-5.885662 9.179379,-7.272347 13.747615,-4.50586 z"
       fill="#2e2e2c"
       id="path2" /><path
       d="m 28.027302,55.244618 c 4.780949,-1.570351 7.663812,5.166397 12.529775,4.489487 4.52797,-3.001913 10.739284,-4.630094 15.925132,-1.359507 7.051373,2.513873 4.9352,10.519706 0.508545,14.396678 -1.109269,1.666855 -4.589588,5.57051 -0.713556,2.05723 1.970644,-2.05775 6.106544,-3.74354 3.72514,0.849522 -1.489673,5.052404 -3.192651,10.119726 -5.925717,14.652563 -3.749214,2.354127 -7.829593,3.940484 -11.981936,5.381692 -3.575379,1.317817 -6.734518,3.663277 -8.50853,7.169307 -2.949195,6.68384 -10.442147,-2.34856 -9.055442,-7.240476 -1.05908,-12.942015 0.767684,-25.900186 2.488885,-38.706451 l 0.279935,-0.901659 z"
       fill="#eec400"
       id="path4" /><path
       d="M 87,24 C 92.622082,26.322504 98.664406,34.924152 99.828952,38.033843 93.288785,36.077432 90.172807,29.431003 87,24 Z"
       fill="#606060"
       id="path14" /><path
       d="m 100.54408,38.272039 c 7.64907,1.621059 8.50173,9.752506 7.53906,16.170676 -0.99428,5.397349 1.70793,10.336485 2.05313,15.512821 0.25104,5.029242 -2.98062,9.167945 -6.86239,11.961996 C 98.168959,85.726708 93.068759,90.368752 92,97 c -6.302921,0.412139 1.392597,-8.061515 3.058675,-11.346786 2.652259,-5.067364 9.611485,-6.9178 10.941965,-12.671583 1.56193,-5.919127 -3.28151,-10.956873 -2.03994,-16.890812 0.93589,-5.182616 1.55611,-10.962341 -1.87208,-15.445413 -0.49838,-0.801723 -1.02133,-1.587764 -1.54454,-2.373367 z"
       fill="#5f5f5f"
       id="path8" /><path
       d="m 138.59354,68.752692 c 6.21407,4.89482 8.37806,13.059246 7.7992,20.668994 0.0108,9.897955 0.80145,21.279734 -6.76774,28.890814 -9.51956,8.57355 -23.06207,8.624 -35.15107,8.87721 C 94.006792,126.79763 82.361465,124.40466 75.11854,116.2489 70.918191,111.05024 69.424369,104.37207 68,98 c -4.51348,-2.432129 -8.479453,1.430868 -12.235185,3.43694 -5.632858,3.20533 -11.121064,6.67146 -16.095297,10.8378 -4.825388,3.1575 -11.356068,1.98067 -14.864138,-2.54259 -3.65966,-1.26634 -2.88269,-10.794339 -0.21225,-5.41775 1.895,3.07597 4.36057,6.29843 8.40687,6.1856 7.107318,-0.23372 11.530578,-6.79232 17.565258,-9.64358 4.544134,-2.473239 8.851281,-5.415222 13.481617,-7.694311 8.098304,-1.522351 6.635426,9.206761 8.934522,13.972741 3.413178,9.9175 13.981095,14.49432 23.661026,15.65548 9.989427,0.78991 20.275017,1.04731 30.078617,-1.32887 6.49666,-1.61202 12.47197,-5.97424 14.45777,-12.59833 2.95044,-8.37723 2.6129,-17.573501 1.49739,-26.243295 -0.54315,-4.911772 -4.38675,-8.887 -4.08266,-13.867143 z"
       fill="#5f5f5f"
       id="path7" /><path
       d="m 93.631307,60.100267 c 3.303628,0.746592 8.127513,1.089731 8.770793,5.102134 0.58502,4.148953 -3.081524,6.567803 -6.600507,7.396918 -5.77656,1.996297 -9.354956,7.436864 -11.968402,12.62191 -2.835442,4.449728 -5.143354,10.896169 -1.663342,15.606291 9.689872,3.01401 19.806021,-1.064779 28.961791,-4.214241 5.36928,-2.421553 11.53594,-4.265215 15.60361,-8.724509 3.1745,-3.484784 2.67453,-8.543166 4.29558,-12.755092 0.49247,-4.139935 4.78288,-9.630883 5.15566,-2.485933 1.77066,8.539899 1.53261,17.36359 1.35953,26.034709 -0.91631,7.241666 -5.92492,14.811136 -13.69204,15.713546 -9.17524,1.6785 -18.58015,1.22675 -27.860283,1.10363 -7.313811,-0.53295 -14.989061,-3.19066 -19.926964,-8.77228 -3.112535,-4.92664 -2.489249,-11.287031 -1.32521,-16.738444 1.493441,-5.564323 4.832018,-10.414226 8.654168,-14.642677 -3.842652,2.955939 -7.564395,6.092315 -10.397243,10.038396 C 68.307573,88.290253 57.22255,80.088444 62.606872,75.331093 69.419275,70.506638 77.15999,67.14653 84.188791,62.71068 c 2.39771,-2.465418 6.074686,-4.051278 9.442516,-2.610413 z"
       fill="#f5ca00"
       id="path3" /><path
       d="m 78.875,23.250405 c 6.097446,1.405683 12.155191,8.568336 7.050781,14.296875 -1.825248,3.439012 6.734122,0.240216 9.317127,2.260568 7.785442,0.507486 6.695602,10.826707 -0.05342,11.729305 -6.836504,0.390738 -12.507636,4.587695 -16.75242,9.724417 -2.409105,5.103808 -9.060701,6.851642 -11.82614,1.040766 C 64.614259,57.650747 64.112878,52.14116 66.87106,47.692717 69.313197,41.458365 72.142908,35.158505 72.941478,28.459856 71.971456,24.60948 75.386429,22.912968 78.875,23.250405 Z"
       fill="#edc300"
       id="path5" /><path
       d="m 37,68 c 2.557659,-0.331667 5.107205,-0.715322 7.643001,-1.187079 -2.373757,4.306395 -4.94799,9.084073 -9.593539,11.275235 0.19668,-3.348042 0.230251,-6.731717 1.832288,-9.772755 l 0.116678,-0.311208 z"
       fill="#2b2b2b"
       id="path11" /></g></svg>
