<?xml version="1.0" encoding="UTF-8" standalone="no"?>
<svg
   version="1.1"
   width="420"
   height="400"
   id="svg484"
   sodipodi:docname="圆.svg"
   inkscape:version="1.3 (0e150ed6c4, 2023-07-21)"
   xmlns:inkscape="http://www.inkscape.org/namespaces/inkscape"
   xmlns:sodipodi="http://sodipodi.sourceforge.net/DTD/sodipodi-0.dtd"
   xmlns="http://www.w3.org/2000/svg"
   xmlns:svg="http://www.w3.org/2000/svg">
  <defs
     id="defs484" />
  <sodipodi:namedview
     id="namedview484"
     pagecolor="#ffffff"
     bordercolor="#000000"
     borderopacity="0.25"
     inkscape:showpageshadow="2"
     inkscape:pageopacity="0.0"
     inkscape:pagecheckerboard="0"
     inkscape:deskcolor="#d1d1d1"
     inkscape:zoom="1.3173759"
     inkscape:cx="225.44819"
     inkscape:cy="183.31898"
     inkscape:window-width="1920"
     inkscape:window-height="974"
     inkscape:window-x="-11"
     inkscape:window-y="-11"
     inkscape:window-maximized="1"
     inkscape:current-layer="svg484" />
  <path
     id="path3"
     style="stroke-width:1.00141"
     d="M 197.32812 -0.390625 C 179.89869 -0.78167067 163.24181 4.6781003 147.35938 11.685547 C 129.07833 12.955916 118.7407 27.006129 102.07617 31.615234 C 83.921294 41.963134 67.738892 56.991127 51.984375 71.480469 C 28.879245 102.38557 12.753412 139.01999 8.0117188 177.5293 C 3.6601054 200.63183 10.377308 223.7132 3.5820312 246.54102 C 8.3661815 257.23646 -3.8037465 257.97686 5.3671875 263.88281 C 25.414275 272.42429 14.564269 301.91072 23.675781 314.39062 C 29.529547 311.14421 45.02914 336.09001 51.556641 339.44727 C 67.783243 347.12915 76.879192 360.88256 96.876953 365.69922 C 106.35661 384.09861 123.65047 376.20247 137.40625 378.04883 C 161.92799 378.75922 183.85694 394.14272 208.64062 391.34766 C 211.65559 394.01867 186.72824 391.55108 178.94727 389.82422 C 163.49097 384.64412 165.24639 395.3213 178.29492 397.70508 C 195.85664 402.03824 214.27616 397.26315 232.33008 398.2793 C 269.79451 391.78438 309.63946 382.61126 338.43555 356.16016 C 380.24748 325.26676 409.48361 277.61232 417.49023 226.11523 C 419.59391 200.06878 421.02337 172.32773 411.00586 147.6543 C 395.56205 96.945581 360.70536 52.106963 314.9043 25.164062 C 284.48661 8.2922314 249.70722 -2.3597795 214.63672 0.26171875 C 211.3725 0.28506174 208.10696 0.2173183 204.84375 0.14648438 C 202.32229 -0.16078453 199.81804 -0.33476133 197.32812 -0.390625 z M 205.76562 38.566406 C 214.7059 38.239515 223.66897 38.639072 232.49023 39.705078 C 252.21894 43.347297 273.94603 46.387781 290.69141 57.724609 C 312.60958 67.533462 331.22157 83.919455 343.64648 104.4043 C 358.15515 119.9858 362.10886 140.90428 369.27344 160.10156 C 376.75903 191.68381 373.16215 225.97853 360.35938 255.90039 C 355.21028 267.31845 349.53857 281.68594 341.21875 292.11719 C 339.85268 292.32367 338.77911 294.07703 337.74609 296.18945 C 334.50426 299.47228 330.88913 302.14112 326.77734 303.83398 C 312.85253 324.93323 287.47749 336.01109 264.45117 344.70508 C 264.34164 344.78597 264.16919 344.85666 264.04688 344.93555 C 258.39284 346.71587 252.62311 348.07397 246.74023 348.89453 C 244.08615 349.09537 241.77918 349.1482 240.16992 349.00391 C 243.44879 347.75464 252.65028 347.36939 255.2207 342.72266 C 250.07575 343.7092 244.91162 344.87001 239.72266 345.83594 C 236.56033 346.18428 231.11021 346.84113 223.39062 347.78906 C 220.06522 347.8849 216.72871 347.75408 213.37891 347.28516 C 212.93704 348.07154 212.34663 348.69493 211.64844 349.19336 C 210.15274 349.37525 208.63283 349.55393 207.54297 349.68359 C 207.11158 350.08875 207.23597 350.42265 207.62109 350.7207 C 204.86464 351.23093 201.68344 351.1388 198.91406 351.19922 C 198.67029 355.03608 210.99069 351.82526 215.23633 353.43555 C 220.69702 355.78066 224.19455 353.3297 228.99609 352.69141 C 228.44951 353.72855 226.97207 354.52466 224.8125 355.11914 C 215.85112 355.81428 206.79089 356.86027 197.83008 356.41602 C 197.58544 356.40455 197.33487 356.39887 197.0918 356.38672 C 193.78624 356.19121 190.49546 355.78366 187.23242 355.06055 C 185.37583 354.74737 184.29038 354.89766 183.77148 355.29883 C 183.49502 355.26537 183.00593 355.24253 182.74609 355.20898 C 183.01593 355.34198 183.28838 355.42731 183.55859 355.55469 C 182.66137 356.95036 186.10818 360.09632 189.35352 360.17969 C 192.65512 361.07852 195.97053 361.66663 199.29297 362.04492 C 195.28636 362.00057 191.29208 361.88554 187.30859 361.70508 C 184.28117 361.11794 181.28542 360.48945 178.69922 361.25586 C 178.56127 361.24711 178.42109 361.24322 178.2832 361.23438 C 178.38367 361.25651 178.48543 361.26916 178.58594 361.29102 C 177.67943 361.57564 176.81874 362.01731 176.0332 362.72266 C 186.89274 365.69041 198.23658 366.098 209.43164 366.0332 C 220.97675 364.82472 233.45828 368.49394 244.19531 362.72266 L 236.57422 362.72266 C 243.51097 361.38555 253.73894 358.94697 261.58984 355.97266 C 267.97379 354.41237 274.82061 349.72607 280.7207 347.85547 C 280.62012 347.97178 280.57908 348.04773 280.45508 348.17969 C 280.59555 348.42183 280.77687 348.55583 280.93359 348.75391 C 276.10606 352.92281 291.38013 355.24175 290.31055 347.78711 C 290.37134 347.74804 290.43895 347.69014 290.5 347.65039 C 299.79579 344.61911 307.56233 338.57549 315.33008 332.80469 C 309.61121 337.47587 300.31781 344.78783 298.12695 348.01953 C 265.44533 365.97026 227.9102 374.53289 190.70508 373.86719 C 170.77242 375.90299 153.65866 365.10841 136.09766 357.78906 C 137.44214 362.60372 128.35312 364.86512 120.64453 357.51172 C 106.1362 345.94081 133.05357 361.185 126.24609 348.80469 C 123.78701 348.08111 162.70851 338.52972 136.51172 333.5332 C 136.11086 319.985 128.50361 314.72694 116.23438 313.42578 C 104.7899 300.91368 98.643155 284.1073 90.767578 269.12305 C 69.678373 219.95487 67.056152 157.06285 103.2168 114.125 C 114.67263 97.183279 133.79183 88.786194 147.79297 74.621094 C 177.19275 58.074491 212.54921 55.064257 245.29688 61.167969 C 272.5729 69.993512 299.53736 84.246447 317.44531 107.30469 C 342.3278 136.84351 349.37246 177.26088 343.32617 214.6582 C 341.13332 235.76154 334.83551 256.30268 321.37891 273.06055 C 308.83562 289.08902 325.15721 274.42295 328.89453 266.45508 C 335.71807 250.67615 334.40793 267.05603 331.02734 274.30859 C 323.12267 293.60488 338.17443 270.64887 339.07031 262.28516 C 345.19505 232.6405 353.30238 203.31317 354.57422 172.87305 C 350.00204 150.22458 343.57355 126.07829 329.20508 107.20312 C 339.68369 132.31927 320.96661 98.243767 311.74219 93.740234 C 267.12524 47.124925 188.69973 38.232171 134.87305 73.884766 C 116.41383 85.072935 103.4693 102.05493 89.240234 117.73047 C 73.333384 129.63188 83.776456 112.69545 90.972656 107.13281 C 92.952085 85.50704 114.3355 74.621494 130.31055 62.726562 C 152.32368 47.063846 178.94481 39.54708 205.76562 38.566406 z M 318.99805 329.64453 C 318.89008 329.74781 318.89377 329.77465 318.76172 329.89453 C 318.84021 329.81681 318.91995 329.71099 318.99805 329.64453 z M 267.17383 350.42969 C 261.86352 352.79105 256.40951 354.65987 250.87305 356.21094 C 248.74149 356.79194 246.59907 357.32754 244.44531 357.81836 C 243.09966 358.1247 241.753 358.42388 240.39844 358.69141 C 238.40595 359.09256 236.40493 359.4484 234.39844 359.77734 C 231.11233 360.29179 227.8157 360.75163 224.49609 361.07617 C 235.06716 359.34405 245.53918 356.33979 255.69141 353.46484 C 257.43198 353.00804 264.61925 350.98147 267.17383 350.42969 z " />
</svg>
