<?xml version="1.0" encoding="UTF-8" standalone="no"?>
<svg
   version="1.1"
   width="100"
   height="100"
   id="svg20"
   sodipodi:docname="将.svg"
   xml:space="preserve"
   inkscape:version="1.3 (0e150ed6c4, 2023-07-21)"
   xmlns:inkscape="http://www.inkscape.org/namespaces/inkscape"
   xmlns:sodipodi="http://sodipodi.sourceforge.net/DTD/sodipodi-0.dtd"
   xmlns="http://www.w3.org/2000/svg"
   xmlns:svg="http://www.w3.org/2000/svg"><defs
     id="defs20" /><sodipodi:namedview
     id="namedview20"
     pagecolor="#ffffff"
     bordercolor="#000000"
     borderopacity="0.25"
     inkscape:showpageshadow="2"
     inkscape:pageopacity="0.0"
     inkscape:pagecheckerboard="0"
     inkscape:deskcolor="#d1d1d1"
     showguides="false"
     inkscape:zoom="3.8917062"
     inkscape:cx="14.646532"
     inkscape:cy="57.429823"
     inkscape:window-width="1920"
     inkscape:window-height="974"
     inkscape:window-x="-11"
     inkscape:window-y="-11"
     inkscape:window-maximized="1"
     inkscape:current-layer="svg20" /><g
     id="g1"
     transform="matrix(0.83714517,0,0,0.83714997,-11.557178,-5.4937967)"><path
       d="m 0,0 c 5.3240653,0.08674648 8.8852117,3.3783028 13,6.4375 1.685336,1.1697906 3.372863,2.3364308 5.0625,3.5 1.64594,1.166515 3.291777,2.333177 4.9375,3.5 l 2.304687,1.566406 C 29.531059,17.968559 32.459652,20.303008 34,25.4375 c -0.141082,2.868677 -0.411177,5.230534 -1,8 l -0.523438,2.511719 C 32.006723,38.117971 31.514641,40.279007 31,42.4375 l 2.5,0.625 c 5.94564,2.335787 10.950738,6.014245 14.5,11.375 1.004612,3.372628 1.241957,5.274128 0.125,8.625 -2.657464,2.970107 -5.29971,4.043428 -8.96875,5.480469 -2.387578,0.90898 -2.387578,0.90898 -5.15625,2.894531 -0.405453,3.082128 -0.405453,3.082128 -0.25,6.625 l 0.07813,3.851562 c 0.124643,2.555172 0.297242,5.000177 0.671875,7.523438 1.222969,8.326983 2.125669,17.66273 -2.5,25 -2.750861,3.25102 -5.163905,4.33932 -9.3125,4.75 -9.985014,-0.37538 -20.5430268,-7.10398 -27.6875,-13.75 -3.8338077,-5.18308 -5.747,-10.735002 -7,-17 h -2 l 0.175781,3.21875 c 0.549788,14.18384 0.549788,14.18384 -3.558593,19.41797 -2.962319,2.49722 -5.76051,3.37806 -9.617188,3.36328 -4.686453,-1.2553 -7.085569,-3.01208 -10.5,-6.375 -4.627753,-4.31924 -9.957192,-5.65553 -15.914062,-7.28906 C -58.461959,98.892849 -61.767736,96.329905 -64.75,91.75 -66.372837,87.449483 -67.722326,83.046885 -68,78.4375 c 2.484674,-3.727011 3.673842,-3.684411 7.9375,-4.625 3.087043,-0.697679 6.058874,-1.373791 9.0625,-2.375 L -52.460937,69.792969 -54.375,67.625 -56.273437,65.480469 c -3.199295,-3.785591 -3.868023,-5.77869 -3.730469,-10.703125 0.0069,-4.137999 -1.127083,-9.484446 -0.817626,-11.583223 0.309457,-2.098778 2.593763,-3.568034 3.548315,-3.802045 0.954552,-0.234011 3.88428,1.017801 3.88428,1.017801 0.917213,0.235677 3.931251,0.394283 6.138937,0.09012 L -43.703125,40.47266 -41,40.4375 c 1.597167,-4.302573 2.366053,-8.175963 2.6875,-12.75 l 0.261719,-2.137091 c 0.268302,-2.779083 -0.841861,-3.478963 -0.242588,-6.369866 0.599273,-2.890903 3.056705,-3.662577 6.418369,-4.805543 4.736426,0.07639 7.417706,1.572361 11.445313,3.933594 2.691476,1.250541 4.498094,1.342777 7.429687,1.128906 l 0.777344,-2.078125 C -10.821686,14.011368 -9.1664025,10.878209 -7.4375,7.6875 L -5.5585937,4.203125 C -3.4755218,0.50684693 -3.4755218,0.50684693 0,0 Z"
       fill="#2e2d2c"
       id="path2"
       sodipodi:nodetypes="ccccccccccccccccccccccccccccccccccczzcccccczccccccc"
       transform="translate(83,6.5625)" /><path
       d="m 81,10 c 6.337266,-0.674866 11.54102,5.090222 10.058555,11.331454 1.413151,0.22951 7.693653,-3.076478 10.390385,0.542971 3.60653,2.168541 10.36568,6.965867 6.21146,11.461024 -2.78232,1.137934 -6.52128,1.863806 -6.32687,5.996901 -1.31431,2.616787 2.67812,3.92108 2.08241,6.589479 -1.27937,3.07183 -0.89119,3.895759 2.29635,4.963628 2.33737,-0.09294 2.10272,3.082787 3.65458,2.770599 3.82804,-1.580463 7.9464,-0.162105 11.1033,2.240098 6.74368,3.354657 0.17032,10.590875 -5.4353,8.462005 -2.90391,-0.174453 -5.80748,-0.14547 -8.71367,-0.04126 -0.39877,8.723148 -0.32656,17.507756 1.52954,26.077326 0.66854,6.587575 1.06198,13.222105 1.15619,19.840345 -0.4675,4.43559 -5.82803,7.02395 -9.671233,4.73434 -6.590898,-3.36994 -12.790707,-7.4369 -19.445072,-10.68766 -3.061397,-1.69357 -3.751919,-5.519861 0.366748,-3.998 C 86.838249,100.8555 93.419124,101.42775 100,102 100,90.333333 100,78.666667 100,67 89.993023,68.398432 81.354286,73.936549 71.846662,76.947066 67.06638,78.306313 63.290942,82.775019 58,82 c -0.62485,8.102675 1.640948,15.995209 2.091882,24.01503 -0.862569,7.03742 -11.617835,5.6164 -13.998429,-0.19175 -2.861664,-2.96672 -4.96267,-6.890091 -4.147223,-11.165435 -0.342922,-1.091896 -3.187217,1.455276 -4.643908,1.757041 -2.710224,1.922952 -5.950528,1.806318 -8.999275,0.627631 C 23.43223,95.147789 18.114822,90.828659 19,85 26.456334,83.587011 34.011246,81.840001 40.39472,77.525833 45.381014,75.307593 45.102899,68.677778 46,64 39.632236,62.682362 33.001778,63.60795 27,66 c 0.370604,-2.99495 1.069905,-5.970218 1,-9 -3.32105,-1.633791 -1.921652,-7.391756 2.030519,-6.142069 4.677753,-0.31471 9.672488,-0.61974 13.768963,2.15106 5.337977,5.067518 2.976814,-5.06754 4.066977,-8.418871 0.296874,-5.413065 1.243586,-10.843586 0.996325,-16.245873 -2.335547,-4.615177 7.545422,-4.310307 9.498871,-1.019047 5.96761,3.884177 9.538622,10.771838 5.95392,17.53711 -1.486645,6.581519 -3.706034,13.046719 -4.587003,19.737136 -0.897829,4.086447 0.298362,8.317062 4.998831,5.742737 2.307462,-0.735618 4.113521,-1.432703 2.169039,-3.159958 1.27535,-4.110088 4.471567,-7.3955 6.791058,-10.994725 2.931019,-2.962344 6.743563,-9.131834 0.550713,-10.411926 -5.049708,-0.640567 -7.694545,-4.701108 -7.172497,-9.736826 1.962926,-4.961383 6.002087,-8.838153 8.244855,-13.716844 C 77.465858,18.340324 79.318863,14.201681 81,10 Z"
       fill="#ecc200"
       id="path3" /><path
       d="m 87.572935,79.378478 c 2.761128,1.718036 4.800163,3.19588 6.8125,5.75 v 4 c -4.213165,2.106583 -8.117912,1.903931 -12.593695,1.08337 -3.736759,-1.509075 -6.323617,-3.667761 -8.406305,-7.08337 v -3 c 4.639193,-2.969083 9.171952,-2.716881 14.1875,-0.75 z"
       fill="#e2ba00"
       id="path7"
       sodipodi:nodetypes="ccccccc" /><path
       d="m 24.477197,68.084902 c 4.472386,1.418073 9.771409,4.269348 14.059946,6.156305 -1.803565,1.568346 -2.980208,2.514946 -4.674511,3.486087 -1.903641,-0.321196 -1.646684,-0.385435 -3.373247,-2.100279 l -2.637188,-2.479613 -1.914063,-2.214844 c -1.460937,-1.847656 -1.460937,-1.847656 -1.460937,-2.847656 z"
       fill="#5e5e5e"
       id="path16"
       sodipodi:nodetypes="ccccccc" /><path
       d="m 17.31587,90.775554 1.125,1.5625 1.875,2.4375 1.289063,1.71875 c 4.0125,5.063896 7.746216,7.309246 14.132812,8.874996 5.808818,1.47861 9.082218,3.19872 13.007813,7.78516 2.602595,2.68675 4.888207,3.53583 8.570312,3.99609 3.691886,-0.46149 4.724023,-1.50896 7,-4.375 1.725541,-3.45108 0.993365,-7.60765 0.873047,-11.41406 -0.51598,-3.689621 -0.07811,-6.530456 2.126953,-9.585936 2.375,-1 2.375,-1 5,-1 2.3125,1.9375 2.3125,1.9375 4,4 h -3 l -0.09152,3.272544 -1.690117,-1.45474 -0.218362,-1.817804 h -2 c 0.05801,1.062187 0.116016,2.124375 0.175782,3.21875 0.549787,14.183836 0.549787,14.183836 -3.558594,19.417966 -2.962319,2.49722 -5.76051,3.37806 -9.617188,3.36328 -4.686452,-1.2553 -7.085568,-3.01208 -10.5,-6.375 -4.627753,-4.31924 -9.957192,-5.65553 -15.914062,-7.28906 -5.233055,-1.94957 -8.500465,-4.563 -11.460938,-9.398436 -1.125,-2.9375 -1.125,-2.9375 -1.125001,-6.9375 z"
       fill="#5f5f5f"
       id="path6"
       sodipodi:nodetypes="cccccccccccccccccccccccc" /><path
       d="m 110.08855,23.808525 c 2.97344,1.025324 3.99861,1.997979 5.8125,4.625 1.839,4.038433 1.52763,7.435466 0.1875,11.375 -0.17273,0.828867 -0.34547,1.657734 -0.52343,2.511718 -0.46984,2.168752 -1.53459,6.183312 -1.11318,6.533706 0,0 2.6913,1.921763 2.56847,2.135599 -0.12282,0.213836 -2.90618,-0.586055 -6.34068,-2.317295 -0.18668,-2.026495 -0.63655,-4.614454 1.40882,-8.301228 1.31969,-3.381707 1.32185,-5.957818 1,-9.5625 -1.40759,-2.76442 -1.40759,-2.76442 -3,-5 z"
       fill="#5f5f5f"
       id="path10"
       sodipodi:nodetypes="ccccszccccc" /><path
       d="m 123.19718,54.265418 c 3.82017,1.500781 6.2988,3.841665 8,7 0.99786,3.388482 1.25628,5.231178 0.125,8.625 -2.65746,2.970107 -5.29971,4.043428 -8.96875,5.480469 -2.38758,0.90898 -2.38758,0.90898 -5.15625,2.894531 -0.40545,3.082128 -0.40545,3.082128 -0.25,6.625 0.0258,1.271016 0.0516,2.542032 0.0781,3.851563 0.12464,2.555171 0.29724,5.000176 0.67187,7.523437 1.22297,8.326982 2.12567,17.662722 -2.5,24.999992 -2.75086,3.25102 -5.1639,4.33932 -9.3125,4.75 -10.014819,-0.37649 -20.500639,-7.12083 -27.687499,-13.75 -2.190565,-2.93112 -4.16022,-5.77737 -3.681359,-9.43153 0.53367,0.65227 1.748709,1.73606 2.298549,2.4081 5.20987,6.11123 10.17334,10.47128 17.38281,14.02343 0.70254,0.35063 1.40508,0.70125 2.12891,1.0625 4.975879,2.18121 8.603009,2.34232 13.871089,0.9375 3.12851,-3.04828 4.82569,-5.74607 5.16797,-10.17187 0.0523,-6.90849 -0.74252,-13.525344 -1.71484,-20.359372 -1.4281,-10.932371 -1.4281,-10.932371 1.54687,-15.46875 1.93259,-1.306696 2.25056,-1.806359 4.60212,-2.681359 3.68752,-1.491578 5.71848,-2.317714 8.39788,-5.318641 h 0.0241 c 0.93696,-1.582694 0.39453,-3.20928 -0.39906,-4.8125 -0.44086,-0.89332 -0.88172,-1.78664 -1.33593,-2.707031 -1.30774,-2.626033 -1.30774,-2.626033 -3.28907,-5.480469 z"
       fill="#5f5f5f"
       id="path5"
       sodipodi:nodetypes="sccccccccccccccccccccccccs" /><path
       d="M 0.72678331,-0.59051144 2.044751,0.45558546 c -3.25,6.50000004 -3.3408479,7.86271874 -7.0908479,10.36271854 0,0 -3.3832827,1.253498 -4.4858349,1.09173 -1.1025522,-0.161769 -1.7853632,-1.046306 -1.7853632,-1.046306 2.2348065,-5.5687543 7.510396,-8.3860963 12.04407831,-11.45423944 z"
       fill="#2b2b2b"
       id="path11"
       sodipodi:nodetypes="ccczcc"
       transform="translate(91,28)" /><path
       d="m 0.49983067,-0.73808196 c 0,0 -0.64082257,0.54788826 -1.01777125,0.94087979 C -0.77017194,0.46576411 -0.84881757,0.59776439 -1.1151459,1.1722008 0.83254854,2.6510773 1.638099,6.5139134 1.638099,6.5139134 -2.0493415,6.6989752 -5.8048319,8.6549544 -8.7597656,9.8671875 -11.677565,11.13711 -14.906843,12.610272 -18.54174,13.445381 l 2.376849,-5.2248367 4.421848,-4.8029897 c 1.273886,-1.119816 1.722986,-1.4505302 2.9791296,-2.1267391 l 3.0087235,-1.44923257 c 2.5020312,-0.90858433 5.45419115,-1.16538513 6.25502057,-0.57966489 z"
       fill="#323027"
       id="path9"
       sodipodi:nodetypes="csccccccccc"
       transform="translate(100,51)" /></g></svg>
