<?xml version="1.0" encoding="UTF-8" standalone="no"?>
<svg
   version="1.1"
   width="400"
   height="400"
   id="svg433"
   sodipodi:docname="点.svg"
   inkscape:version="1.3 (0e150ed6c4, 2023-07-21)"
   xmlns:inkscape="http://www.inkscape.org/namespaces/inkscape"
   xmlns:sodipodi="http://sodipodi.sourceforge.net/DTD/sodipodi-0.dtd"
   xmlns="http://www.w3.org/2000/svg"
   xmlns:svg="http://www.w3.org/2000/svg">
  <defs
     id="defs433" />
  <sodipodi:namedview
     id="namedview433"
     pagecolor="#ffffff"
     bordercolor="#000000"
     borderopacity="0.25"
     inkscape:showpageshadow="2"
     inkscape:pageopacity="0.0"
     inkscape:pagecheckerboard="0"
     inkscape:deskcolor="#d1d1d1"
     inkscape:zoom="1.3173759"
     inkscape:cx="75.149394"
     inkscape:cy="207.60969"
     inkscape:window-width="1920"
     inkscape:window-height="974"
     inkscape:window-x="-11"
     inkscape:window-y="-11"
     inkscape:window-maximized="1"
     inkscape:current-layer="svg433" />
  <path
     id="path2"
     d="m 181.96245,5.050666 c -15.16918,-0.094836 -39.56798,13.693178 -47.9535,12.983897 -15.112,1.273052 -24.56681,9.28868 -37.743635,14.874405 -10.958949,4.841031 -18.652132,17.774153 -24.371667,25.016116 -8.774137,8.113937 -20.618266,18.896666 -20.881956,32.90968 -9.90718,9.939756 -8.393095,25.371276 -17.397865,36.092366 -4.675517,3.5242 -9.169573,29.34227 -10.60121,14.76806 -4.87829,6.21843 -5.323305,24.6142 -6.6e-5,8.47677 1.17607,10.10216 -6.833924,30.5264 -4.999769,41.38638 -0.02675,26.70853 3.273435,53.41258 11.795957,78.763 -1.755938,10.05417 9.32969,31.04348 8.844263,30.6255 -12.537647,-21.26971 -20.4797,-44.98389 -26.311837,-68.8445 -3.6338407,-19.26158 -3.8361933,-38.96243 -3.3280759,-58.49473 -10.2612244,2.57691 -6.2911662,24.90936 -8.83894677,34.90528 -2.13888553,16.88113 4.34223497,32.13027 9.33377097,46.88223 1.3940507,6.63415 1.6565827,9.94651 5.5049877,13.94974 6.90373,9.61136 1.675376,14.23758 7.543131,21.11557 2.958123,7.58073 7.145453,13.50993 6.705382,21.01058 4.168794,9.02042 6.335562,-2.93683 7.805935,10.52185 1.569817,7.67251 8.897662,11.17044 11.759505,16.42271 -1.326763,8.3989 0.270264,9.33448 11.184561,14.69938 -7.516752,-9.65852 -8.5938,-10.22109 1.999934,-6.98084 6.385137,13.71934 20.917023,21.43609 34.354336,28.26228 13.506505,9.79042 33.199575,18.01887 47.642955,19.48629 -9.31025,-5.60874 -22.57946,-7.27986 -30.3147,-16.43443 C 95.970976,365.59189 75.371368,354.8005 65.159685,335.54598 54.565302,328.75851 49.486675,318.54997 43.092486,307.37315 c 13.279554,19.98775 31.50177,37.82658 50.523289,53.03429 7.777865,6.18833 20.580225,10.27403 26.393665,15.64456 7.35911,4.33646 33.5383,14.20263 31.17967,8.92987 -7.71394,-3.0502 -20.796,-7.98705 -5.25343,-3.17822 19.49778,3.61437 38.94801,9.31983 59.07095,8.21003 -19.57051,-4.91033 -44.5023,-5.88743 -64.09874,-16.05501 C 118.1141,363.97031 97.288827,349.42633 79.529034,331.97725 66.775791,318.61013 55.706527,303.60927 47.011844,287.29559 42.48385,282.28125 29.997593,248.24896 40.031063,272.25428 c 10.899838,17.68918 19.559774,36.93093 36.341729,50.41462 6.515262,6.38201 12.112581,11.58673 18.827654,16.9464 34.621514,27.42335 79.012304,42.78064 123.309634,39.63104 17.7853,-0.85053 35.91015,-3.451 52.49437,-10.1752 -6.91046,-7.17093 -7.54533,0.27694 -16.78435,2.63203 -17.2512,4.69108 -34.24913,-0.6499 -51.04696,-1.57979 -14.92964,4.7313 -11.80595,-5.86684 -0.11025,-3.04677 -1.19694,-4.85339 9.2464,-3.13417 1.94374,0.99726 10.4312,0.4496 19.62512,-1.71852 13.86048,-6.22355 4.32024,-6.80378 -10.21506,-2.60695 -14.50344,-3.74908 -13.03419,-6.69934 17.96198,-2.60762 23.99218,-4.36792 30.48528,-2.48401 59.20971,-15.55893 83.64725,-33.528 11.54312,-10.75841 27.1063,-25.7671 36.00326,-41.44891 20.9525,-34.19953 25.543,-75.91021 20.99485,-115.12138 -3.8571,-5.40388 -4.30632,-18.73649 -8.9997,-26.9261 5.08494,-3.81127 -7.23216,-17.13811 -9.77309,-23.41254 -10.47893,-16.3208 8.48445,3.66148 9.61948,10.90916 8.58757,4.62966 -3.77886,-14.65193 -6.30038,-17.9163 3.91518,0.90882 13.81572,28.80838 12.45379,10.63126 4.71737,11.20456 8.33254,23.7776 13.12457,35.43295 4.82232,9.93173 8.67066,17.59774 6.52039,30.29196 3.7507,1.42335 3.85089,9.55609 3.35409,16.45724 0.40781,6.11328 0.15688,17.13034 -2.99983,8.91051 -4.01604,7.80554 -1.07287,14.16673 2.88835,9.58851 2.55299,9.74333 -8.27143,7.76813 -5.88832,16.56206 -2.13798,14.05539 6.82549,8.97196 0.29024,23.1732 -7.07692,20.70006 -22.19329,37.16532 -35.28908,53.89299 8.93194,-3.8895 13.93043,-14.84839 20.37261,-22.46638 3.91509,-6.35851 11.43986,-18.03551 5.38183,-4.57429 -2.53273,12.53149 11.06191,-13.3073 11.34199,-18.03095 4.78446,-13.5668 9.82997,-23.2821 9.31293,-38.91546 -1.68729,-13.83752 8.02625,-22.49734 2.41522,-29.0994 -0.59256,-12.83054 -2.10317,-21.2203 -2.82617,-32.51393 -0.31099,-13.55619 -5.52529,-21.90015 -4.90733,-34.2763 1.51759,-10.57715 -6.82419,-16.84075 -6.09202,-25.06082 -2.11522,-4.43588 3.40953,-6.24786 -5.99987,-13.46309 8.72532,11.73814 5.8481,-10.988644 1.99993,-4.746205 -14.24284,1.90518 4.52937,-20.303494 -12.99957,-23.17716 3.35209,6.834713 -6.91895,-3.843366 -11.9996,2.991789 3.23649,-5.187303 0.10646,-9.4265 -5.25232,-11.780792 6.10916,10.276836 -10.10046,-2.066215 -17.66131,-2.074524 -9.50255,-16.277508 -27.04259,-24.764931 -41.19841,-36.324887 -14.39507,-7.131012 -33.67539,2.124641 -43.99233,-3.816785 -8.07324,-2.592708 -16.9022,1.669411 -10.02064,3.997481 20.11442,2.475917 40.31772,8.769272 57.79692,19.109664 9.23352,5.741429 23.41999,14.133636 25.5851,20.650355 -10.63157,-4.382258 -16.59918,-11.85358 -26.6771,-13.170315 -2.51232,-5.112984 -12.03927,-9.267021 -18.55774,-8.689611 -15.47406,-3.079195 -30.79539,-9.665064 -47.01798,-9.785643 0.49234,-4.991069 22.89646,0.300619 5.51221,-3.000472 -9.96213,-0.07499 -35.63247,-4.42607 -10.83376,-3.83894 11.10412,0.646624 26.10775,2.773837 8.4816,0.392256 -3.93886,-4.253224 -25.24135,0.782811 -20.15949,-5.520004 -6.5033,1.469537 -22.24605,-5.7358868 -8.32868,-5.6515933 9.11301,-2.8280152 -10.67026,0.3840539 -11.67065,-2.4465664 0.82316,-3.7792216 -7.25736,1.1430056 -8.04464,-0.8966913 z M 67.011164,42.966138 C 52.08306,58.202418 33.878212,71.776286 26.464287,92.236386 24.492079,95.433662 19.385772,104.8443 24.513348,102.80036 35.000121,80.287973 52.656525,62.288098 69.011098,43.963401 l -0.9999,-0.498598 -0.9999,-0.498598 z m -2.999901,40.887784 c -1.305288,6.482063 -16.816939,21.699888 -5.447665,7.48087 1.756748,-2.535981 3.573109,-5.03068 5.447665,-7.48087 z M 75.0109,90.834764 C 70.78249,105.89968 59.453903,115.32552 54.264636,127.51941 46.173976,147.5472 42.008503,169.02126 41.012023,190.56108 37.191488,173.07318 39.913762,151.46486 48.342496,134.71659 53.810435,117.02916 64.919873,104.66247 75.0109,90.834764 Z m -1.999934,23.934326 c -3.380501,14.48764 -12.440702,30.67697 -15.534376,46.6804 -1.491564,11.42091 -4.723692,17.90939 -3.030882,1.63172 1.66077,-17.33236 7.300038,-34.78497 18.565258,-48.31212 z m -36.715588,19.10772 c -4.562052,20.818 -11.784771,41.27765 -11.048914,62.928 -0.66443,10.10401 2.535368,40.47876 -0.196283,15.79445 -2.272875,-26.65124 1.845171,-53.71901 11.245197,-78.72245 z m 66.714602,228.21351 c 7.34291,3.00956 37.71164,20.15749 17.74466,9.98698 -6.07468,-3.03624 -11.88196,-6.56864 -17.74466,-9.98698 z"
     style="stroke-width:0.998614" />
</svg>
