<?xml version="1.0" encoding="UTF-8" standalone="no"?>
<svg
   version="1.1"
   width="32"
   height="32"
   id="svg13"
   sodipodi:docname="cannon.svg"
   inkscape:version="1.3 (0e150ed6c4, 2023-07-21)"
   xmlns:inkscape="http://www.inkscape.org/namespaces/inkscape"
   xmlns:sodipodi="http://sodipodi.sourceforge.net/DTD/sodipodi-0.dtd"
   xmlns="http://www.w3.org/2000/svg"
   xmlns:svg="http://www.w3.org/2000/svg">
  <sodipodi:namedview
     id="namedview13"
     pagecolor="#ffffff"
     bordercolor="#000000"
     borderopacity="0.25"
     inkscape:showpageshadow="2"
     inkscape:pageopacity="0.0"
     inkscape:pagecheckerboard="0"
     inkscape:deskcolor="#d1d1d1"
     inkscape:zoom="7.43"
     inkscape:cx="7.1332436"
     inkscape:cy="27.119785"
     inkscape:window-width="1920"
     inkscape:window-height="974"
     inkscape:window-x="-11"
     inkscape:window-y="-11"
     inkscape:window-maximized="1"
     inkscape:current-layer="svg13" />
  <defs
     id="defs1">
    <style
       id="style1">&#10;      g {&#10;        stroke-width: 1.3;&#10;        stroke: black;&#10;        fill: none;&#10;      }&#10;    </style>
  </defs>
  <!-- cannon -->
  <!-- guard -->
  <!-- elephant -->
  <!-- knight -->
  <!-- pawn -->
  <!-- rook -->
  <!-- general -->
  <g
     id="g2"
     transform="matrix(-1.1177128,0,0,1.3460433,50.119426,-19.963571)"
     style="fill:#000000;fill-opacity:1;stroke:none;stroke-width:1.3">
    <path
       style="color:#000000;fill:#000000;fill-opacity:1;stroke:none;-inkscape-stroke:none"
       d="m 30.279297,24.710937 c -2.008138,0 -3.648438,1.6403 -3.648438,3.648438 0,2.008138 1.6403,3.650391 3.648438,3.650391 2.008138,0 3.65039,-1.642253 3.65039,-3.650391 0,-2.008138 -1.642252,-3.648437 -3.65039,-3.648438 z m 0,1.298829 c 1.305567,0 2.351562,1.044042 2.351562,2.349609 0,1.305567 -1.045995,2.351563 -2.351562,2.351562 -1.305567,0 -2.349609,-1.045995 -2.34961,-2.351562 0,-1.305567 1.044043,-2.349609 2.34961,-2.349609 z"
       id="path46" />
    <path
       style="color:#000000;fill:#000000;fill-opacity:1;stroke:none;stroke-linejoin:round;-inkscape-stroke:none"
       d="m 35.173828,19.453125 c -2.213564,-0.467184 -4.996707,0.106002 -8.169922,1.099609 -3.173215,0.993608 -6.730222,2.439008 -10.378906,3.851563 a 0.65006498,0.65006498 0 0 0 -0.414063,0.617187 l 0.05859,3.34961 a 0.65006498,0.65006498 0 0 0 0.589844,0.636718 c 1.511485,0.139676 3.219474,0.309639 4.736328,0.431641 1.516855,0.122003 2.815727,0.201399 3.642578,0.138672 a 0.65006498,0.65006498 0 0 0 0.597656,-0.720703 c -0.305168,-2.739076 1.876768,-5.087382 4.63086,-4.984375 2.754092,0.103007 4.753061,2.607778 4.24414,5.316406 a 0.65006498,0.65006498 0 0 0 0.285157,0.666016 l 4.480468,2.90039 a 0.65006498,0.65006498 0 0 0 0.34375,0.103516 l 4.361329,0.06055 a 0.65006498,0.65006498 0 0 0 0.65625,-0.705078 l -0.18945,-2.269535 A 0.65006498,0.65006498 0 0 0 44,29.349609 h -3.513672 l -2.125,-1.498047 c 1.211623,-1.443645 1.677627,-3.16751 1.173828,-4.708984 -0.578516,-1.770087 -2.166296,-3.22618 -4.361328,-3.689453 z m -0.267578,1.273437 c 1.784964,0.376727 2.966095,1.515403 3.392578,2.820313 0.426483,1.30491 0.140561,2.77943 -1.232422,4.009766 a 0.65006498,0.65006498 0 0 0 0.05859,1.013671 l 2.78125,1.960938 a 0.65006498,0.65006498 0 0 0 0.373047,0.119141 h 3.123047 l 0.08008,0.958984 -3.457031,-0.04687 -4.052735,-2.625 c 0.321831,-3.270203 -2.105438,-6.237926 -5.457031,-6.363281 -3.262759,-0.122033 -5.821888,2.516415 -5.890625,5.685547 -0.697399,0.01261 -1.652118,-0.01475 -2.925781,-0.117188 -1.313978,-0.105685 -2.77218,-0.248574 -4.138672,-0.376953 l -0.04297,-2.308594 c 3.500618,-1.359724 6.908157,-2.733122 9.875,-3.662109 3.094279,-0.968891 5.74724,-1.441174 7.513672,-1.06836 z"
       id="path45" />
    <path
       style="color:#000000;fill:#000000;fill-opacity:1;stroke:none;-inkscape-stroke:none"
       d="m 25.835937,28.857422 -1.291015,0.144531 c 0.360777,3.238202 2.943043,5.047509 5.537109,5.144531 2.594067,0.09702 5.304592,-1.514591 5.90625,-4.716797 l -1.277344,-0.240234 c -0.488797,2.601526 -2.530233,3.734871 -4.580078,3.658203 -2.049845,-0.07667 -4.00182,-1.359464 -4.294922,-3.990234 z"
       id="path44" />
  </g>
</svg>
