<?xml version="1.0" encoding="UTF-8" standalone="no"?>
<svg
   version="1.1"
   width="32"
   height="32"
   id="svg13"
   sodipodi:docname="cannon.svg"
   inkscape:version="1.3 (0e150ed6c4, 2023-07-21)"
   xmlns:inkscape="http://www.inkscape.org/namespaces/inkscape"
   xmlns:sodipodi="http://sodipodi.sourceforge.net/DTD/sodipodi-0.dtd"
   xmlns="http://www.w3.org/2000/svg"
   xmlns:svg="http://www.w3.org/2000/svg">
  <sodipodi:namedview
     id="namedview13"
     pagecolor="#ffffff"
     bordercolor="#000000"
     borderopacity="0.25"
     inkscape:showpageshadow="2"
     inkscape:pageopacity="0.0"
     inkscape:pagecheckerboard="0"
     inkscape:deskcolor="#d1d1d1"
     inkscape:zoom="7.43"
     inkscape:cx="7.1332436"
     inkscape:cy="27.119785"
     inkscape:window-width="1920"
     inkscape:window-height="974"
     inkscape:window-x="-11"
     inkscape:window-y="-11"
     inkscape:window-maximized="1"
     inkscape:current-layer="svg13" />
  <defs
     id="defs1">
    <style
       id="style1">&#10;      g {&#10;        stroke-width: 1.3;&#10;        stroke: black;&#10;        fill: none;&#10;      }&#10;    </style>
  </defs>
  <!-- cannon -->
  <!-- guard -->
  <!-- elephant -->
  <!-- knight -->
  <!-- pawn -->
  <!-- rook -->
  <!-- general -->
  <g
     id="g2"
     transform="matrix(-1.1177128,0,0,1.3460433,50.119426,-19.963571)"
     style="fill:#000000;fill-opacity:1;stroke:none;stroke-width:1.3">
    <path
       id="path46"
       style="color:#000000;fill:#000000;fill-opacity:1;stroke:none;-inkscape-stroke:none"
       d="M 33.409372 19.288808 C 34.031155 19.285245 34.620886 19.335977 35.174276 19.452773 C 37.369306 19.916045 38.957346 21.372611 39.535862 23.142696 C 40.03966 24.684169 39.57321 26.407587 38.361589 27.85123 L 40.486464 29.350125 L 44.000545 29.350125 A 0.65006498 0.65006498 0 0 1 44.648842 29.94504 L 44.837564 32.214423 A 0.65006498 0.65006498 0 0 1 44.182278 32.919615 L 39.820693 32.858673 A 0.65006498 0.65006498 0 0 1 39.476449 32.755651 L 35.745686 30.341167 C 34.844925 32.936499 32.417246 34.234501 30.082265 34.147171 C 27.65201 34.056276 25.231606 32.461837 24.63902 29.598249 C 23.839753 29.603168 22.786049 29.535886 21.594997 29.440088 C 20.078144 29.318086 18.370945 29.147363 16.859461 29.007687 A 0.65006498 0.65006498 0 0 1 16.26883 28.370692 L 16.211164 25.021757 A 0.65006498 0.65006498 0 0 1 16.625305 24.403626 C 20.273986 22.991072 23.830081 21.546247 27.003293 20.55264 C 29.383202 19.807435 31.544023 19.299499 33.409372 19.288808 z M 33.421604 20.600523 C 31.785202 20.621488 29.713677 21.068038 27.39297 21.794706 C 24.42613 22.723692 21.018857 24.097338 17.518242 25.45706 L 17.56018 27.76562 C 18.926671 27.893999 20.385866 28.037199 21.699842 28.142883 C 22.973504 28.245321 23.927642 28.273025 24.62504 28.260415 C 24.693777 25.091287 27.252872 22.451866 30.515627 22.573899 C 33.867217 22.699254 36.294682 25.667838 35.972852 28.938038 L 40.025142 31.562919 L 43.481559 31.609351 L 43.402924 30.650232 L 40.278519 30.650232 A 0.65006498 0.65006498 0 0 1 39.906317 30.531249 L 37.124408 28.570932 A 0.65006498 0.65006498 0 0 1 37.066743 27.556675 C 38.439724 26.32634 38.725164 24.852437 38.298681 23.547528 C 37.872198 22.24262 36.691881 21.103488 34.906919 20.726761 C 34.465312 20.633558 33.967071 20.593535 33.421604 20.600523 z M 30.209827 23.871104 C 27.578257 23.917786 25.540378 26.203304 25.836009 28.856781 C 26.129111 31.487549 28.08135 32.770395 30.131193 32.847064 C 32.181036 32.923732 34.22241 31.790587 34.711207 29.189063 C 35.220127 26.480438 33.220789 23.975562 30.466699 23.872555 C 30.380634 23.869336 30.294716 23.869598 30.209827 23.871104 z M 30.279724 24.71124 C 32.28786 24.711241 33.930106 26.350948 33.930106 28.359084 C 33.930106 30.36722 32.28786 32.00983 30.279724 32.00983 C 28.271588 32.00983 26.63109 30.36722 26.63109 28.359084 C 26.63109 26.350948 28.271588 24.71124 30.279724 24.71124 z M 30.279724 26.009896 C 28.974159 26.009896 27.929431 27.053519 27.929431 28.359084 C 27.929432 29.66465 28.974159 30.711175 30.279724 30.711175 C 31.58529 30.711176 32.630018 29.66465 32.630018 28.359084 C 32.630018 27.053519 31.58529 26.009896 30.279724 26.009896 z " />
  </g>
</svg>
