<?xml version="1.0" encoding="UTF-8" standalone="no"?>
<svg
   version="1.1"
   width="32"
   height="32"
   id="svg13"
   sodipodi:docname="elephant.svg"
   inkscape:version="1.3 (0e150ed6c4, 2023-07-21)"
   xmlns:inkscape="http://www.inkscape.org/namespaces/inkscape"
   xmlns:sodipodi="http://sodipodi.sourceforge.net/DTD/sodipodi-0.dtd"
   xmlns="http://www.w3.org/2000/svg"
   xmlns:svg="http://www.w3.org/2000/svg">
  <sodipodi:namedview
     id="namedview13"
     pagecolor="#ffffff"
     bordercolor="#000000"
     borderopacity="0.25"
     inkscape:showpageshadow="2"
     inkscape:pageopacity="0.0"
     inkscape:pagecheckerboard="0"
     inkscape:deskcolor="#d1d1d1"
     inkscape:zoom="5.6568543"
     inkscape:cx="16.263456"
     inkscape:cy="28.726213"
     inkscape:window-width="1920"
     inkscape:window-height="974"
     inkscape:window-x="-11"
     inkscape:window-y="-11"
     inkscape:window-maximized="1"
     inkscape:current-layer="svg13" />
  <defs
     id="defs1">
    <style
       id="style1">&#10;      g {&#10;        stroke-width: 1.3;&#10;        stroke: black;&#10;        fill: none;&#10;      }&#10;    </style>
  </defs>
  <!-- cannon -->
  <!-- guard -->
  <!-- elephant -->
  <!-- knight -->
  <!-- pawn -->
  <!-- rook -->
  <!-- general -->
  <g
     transform="matrix(0,1.0811582,-1.0943206,0,64.229352,-43.336992)"
     id="g7"
     style="fill:#000000;stroke:none;stroke-width:1.19516;stroke-dasharray:none;fill-opacity:1">
    <path
       style="color:#000000;fill:#000000;stroke:none;stroke-width:1.19516;stroke-dasharray:none;fill-opacity:1"
       d="m 61.291016,41.287109 c -1.047855,0.203602 -2.006466,0.633789 -2.742188,1.28711 l 0.863281,0.972656 c 0.932309,-0.82789 2.68284,-1.167373 4.359375,-0.931641 L 63.632812,56.375 c -0.0023,0.232153 -0.04324,0.271799 -0.101562,0.322266 -0.05832,0.05047 -0.205849,0.120053 -0.46875,0.140625 -0.525801,0.04114 -1.409789,-0.132149 -2.296875,-0.416016 -1.774172,-0.567733 -3.591797,-1.509766 -3.591797,-1.509766 l -0.601562,1.152344 c 0,0 1.873015,0.98007 3.796875,1.595703 0.961929,0.307817 1.928467,0.540457 2.794921,0.472656 0.433228,-0.0339 0.867788,-0.147451 1.21875,-0.451171 0.350963,-0.303721 0.545764,-0.78818 0.550782,-1.292969 l 0.148437,-14.917969 -0.511719,-0.115234 c -1.094727,-0.24845 -2.231441,-0.271962 -3.279296,-0.06836 z"
       id="path22" />
    <path
       style="color:#000000;fill:#000000;stroke:none;stroke-width:1.19516;stroke-dasharray:none;fill-opacity:1"
       d="m 50.671875,30.703125 -0.08008,3.417969 4.753906,1.1875 -0.150391,0.943359 c -2.688658,0.534476 -5.857841,1.222216 -8.066406,2.828125 -1.163097,0.84572 -2.061262,1.984998 -2.335937,3.453125 -0.262136,1.401107 0.0848,3.057366 1.058593,4.970703 -0.04432,0.167371 -0.205716,0.751277 -0.339843,1.654297 -0.151863,1.022426 -0.304119,2.190803 0.160156,3.136719 0.191413,0.389986 0.46254,0.581125 0.818359,0.849609 0.35582,0.268485 0.800856,0.558281 1.3125,0.867188 1.02329,0.617814 2.307622,1.307721 3.570313,1.957031 2.525382,1.29862 4.964844,2.433594 4.964844,2.433594 l 0.628906,0.291015 0.251953,-0.644531 c 0,0 0.614847,-1.573577 1.128906,-3.412109 0.25703,-0.919266 0.490503,-1.906319 0.609375,-2.820313 0.118872,-0.913993 0.154361,-1.74582 -0.134765,-2.460937 v -0.002 c -0.505422,-1.244182 -1.613052,-1.982032 -2.544922,-2.435547 -0.177201,-0.08624 -0.169375,-0.05403 -0.333985,-0.121094 0.391145,-0.209772 0.473935,-0.222313 0.958985,-0.529297 0.56771,-0.3593 1.144799,-0.766235 1.615234,-1.210937 0.470436,-0.444703 0.890613,-0.918641 0.9375,-1.591797 0.09773,-1.403262 -0.206311,-2.455326 -0.294922,-2.802735 1.620067,-1.262285 2.585291,-2.421772 2.822266,-3.597656 0.253815,-1.259446 -0.398295,-2.395177 -1.419922,-3.195312 -2.043254,-1.600271 -5.659184,-2.461479 -9.152344,-3.042969 z m 1.263672,1.574219 c 3.169772,0.579859 6.341103,1.452133 7.826172,2.615234 0.802216,0.628293 1.094826,1.181855 0.947265,1.914063 -0.147561,0.732207 -0.887127,1.797869 -2.607422,3.074218 l -0.357421,0.263672 0.117187,0.427735 c 0,0 0.387941,1.495177 0.296875,2.802734 -0.0041,0.05832 -0.164309,0.387612 -0.533203,0.736328 -0.368894,0.348716 -0.892048,0.725742 -1.417969,1.058594 -1.051842,0.665704 -2.103515,1.162109 -2.103515,1.162109 l 0.277343,-0.0625 -0.138672,1.285156 c 0,0 0.683669,0.150124 1.466797,0.53125 0.783129,0.381127 1.593626,0.983426 1.908203,1.757813 0.118243,0.293759 0.156696,0.990324 0.05078,1.804687 -0.106029,0.815244 -0.325593,1.756448 -0.572266,2.638672 -0.392283,1.403003 -0.694546,2.161366 -0.865234,2.615235 -0.52383,-0.24557 -2.100029,-0.97724 -4.263672,-2.089844 -1.248197,-0.641856 -2.514715,-1.323911 -3.492188,-1.914063 -0.488736,-0.295075 -0.906791,-0.567415 -1.203125,-0.791015 -0.296334,-0.2236 -0.466258,-0.455297 -0.43164,-0.384766 -0.162905,-0.331902 -0.181831,-1.438144 -0.04297,-2.373047 0.138862,-0.934902 0.353516,-1.722656 0.353516,-1.722656 l 0.06836,-0.25 -0.123047,-0.228516 c -0.997721,-1.863979 -1.229946,-3.281661 -1.025391,-4.375 0.204556,-1.093338 0.843188,-1.930662 1.822266,-2.642578 1.958157,-1.423831 5.248599,-2.166857 8.001953,-2.708984 l 0.445313,-0.08789 0.476562,-2.998047 -4.90039,-1.222656 z"
       id="path21" />
    <path
       style="color:#000000;fill:#000000;stroke:none;stroke-width:1.19516;stroke-dasharray:none;fill-opacity:1"
       d="M 56.214844,29.435547 54.425781,43.175781 59.0625,42.900391 59.15625,42.287109 59.14453,42.197269 57.503906,29.4375 Z m 0.640625,5.148437 0.912109,7.089844 -1.849609,0.111328 z"
       id="path20" />
    <path
       style="color:#000000;fill:#000000;stroke:none;stroke-width:1.19516;stroke-dasharray:none;fill-opacity:1"
       d="m 51,39.75 c -0.682656,0 -1.25,0.567344 -1.25,1.25 0,0.682656 0.567344,1.25 1.25,1.25 0.682656,0 1.25,-0.567344 1.25,-1.25 0,-0.682656 -0.567344,-1.25 -1.25,-1.25 z m 0,1.199219 c 0.01991,0 0.05078,0.03087 0.05078,0.05078 0,0.01991 -0.03087,0.05078 -0.05078,0.05078 -0.01991,0 -0.05078,-0.03087 -0.05078,-0.05078 0,-0.01991 0.03087,-0.05078 0.05078,-0.05078 z"
       id="path19" />
  </g>
</svg>
