<?xml version="1.0" encoding="UTF-8" standalone="no"?>
<svg
   version="1.1"
   width="32"
   height="32"
   id="svg13"
   sodipodi:docname="knight.svg"
   inkscape:version="1.3 (0e150ed6c4, 2023-07-21)"
   xmlns:inkscape="http://www.inkscape.org/namespaces/inkscape"
   xmlns:sodipodi="http://sodipodi.sourceforge.net/DTD/sodipodi-0.dtd"
   xmlns="http://www.w3.org/2000/svg"
   xmlns:svg="http://www.w3.org/2000/svg">
  <sodipodi:namedview
     id="namedview13"
     pagecolor="#ffffff"
     bordercolor="#000000"
     borderopacity="0.25"
     inkscape:showpageshadow="2"
     inkscape:pageopacity="0.0"
     inkscape:pagecheckerboard="0"
     inkscape:deskcolor="#d1d1d1"
     inkscape:zoom="5.6568543"
     inkscape:cx="12.904699"
     inkscape:cy="28.726213"
     inkscape:window-width="1920"
     inkscape:window-height="974"
     inkscape:window-x="-11"
     inkscape:window-y="-11"
     inkscape:window-maximized="1"
     inkscape:current-layer="svg13" />
  <defs
     id="defs1">
    <style
       id="style1">&#10;      g {&#10;        stroke-width: 1.3;&#10;        stroke: black;&#10;        fill: none;&#10;      }&#10;    </style>
  </defs>
  <!-- cannon -->
  <!-- guard -->
  <!-- elephant -->
  <!-- knight -->
  <!-- pawn -->
  <!-- rook -->
  <!-- general -->
  <g
     transform="matrix(-0.38754532,1.0789004,-1.0647721,-0.3926877,58.196814,-12.093006)"
     id="g9"
     style="fill:#000000;stroke:none;stroke-width:1.13975146;stroke-dasharray:none;fill-opacity:1">
    <path
       style="color:#000000;fill:#000000;stroke:none;stroke-width:1.13975146;stroke-linejoin:round;stroke-dasharray:none;fill-opacity:1"
       d="m 35.408203,14.134766 c -0.628574,0.08713 -1.295119,0.388747 -1.919922,0.96289 a 0.65006498,0.65006498 0 0 0 -0.152344,0.208985 l -3.396484,7.476562 H 27.5 a 0.65006498,0.65006498 0 0 0 -0.648438,0.683594 c 0.102107,2.053734 0.3829,3.840511 0.826172,5.388672 l 1.25,-0.357422 c -0.35536,-1.241121 -0.549518,-2.771286 -0.673828,-4.414063 h 2.103516 a 0.65006498,0.65006498 0 0 0 0.591797,-0.380859 l 3.49414,-7.691406 c 0.902584,-0.790733 1.501034,-0.730303 1.982422,-0.4375 0.496833,0.302196 0.815154,1.007571 0.783203,1.375 a 0.65006498,0.65006498 0 0 0 0.0039,0.136718 l 0.71289,5.714844 a 0.65006498,0.65006498 0 0 0 1.146485,0.333985 c 2.043785,-2.462496 3.37461,-3.405186 5.255859,-4.732422 l 5.201172,14.298828 c -3.768762,1.733682 -7.604056,2.896443 -10.916016,2.90625 -3.473337,0.01028 -6.327137,-1.127206 -8.216797,-4.039063 l -1.089843,0.708985 c 2.137916,3.294407 5.537961,4.640077 9.310546,4.628906 3.772586,-0.01117 7.963613,-1.308921 12.019532,-3.242188 A 0.65006498,0.65006498 0 0 0 50.96875,32.853516 L 45.253906,17.140625 a 0.65006498,0.65006498 0 0 0 -0.988281,-0.308594 c -1.955807,1.389445 -3.404462,2.499253 -5.216797,4.470703 l -0.546875,-4.378906 0.002,0.136719 c 0.0871,-1.00162 -0.455725,-2.021879 -1.402344,-2.597656 C 36.6283,14.175002 36.036824,14.047638 35.40825,14.134766 Z"
       id="path51" />
    <g
       id="circle8"
       style="stroke:none;stroke-width:1.13975146;stroke-dasharray:none;fill:#000000;fill-opacity:1">
      <path
         style="color:#000000;fill:#000000;stroke:none;stroke-width:1.13975146;stroke-dasharray:none;fill-opacity:1"
         d="M 34.1,24 A 0.60000002,0.60000002 0 0 1 33.5,24.6 0.60000002,0.60000002 0 0 1 32.9,24 0.60000002,0.60000002 0 0 1 33.5,23.4 0.60000002,0.60000002 0 0 1 34.1,24 Z"
         id="path50" />
      <path
         style="color:#000000;fill:#000000;stroke:none;stroke-width:1.13975146;stroke-dasharray:none;fill-opacity:1"
         d="m 33.5,22.75 c -0.682656,0 -1.25,0.567344 -1.25,1.25 0,0.682656 0.567344,1.25 1.25,1.25 0.682656,0 1.25,-0.567344 1.25,-1.25 0,-0.682656 -0.567344,-1.25 -1.25,-1.25 z m 0,1.199219 c 0.01991,0 0.05078,0.03087 0.05078,0.05078 0,0.01992 -0.03087,0.05078 -0.05078,0.05078 -0.01991,0 -0.05078,-0.03087 -0.05078,-0.05078 0,-0.01992 0.03087,-0.05078 0.05078,-0.05078 z"
         id="path49" />
    </g>
    <path
       style="color:#000000;fill:#000000;stroke:none;stroke-width:1.13975146;stroke-dasharray:none;fill-opacity:1"
       d="m 31.876953,26.736328 -8.232422,2.337891 0.691406,0.773437 c 2.071448,2.321149 5.894263,3.279968 9.117188,2.521485 l -0.298828,-1.265625 c -2.331681,0.548738 -5.125228,-0.08788 -6.935547,-1.408204 l 6.011719,-1.707031 z"
       id="path48" />
  </g>
</svg>
