<?xml version="1.0" encoding="UTF-8" standalone="no"?>
<svg
   version="1.1"
   width="32"
   height="32"
   id="svg13"
   sodipodi:docname="pawn.svg"
   inkscape:version="1.3 (0e150ed6c4, 2023-07-21)"
   xmlns:inkscape="http://www.inkscape.org/namespaces/inkscape"
   xmlns:sodipodi="http://sodipodi.sourceforge.net/DTD/sodipodi-0.dtd"
   xmlns="http://www.w3.org/2000/svg"
   xmlns:svg="http://www.w3.org/2000/svg">
  <sodipodi:namedview
     id="namedview13"
     pagecolor="#ffffff"
     bordercolor="#000000"
     borderopacity="0.25"
     inkscape:showpageshadow="2"
     inkscape:pageopacity="0.0"
     inkscape:pagecheckerboard="0"
     inkscape:deskcolor="#d1d1d1"
     inkscape:zoom="5.6568543"
     inkscape:cx="16.263456"
     inkscape:cy="28.726213"
     inkscape:window-width="1920"
     inkscape:window-height="974"
     inkscape:window-x="-11"
     inkscape:window-y="-11"
     inkscape:window-maximized="1"
     inkscape:current-layer="svg13" />
  <defs
     id="defs1">
    <style
       id="style1">&#10;      g {&#10;        stroke-width: 1.3;&#10;        stroke: black;&#10;        fill: none;&#10;      }&#10;    </style>
  </defs>
  <!-- cannon -->
  <!-- guard -->
  <!-- elephant -->
  <!-- knight -->
  <!-- pawn -->
  <!-- rook -->
  <!-- general -->
  <g
     transform="matrix(0.75559846,0,0,0.74108973,-6.0153183,-13.574282)"
     id="g10"
     style="fill:#000000;stroke:none;stroke-width:1.73725;stroke-linecap:round;stroke-linejoin:round;fill-opacity:1">
    <path
       style="color:#000000;fill:#000000;stroke:none;-inkscape-stroke:none;fill-opacity:1"
       d="m 29.167969,19.666016 c -2.963084,0 -5.384766,2.421661 -5.384766,5.384765 0,0.66181 0.274189,1.187399 0.494141,1.740235 -4.797885,1.954072 -8.216797,6.562449 -8.216797,12.054687 0,3.670234 1.568614,6.942626 3.99414,9.330078 -3.995091,2.427365 -6.983683,6.336397 -8.099609,11.013672 a 0.86871209,0.86871209 0 0 0 0.84375,1.070313 h 32.785156 a 0.86871209,0.86871209 0 0 0 0.845703,-1.070313 C 45.313963,54.513105 42.3259,50.60328 38.332031,48.175781 c 2.433504,-2.388343 3.992188,-5.662579 3.992188,-9.330078 0,-5.488874 -3.438891,-10.10148 -8.230469,-12.060547 0.204218,-0.558961 0.458984,-1.098162 0.458984,-1.734375 0,-2.963109 -2.42169,-5.384765 -5.384765,-5.384765 z m 0,1.736328 c 2.022719,0 3.648437,1.625695 3.648437,3.648437 0,0.638721 -0.172936,1.227175 -0.472656,1.763672 a 0.86871209,0.86871209 0 0 0 0.480469,1.246094 c 4.502801,1.522038 7.763672,5.761675 7.763672,10.785156 0,3.546631 -1.611672,6.703019 -4.152344,8.800781 a 0.86871209,0.86871209 0 0 0 0.15039,1.439453 c 3.717302,1.939092 6.489304,5.360601 7.773438,9.435547 H 14.025391 c 1.284118,-4.074944 4.056118,-7.496455 7.773437,-9.435547 a 0.86871209,0.86871209 0 0 0 0.152344,-1.4375 c -2.52921,-2.098621 -4.154297,-5.258145 -4.154297,-8.802734 0,-5.038234 3.243222,-9.271998 7.761719,-10.785156 A 0.86871209,0.86871209 0 0 0 26.039062,26.8125 c -0.318806,-0.567048 -0.519531,-1.150076 -0.519531,-1.761719 0,-2.022747 1.625707,-3.648437 3.648438,-3.648437 z"
       id="path18" />
  </g>
</svg>
