<?xml version="1.0" encoding="UTF-8" standalone="no"?>
<svg
   version="1.1"
   width="32"
   height="32"
   id="svg13"
   sodipodi:docname="pawn.svg"
   inkscape:version="1.3 (0e150ed6c4, 2023-07-21)"
   xmlns:inkscape="http://www.inkscape.org/namespaces/inkscape"
   xmlns:sodipodi="http://sodipodi.sourceforge.net/DTD/sodipodi-0.dtd"
   xmlns="http://www.w3.org/2000/svg"
   xmlns:svg="http://www.w3.org/2000/svg">
  <sodipodi:namedview
     id="namedview13"
     pagecolor="#ffffff"
     bordercolor="#000000"
     borderopacity="0.25"
     inkscape:showpageshadow="2"
     inkscape:pageopacity="0.0"
     inkscape:pagecheckerboard="0"
     inkscape:deskcolor="#d1d1d1"
     inkscape:zoom="16"
     inkscape:cx="20.5625"
     inkscape:cy="16.78125"
     inkscape:window-width="1920"
     inkscape:window-height="974"
     inkscape:window-x="-11"
     inkscape:window-y="-11"
     inkscape:window-maximized="1"
     inkscape:current-layer="svg13" />
  <defs
     id="defs1">
    <style
       id="style1">&#10;      g {&#10;        stroke-width: 1.3;&#10;        stroke: black;&#10;        fill: none;&#10;      }&#10;    </style>
  </defs>
  <!-- cannon -->
  <!-- guard -->
  <!-- elephant -->
  <!-- knight -->
  <!-- pawn -->
  <!-- rook -->
  <!-- general -->
  <g
     transform="matrix(0.69520801,0,0,0.68976135,-4.294778,-11.564858)"
     id="g10"
     style="fill:#000000;fill-opacity:1;stroke:#000000;stroke-width:0;stroke-linecap:round;stroke-linejoin:round;stroke-opacity:1;stroke-dasharray:none">
    <g
       id="path18"
       style="fill:#000000;fill-opacity:1;stroke:none">
      <path
         style="color:#000000;stroke:none;stroke-linecap:butt;stroke-linejoin:miter;-inkscape-stroke:none;fill:#000000;fill-opacity:1"
         d="m 29.167969,19.666016 c -2.963084,0 -5.384766,2.421661 -5.384766,5.384765 0,0.66181 0.274189,1.187399 0.494141,1.740235 -4.797885,1.954072 -8.216797,6.562449 -8.216797,12.054687 0,3.670234 1.568614,6.942626 3.99414,9.330078 -3.995091,2.427365 -6.983683,6.336397 -8.099609,11.013672 a 0.86871209,0.86871209 0 0 0 0.84375,1.070313 h 32.785156 a 0.86871209,0.86871209 0 0 0 0.845703,-1.070313 C 45.313963,54.513105 42.3259,50.60328 38.332031,48.175781 c 2.433504,-2.388343 3.992188,-5.662579 3.992188,-9.330078 0,-5.488874 -3.438891,-10.10148 -8.230469,-12.060547 0.204218,-0.558961 0.458984,-1.098162 0.458984,-1.734375 0,-2.963109 -2.42169,-5.384765 -5.384765,-5.384765 z m 0,1.736328 c 2.022719,0 3.648437,1.625695 3.648437,3.648437 0,0.638721 -0.172936,1.227175 -0.472656,1.763672 a 0.86871209,0.86871209 0 0 0 0.480469,1.246094 c 4.502801,1.522038 7.763672,5.761675 7.763672,10.785156 0,3.546631 -1.611672,6.703019 -4.152344,8.800781 a 0.86871209,0.86871209 0 0 0 0.15039,1.439453 c 3.717302,1.939092 6.489304,5.360601 7.773438,9.435547 H 14.025391 c 1.284118,-4.074944 4.056118,-7.496455 7.773437,-9.435547 a 0.86871209,0.86871209 0 0 0 0.152344,-1.4375 c -2.52921,-2.098621 -4.154297,-5.258145 -4.154297,-8.802734 0,-5.038234 3.243222,-9.271998 7.761719,-10.785156 A 0.86871209,0.86871209 0 0 0 26.039062,26.8125 c -0.318806,-0.567048 -0.519531,-1.150076 -0.519531,-1.761719 0,-2.022747 1.625707,-3.648437 3.648438,-3.648437 z"
         id="path1" />
      <path
         style="color:#000000;stroke:none;stroke-linecap:butt;stroke-linejoin:miter;-inkscape-stroke:none;fill:#000000;fill-opacity:1"
         d="m 29.167969,19.449219 c -3.081103,0 -5.601563,2.520439 -5.601563,5.601562 0,0.649638 0.254778,1.148357 0.458985,1.638672 -4.777929,2.027461 -8.181641,6.644686 -8.181641,12.15625 0,3.64192 1.553878,6.87137 3.916016,9.279297 -3.945265,2.463843 -6.903866,6.353863 -8.015625,11.013672 -0.161423,0.676588 0.359109,1.336893 1.054687,1.33789 h 32.785156 c 0.696552,5.68e-4 1.218289,-0.660355 1.056641,-1.33789 -1.109683,-4.651027 -4.062017,-8.533337 -7.996094,-10.998047 2.370358,-2.409261 3.896485,-5.655195 3.896485,-9.294922 0,-5.509791 -3.42383,-10.132253 -8.197266,-12.164062 0.189952,-0.497567 0.425781,-1.005065 0.425781,-1.63086 0,-3.081128 -2.520468,-5.601562 -5.601562,-5.601562 z m 0,0.433593 c 2.84505,0 5.167968,2.322885 5.167968,5.167969 0,0.578385 -0.236576,1.088829 -0.445312,1.660156 a 0.21663463,0.21663463 0 0 0 0.121094,0.275391 c 4.714932,1.92773 8.095703,6.460981 8.095703,11.859375 0,3.606122 -1.531866,6.824375 -3.927735,9.175781 a 0.21663463,0.21663463 0 0 0 0.03906,0.339844 c 3.946626,2.398785 6.898213,6.260972 8,10.878906 0.09901,0.414985 -0.208133,0.803082 -0.634766,0.802735 H 12.798828 c -0.425998,-6.11e-4 -0.731674,-0.388366 -0.632812,-0.802735 1.101987,-4.618852 4.054093,-8.480238 8.001953,-10.878906 a 0.21663463,0.21663463 0 0 0 0.03906,-0.339844 c -2.388275,-2.350785 -3.929687,-5.567269 -3.929687,-9.175781 0,-5.402338 3.361041,-9.930761 8.082031,-11.853516 a 0.21663463,0.21663463 0 0 0 0.119141,-0.28125 C 24.253138,26.144466 24,25.652762 24,25.050781 c 0,-2.845079 2.322909,-5.167968 5.167969,-5.167969 z m 0,1.302735 c -2.138792,0 -3.865235,1.726426 -3.865235,3.865234 0,0.659034 0.21602,1.278708 0.546875,1.867188 0.20191,0.360186 0.03194,0.805691 -0.359375,0.9375 -4.604264,1.54188 -7.910156,5.859046 -7.910156,10.990234 0,3.610793 1.656084,6.831024 4.232422,8.96875 0.363648,0.302378 0.305668,0.860638 -0.113281,1.080078 -3.770804,1.966992 -6.580332,5.435482 -7.88086,9.5625 a 0.21663463,0.21663463 0 0 0 0.207032,0.28125 h 30.333984 a 0.21663463,0.21663463 0 0 0 0.207031,-0.28125 c -1.300544,-4.127019 -4.110072,-7.595508 -7.880859,-9.5625 -0.419975,-0.219805 -0.4768,-0.778211 -0.111328,-1.080078 2.58825,-2.137046 4.230468,-5.3565 4.230468,-8.96875 0,-5.117215 -3.321813,-9.439281 -7.910156,-10.990234 -0.390305,-0.131954 -0.562012,-0.57572 -0.361328,-0.935547 0.315309,-0.564401 0.5,-1.191321 0.5,-1.869141 0,-2.138804 -1.726454,-3.865234 -3.865234,-3.865234 z m 0,0.433594 c 1.906653,0 3.43164,1.524964 3.43164,3.43164 0,0.599621 -0.161181,1.149611 -0.445312,1.658203 -0.328306,0.588653 -0.0389,1.340774 0.599609,1.556641 4.417251,1.49312 7.617188,5.650341 7.617188,10.580078 0,3.481005 -1.58113,6.574339 -4.074219,8.632813 -0.5924,0.489301 -0.491292,1.442541 0.189453,1.798828 3.5744,1.864548 6.240515,5.133996 7.546875,9.027343 h -29.68164 c 1.306345,-3.893345 3.972458,-7.162795 7.546874,-9.027343 0.679203,-0.355757 0.780954,-1.304705 0.191407,-1.794922 -2.482077,-2.059512 -4.076172,-5.15834 -4.076172,-8.636719 0,-4.94527 3.180561,-9.095645 7.613281,-10.580078 0.640088,-0.215605 0.931832,-0.969425 0.601563,-1.558594 -0.306756,-0.545615 -0.492188,-1.091998 -0.492188,-1.65625 0,-1.906682 1.524974,-3.43164 3.431641,-3.43164 z"
         id="path2" />
    </g>
  </g>
</svg>
